Seventy-Shadow.ufo
<glyph name="exclam" format="2">
  <advance width="207"/>
  <unicode hex="0021"/>
  <outline>
    <contour>
      <point x="-1" y="81" type="curve" smooth="yes"/>
      <point x="-1" y="125.359"/>
      <point x="31.543" y="166"/>
      <point x="75" y="166" type="curve" smooth="yes"/>
      <point x="96.1465" y="166"/>
      <point x="116.674" y="154.325"/>
      <point x="130" y="139" type="curve" smooth="yes"/>
      <point x="172.438" y="96.5781" type="line" smooth="yes"/>
      <point x="186.422" y="80.5781"/>
      <point x="193.438" y="59.5781"/>
      <point x="193.422" y="38.5625" type="curve" smooth="yes"/>
      <point x="193.422" y="-4.96484"/>
      <point x="160.717" y="-45.4053"/>
      <point x="117.422" y="-45.4375" type="curve" smooth="yes"/>
      <point x="98.0625" y="-45.4375"/>
      <point x="78.7031" y="-36.9375"/>
      <point x="64.8281" y="-23.0625" type="curve" smooth="yes"/>
      <point x="22.4062" y="19.375" type="line" smooth="yes"/>
      <point x="7.46484" y="34.3164"/>
      <point x="-1" y="58.5811"/>
    </contour>
    <contour>
      <point x="12" y="666" type="curve" smooth="yes"/>
      <point x="149.001" y="696" type="line" smooth="yes"/>
      <point x="153.595" y="697.016"/>
      <point x="157.407" y="696.219"/>
      <point x="159.642" y="693.984" type="curve" smooth="yes"/>
      <point x="202.063" y="651.562" type="line" smooth="yes"/>
      <point x="204.204" y="649.422"/>
      <point x="204.892" y="645.969"/>
      <point x="203.423" y="641.562" type="curve" smooth="yes"/>
      <point x="161.655" y="503.369"/>
      <point x="151.353" y="358.958"/>
      <point x="167.423" y="214.578" type="curve" smooth="yes"/>
      <point x="168.423" y="208.578"/>
      <point x="164.423" y="202.562"/>
      <point x="157.423" y="201.562" type="curve" smooth="yes"/>
      <point x="129.905" y="199.728"/>
      <point x="101.877" y="196.006"/>
      <point x="75.4219" y="191.562" type="curve" smooth="yes"/>
      <point x="70.875" y="191.125"/>
      <point x="67.3594" y="192.312"/>
      <point x="65.0781" y="194.609" type="curve" smooth="yes"/>
      <point x="22.6406" y="237.031" type="line" smooth="yes"/>
      <point x="19.9062" y="239.781"/>
      <point x="18.9062" y="244.094"/>
      <point x="20.0156" y="249" type="curve" smooth="yes"/>
      <point x="43" y="350.984"/>
      <point x="47" y="456.984"/>
      <point x="29" y="560" type="curve" smooth="yes"/>
      <point x="24" y="593"/>
      <point x="16" y="625"/>
      <point x="7" y="657" type="curve" smooth="yes"/>
      <point x="6" y="661"/>
      <point x="8" y="664.984"/>
    </contour>
    <contour>
      <point x="113.579" y="253.891" type="curve" smooth="yes"/>
      <point x="116.675" y="254.333"/>
      <point x="112.343" y="278.978"/>
      <point x="112.046" y="282.031" type="curve" smooth="yes"/>
      <point x="98.9209" y="418.312"/>
      <point x="112.046" y="556.625"/>
      <point x="151.437" y="686.906" type="curve" smooth="yes"/>
      <point x="151.593" y="687.453"/>
      <point x="151.78" y="688.312"/>
      <point x="151.78" y="688.359" type="curve"/>
      <point x="152.562" y="686.906" type="line"/>
      <point x="152.245" y="686.884"/>
      <point x="151.802" y="686.372"/>
      <point x="151.187" y="686.234" type="curve" smooth="yes"/>
      <point x="14.4678" y="656.312" type="line"/>
      <point x="15.874" y="657.141" type="line"/>
      <point x="16.6865" y="659.422" type="line"/>
      <point x="25.7021" y="627.406"/>
      <point x="33.7646" y="595.172"/>
      <point x="38.8428" y="561.734" type="curve" smooth="yes"/>
      <point x="57.0928" y="457.312"/>
      <point x="53.0303" y="349.984"/>
      <point x="29.7646" y="246.797" type="curve" smooth="yes"/>
      <point x="29.1094" y="243.871"/>
      <point x="29.1699" y="243.748"/>
      <point x="31.3438" y="243.859" type="curve" smooth="yes"/>
      <point x="58.3105" y="248.371"/>
      <point x="85.4658" y="251.951"/>
    </contour>
    <contour>
      <point x="8.99902" y="80.9844" type="curve" smooth="yes"/>
      <point x="8.99902" y="41.9092"/>
      <point x="36.1982" y="7"/>
      <point x="74.999" y="7" type="curve" smooth="yes"/>
      <point x="91.2803" y="7"/>
      <point x="107.265" y="14.1562"/>
      <point x="119.28" y="26.1719" type="curve" smooth="yes"/>
      <point x="148.812" y="55.7031"/>
      <point x="148.546" y="106.594"/>
      <point x="118.999" y="136.125" type="curve" smooth="yes"/>
      <point x="106.843" y="148.297"/>
      <point x="90.8584" y="156"/>
      <point x="74.999" y="156" type="curve" smooth="yes"/>
      <point x="36.9121" y="156"/>
      <point x="8.99902" y="119.774"/>
    </contour>
  </outline>
</glyph>
<glyph name="quotedbl" format="2">
  <advance width="402"/>
  <unicode hex="0022"/>
  <outline>
    <contour>
      <point x="199" y="929" type="curve" smooth="yes"/>
      <point x="313" y="930" type="line" smooth="yes"/>
      <point x="318.281" y="930"/>
      <point x="322.719" y="928.047"/>
      <point x="325.875" y="924.891" type="curve" smooth="yes"/>
      <point x="368.312" y="882.453" type="line" smooth="yes"/>
      <point x="371.141" y="879.625"/>
      <point x="372.953" y="875.828"/>
      <point x="373.422" y="871.578" type="curve" smooth="yes"/>
      <point x="398.422" y="639.562" type="line" smooth="yes"/>
      <point x="400.556" y="631.062"/>
      <point x="391.922" y="623.578"/>
      <point x="384.422" y="623.578" type="curve" smooth="yes"/>
      <point x="308.438" y="621.562" type="line" smooth="yes"/>
      <point x="302.516" y="620.984"/>
      <point x="296.953" y="623.188"/>
      <point x="292.969" y="627.156" type="curve" smooth="yes"/>
      <point x="250.547" y="669.594" type="line" smooth="yes"/>
      <point x="247.797" y="672.328"/>
      <point x="245.812" y="675.922"/>
      <point x="245" y="680" type="curve" smooth="yes"/>
      <point x="186" y="912" type="line" smooth="yes"/>
      <point x="184.039" y="919.845"/>
      <point x="190.539" y="929"/>
    </contour>
    <contour>
      <point x="19" y="929" type="curve" smooth="yes"/>
      <point x="133" y="929.999" type="line" smooth="yes"/>
      <point x="138.281" y="929.999"/>
      <point x="142.719" y="928.046"/>
      <point x="145.875" y="924.874" type="curve" smooth="yes"/>
      <point x="188.312" y="882.452" type="line" smooth="yes"/>
      <point x="191.141" y="879.624"/>
      <point x="192.953" y="875.812"/>
      <point x="193.422" y="871.562" type="curve" smooth="yes"/>
      <point x="218.438" y="639.577" type="line" smooth="yes"/>
      <point x="220.529" y="631.078"/>
      <point x="211.955" y="623.562"/>
      <point x="204.438" y="623.562" type="curve" smooth="yes"/>
      <point x="128.422" y="621.562" type="line"/>
      <point x="86" y="663.999" type="line"/>
      <point x="75.4688" y="662.943"/>
      <point x="66.8613" y="670.659"/>
      <point x="65" y="680" type="curve" smooth="yes"/>
      <point x="6" y="912" type="line" smooth="yes"/>
      <point x="4.03906" y="919.845"/>
      <point x="10.5391" y="929"/>
    </contour>
    <contour>
      <point x="19.0625" y="922.999" type="line" smooth="yes"/>
      <point x="13.7715" y="922.999"/>
      <point x="11.0088" y="916.726"/>
      <point x="11.8135" y="913.452" type="curve" smooth="yes"/>
      <point x="70.8135" y="681.483" type="line" smooth="yes"/>
      <point x="72.5977" y="674.42"/>
      <point x="77.7627" y="669.762"/>
      <point x="85.8447" y="669.999" type="curve" smooth="yes"/>
      <point x="162.001" y="671.999" type="line" smooth="yes"/>
      <point x="167.019" y="671.999"/>
      <point x="170.482" y="677.339"/>
      <point x="170.032" y="681.358" type="curve" smooth="yes"/>
      <point x="145.032" y="913.343" type="line" smooth="yes"/>
      <point x="144.348" y="919.501"/>
      <point x="139.858" y="924.057"/>
      <point x="133" y="923.999" type="curve" smooth="yes"/>
    </contour>
    <contour>
      <point x="199.048" y="922.999" type="line" smooth="yes"/>
      <point x="193.75" y="922.999"/>
      <point x="191.004" y="916.701"/>
      <point x="191.83" y="913.451" type="curve" smooth="yes"/>
      <point x="250.814" y="681.482" type="line" smooth="yes"/>
      <point x="252.594" y="674.438"/>
      <point x="257.766" y="669.761"/>
      <point x="265.846" y="669.998" type="curve" smooth="yes"/>
      <point x="342.002" y="671.998" type="line" smooth="yes"/>
      <point x="347.056" y="671.998"/>
      <point x="350.451" y="677.358"/>
      <point x="350.033" y="681.342" type="curve" smooth="yes"/>
      <point x="325.033" y="913.357" type="line" smooth="yes"/>
      <point x="324.349" y="919.516"/>
      <point x="319.851" y="924.056"/>
      <point x="313.001" y="923.999" type="curve" smooth="yes"/>
    </contour>
  </outline>
</glyph>
<glyph name="numbersign" format="2">
	<unicode hex="0023"/>
	<advance width="551"/>
	<outline>
		<contour>
			<point x="487.016" y="328" type="line" smooth="yes"/>
			<point x="492.76" y="328"/>
			<point x="496.028" y="323.573"/>
			<point x="495.984" y="318" type="curve" smooth="yes"/>
			<point x="538.422" y="275.578" type="line"/>
			<point x="525.438" y="179.578" type="line" smooth="yes"/>
			<point x="524.422" y="174.578"/>
			<point x="519.422" y="170.578"/>
			<point x="513.422" y="170.562" type="curve" smooth="yes"/>
			<point x="482.422" y="174.562"/>
			<point x="450.422" y="176.578"/>
			<point x="419.422" y="178.562" type="curve"/>
			<point x="415.438" y="108.578"/>
			<point x="417.422" y="37.5781"/>
			<point x="424.438" y="-32.4219" type="curve" smooth="yes"/>
			<point x="425.422" y="-37.4219"/>
			<point x="420.422" y="-42.4219"/>
			<point x="414.438" y="-42.4219" type="curve" smooth="yes"/>
			<point x="309.422" y="-42.4219" type="line"/>
			<point x="267" y="0" type="line"/>
			<point x="261.039" y="0"/>
			<point x="256.961" y="5.03125"/>
			<point x="257" y="10" type="curve" smooth="yes"/>
			<point x="281.062" y="182.453" type="line"/>
			<point x="260.516" y="182.156"/>
			<point x="239.969" y="181.359"/>
			<point x="219.422" y="180.578" type="curve"/>
			<point x="211.422" y="109.578"/>
			<point x="204.438" y="38.5625"/>
			<point x="198.422" y="-32.4219" type="curve" smooth="yes"/>
			<point x="197.422" y="-37.4219"/>
			<point x="192.422" y="-42.4219"/>
			<point x="186.438" y="-42.4219" type="curve" smooth="yes"/>
			<point x="81.4219" y="-42.4219" type="line"/>
			<point x="39" y="0" type="line" smooth="yes"/>
			<point x="33.6465" y="0"/>
			<point x="28.7891" y="4.49707"/>
			<point x="30.9844" y="10" type="curve" smooth="yes"/>
			<point x="45.6719" y="62.4844"/>
			<point x="59.1406" y="115.562"/>
			<point x="70.5" y="168.781" type="curve"/>
			<point x="63.5576" y="168.042"/>
			<point x="49.4844" y="164.016"/>
			<point x="45.0469" y="168.453" type="curve" smooth="yes"/>
			<point x="2.625" y="210.875" type="line" smooth="yes"/>
			<point x="1" y="212.5"/>
			<point x="0" y="215"/>
			<point x="0" y="218.016" type="curve" smooth="yes"/>
			<point x="16" y="315" type="line" smooth="yes"/>
			<point x="17" y="321"/>
			<point x="22" y="326.016"/>
			<point x="28" y="326" type="curve" smooth="yes"/>
			<point x="98" y="326" type="line"/>
			<point x="99.5938" y="335.562"/>
			<point x="101.188" y="345.75"/>
			<point x="102.281" y="355.578" type="curve"/>
			<point x="52.4219" y="355.578" type="line"/>
			<point x="10" y="398" type="line" smooth="yes"/>
			<point x="4.47852" y="398"/>
			<point x="1" y="403.694"/>
			<point x="1" y="409" type="curve" smooth="yes"/>
			<point x="14.0156" y="502" type="line" smooth="yes"/>
			<point x="15" y="508"/>
			<point x="20.0156" y="512"/>
			<point x="26" y="510" type="curve" smooth="yes"/>
			<point x="56" y="505"/>
			<point x="85.9844" y="500"/>
			<point x="117" y="497" type="curve"/>
			<point x="121" y="561"/>
			<point x="123" y="625"/>
			<point x="123" y="689" type="curve" smooth="yes"/>
			<point x="123" y="695"/>
			<point x="128" y="700"/>
			<point x="132.984" y="700" type="curve" smooth="yes"/>
			<point x="241" y="700" type="line" smooth="yes"/>
			<point x="246.573" y="700"/>
			<point x="250.075" y="695.404"/>
			<point x="249" y="690" type="curve"/>
			<point x="291.422" y="647.562" type="line"/>
			<point x="281.156" y="595.469"/>
			<point x="272.141" y="542.734"/>
			<point x="263.391" y="490.359" type="curve"/>
			<point x="283.725" y="490.716"/>
			<point x="303.334" y="491.464"/>
			<point x="323" y="493" type="curve"/>
			<point x="350" y="690" type="line" smooth="yes"/>
			<point x="350" y="696"/>
			<point x="355" y="700"/>
			<point x="361" y="699.984" type="curve" smooth="yes"/>
			<point x="469" y="700" type="line" smooth="yes"/>
			<point x="474.788" y="700"/>
			<point x="478.056" y="696.196"/>
			<point x="476" y="690" type="curve"/>
			<point x="518.422" y="647.578" type="line"/>
			<point x="501.094" y="603.547"/>
			<point x="485.875" y="559"/>
			<point x="473.094" y="513.562" type="curve"/>
			<point x="480.926" y="515.126"/>
			<point x="510.507" y="525.873"/>
			<point x="508" y="511" type="curve"/>
			<point x="550.422" y="468.578" type="line"/>
			<point x="535.422" y="364.562" type="line" smooth="yes"/>
			<point x="534.422" y="358.578"/>
			<point x="529.422" y="353.578"/>
			<point x="523.422" y="353.562" type="curve" smooth="yes"/>
			<point x="437.438" y="354.562" type="line"/>
			<point x="435.828" y="345.719"/>
			<point x="434.844" y="336.859"/>
			<point x="433.5" y="328" type="curve"/>
		</contour>
		<contour>
			<point x="303.938" y="354.562" type="line"/>
			<point x="242.422" y="354.562" type="line"/>
			<point x="241.016" y="345.375"/>
			<point x="239.594" y="336.188"/>
			<point x="238.188" y="327" type="curve"/>
			<point x="300" y="327" type="line"/>
		</contour>
		<contour>
			<point x="132.984" y="694" type="line" smooth="yes"/>
			<point x="131.041" y="694"/>
			<point x="129.003" y="691.104"/>
			<point x="129.003" y="689.018" type="curve" smooth="yes"/>
			<point x="129.003" y="624.893"/>
			<point x="127.003" y="560.752"/>
			<point x="122.987" y="496.627" type="curve" smooth="yes"/>
			<point x="122.771" y="493.377"/>
			<point x="119.774" y="490.699"/>
			<point x="116.408" y="491.033" type="curve" smooth="yes"/>
			<point x="85.1426" y="494.064"/>
			<point x="55.0176" y="499.08"/>
			<point x="25.0176" y="504.08" type="curve" smooth="yes"/>
			<point x="22.1094" y="504.578"/>
			<point x="20.3975" y="504.308"/>
			<point x="19.9551" y="501.173" type="curve" smooth="yes"/>
			<point x="7.00195" y="409.017" type="line" smooth="yes"/>
			<point x="7.00195" y="406.693"/>
			<point x="8.10742" y="404.001"/>
			<point x="9.9707" y="404.001" type="curve" smooth="yes"/>
			<point x="108.002" y="404.001" type="line" smooth="yes"/>
			<point x="111.621" y="404.001"/>
			<point x="114.5" y="400.596"/>
			<point x="113.924" y="397.017" type="curve" smooth="yes"/>
			<point x="109.955" y="373.251"/>
			<point x="107.877" y="348.813"/>
			<point x="103.924" y="325.001" type="curve" smooth="yes"/>
			<point x="103.458" y="322.279"/>
			<point x="100.952" y="320.001"/>
			<point x="98.002" y="320.001" type="curve" smooth="yes"/>
			<point x="28.002" y="320.001" type="line" smooth="yes"/>
			<point x="24.8984" y="320.001"/>
			<point x="22.4092" y="316.93"/>
			<point x="21.9238" y="314.017" type="curve" smooth="yes"/>
			<point x="6.00195" y="218.017" type="line" smooth="yes"/>
			<point x="6.00195" y="215.549"/>
			<point x="6.6084" y="214.771"/>
			<point x="8.25195" y="214.954" type="curve" smooth="yes"/>
			<point x="32.3926" y="217.97"/>
			<point x="55.4863" y="219.97"/>
			<point x="79.4863" y="221.97" type="curve" smooth="yes"/>
			<point x="83.3389" y="222.323"/>
			<point x="86.5859" y="218.688"/>
			<point x="85.8926" y="214.876" type="curve" smooth="yes"/>
			<point x="72.8613" y="145.657"/>
			<point x="55.8145" y="76.501"/>
			<point x="36.7676" y="8.37598" type="curve" smooth="yes"/>
			<point x="36.3604" y="6.89648"/>
			<point x="36.8408" y="6.00098"/>
			<point x="39.001" y="6.00098" type="curve" smooth="yes"/>
			<point x="144.001" y="6.00098" type="line" smooth="yes"/>
			<point x="146.454" y="6.00098"/>
			<point x="149.254" y="8.38965"/>
			<point x="150.017" y="10.5166" type="curve" smooth="yes"/>
			<point x="156.032" y="81.5635"/>
			<point x="163.032" y="152.626"/>
			<point x="171.032" y="223.688" type="curve" smooth="yes"/>
			<point x="171.433" y="227.014"/>
			<point x="174.383" y="228.912"/>
			<point x="177.642" y="229.033" type="curve" smooth="yes"/>
			<point x="203.36" y="230.018"/>
			<point x="229.142" y="230.986"/>
			<point x="255.001" y="230.986" type="curve" smooth="yes"/>
			<point x="287.001" y="230.986" type="line" smooth="yes"/>
			<point x="290.55" y="230.986"/>
			<point x="293.428" y="227.671"/>
			<point x="292.939" y="224.158" type="curve" smooth="yes"/>
			<point x="263.002" y="9.9707" type="line" smooth="yes"/>
			<point x="263.002" y="8.27148"/>
			<point x="264.28" y="6.00195"/>
			<point x="267.002" y="6.00195" type="curve" smooth="yes"/>
			<point x="372.002" y="6.00195" type="line" smooth="yes"/>
			<point x="374.387" y="6.00195"/>
			<point x="376.19" y="7.78516"/>
			<point x="376.033" y="9.39258" type="curve" smooth="yes"/>
			<point x="369.002" y="79.6895"/>
			<point x="367.002" y="151.002"/>
			<point x="371.018" y="221.346" type="curve" smooth="yes"/>
			<point x="371.261" y="225.729"/>
			<point x="375.396" y="227.11"/>
			<point x="379.236" y="226.861" type="curve" smooth="yes"/>
			<point x="409.424" y="224.924"/>
			<point x="440.58" y="222.893"/>
			<point x="470.986" y="219.002" type="curve" smooth="yes"/>
			<point x="473.801" y="219.002"/>
			<point x="476.376" y="220.643"/>
			<point x="477.064" y="222.814" type="curve" smooth="yes"/>
			<point x="490.002" y="318.033" type="line" smooth="yes"/>
			<point x="490.002" y="321.371"/>
			<point x="489.205" y="322.002"/>
			<point x="487.018" y="322.002" type="curve" smooth="yes"/>
			<point x="385.018" y="322.002" type="line" smooth="yes"/>
			<point x="381.404" y="322.002"/>
			<point x="378.489" y="325.406"/>
			<point x="379.096" y="328.986" type="curve" smooth="yes"/>
			<point x="382.901" y="352.031"/>
			<point x="384.972" y="375.295"/>
			<point x="389.111" y="398.079" type="curve" smooth="yes"/>
			<point x="389.585" y="400.775"/>
			<point x="392.158" y="403.03"/>
			<point x="395.08" y="403.001" type="curve" smooth="yes"/>
			<point x="481.064" y="401.985" type="line" smooth="yes"/>
			<point x="483.996" y="402.02"/>
			<point x="486.663" y="405.024"/>
			<point x="487.064" y="407.86" type="curve" smooth="yes"/>
			<point x="502.08" y="512.001" type="line" smooth="yes"/>
			<point x="502.275" y="513.213"/>
			<point x="502.771" y="513.475"/>
			<point x="500.314" y="513.141" type="curve" smooth="yes"/>
			<point x="473.127" y="507.094"/>
			<point x="445.33" y="502.141"/>
			<point x="418.096" y="497.094" type="curve" smooth="yes"/>
			<point x="413.955" y="496.335"/>
			<point x="410.198" y="500.237"/>
			<point x="411.158" y="504.375" type="curve" smooth="yes"/>
			<point x="426.221" y="568.594"/>
			<point x="446.268" y="630.766"/>
			<point x="470.299" y="691.906" type="curve" smooth="yes"/>
			<point x="471.063" y="694.201"/>
			<point x="470.882" y="694"/>
			<point x="468.985" y="694" type="curve" smooth="yes"/>
			<point x="361.001" y="694" type="line" smooth="yes"/>
			<point x="357.356" y="694"/>
			<point x="356.348" y="692.168"/>
			<point x="355.938" y="689.188" type="curve" smooth="yes"/>
			<point x="328.953" y="492.172" type="line" smooth="yes"/>
			<point x="327.704" y="483.089"/>
			<point x="295.319" y="485.765"/>
			<point x="285.469" y="485.016" type="curve" smooth="yes"/>
			<point x="285.406" y="485.016"/>
			<point x="285.328" y="485"/>
			<point x="285.266" y="485" type="curve" smooth="yes"/>
			<point x="261.094" y="483.984"/>
			<point x="237.906" y="484"/>
			<point x="213.75" y="485.016" type="curve" smooth="yes"/>
			<point x="210.273" y="485.165"/>
			<point x="207.51" y="488.471"/>
			<point x="208.078" y="492" type="curve" smooth="yes"/>
			<point x="219.094" y="558.125"/>
			<point x="230.078" y="625.016"/>
			<point x="243.109" y="691.156" type="curve" smooth="yes"/>
			<point x="243.498" y="693.099"/>
			<point x="242.842" y="694"/>
			<point x="240.984" y="694" type="curve" smooth="yes"/>
		</contour>
		<contour>
			<point x="194.081" y="397.924" type="line" smooth="yes"/>
			<point x="194.51" y="400.677"/>
			<point x="197.047" y="403.002"/>
			<point x="200.004" y="403.002" type="curve" smooth="yes"/>
			<point x="310.004" y="403.002" type="line" smooth="yes"/>
			<point x="313.549" y="403.002"/>
			<point x="316.459" y="399.675"/>
			<point x="315.941" y="396.143" type="curve" smooth="yes"/>
			<point x="305.941" y="326.158" type="line" smooth="yes"/>
			<point x="305.556" y="323.356"/>
			<point x="302.978" y="321.002"/>
			<point x="300.004" y="321.002" type="curve" smooth="yes"/>
			<point x="190.004" y="321.002" type="line" smooth="yes"/>
			<point x="178.938" y="321.002"/>
			<point x="187.257" y="349.946"/>
			<point x="188.034" y="358.549" type="curve" smooth="yes"/>
			<point x="188.034" y="358.674"/>
			<point x="188.05" y="358.799"/>
			<point x="188.081" y="358.924" type="curve" smooth="yes"/>
		</contour>
	</outline>
</glyph>
<glyph name="dollar" format="2">
  <advance width="579"/>
  <unicode hex="0024"/>
  <outline>
    <contour>
      <point x="372.703" y="115.016" type="curve"/>
      <point x="387.003" y="132.656"/>
      <point x="398" y="158.886"/>
      <point x="398" y="187.984" type="curve" smooth="yes"/>
      <point x="396.779" y="209.973"/>
      <point x="388.185" y="233.467"/>
      <point x="377.047" y="250.969" type="curve" smooth="yes"/>
      <point x="372.344" y="254.188"/>
      <point x="367.547" y="257.297"/>
      <point x="362.719" y="260.297" type="curve"/>
      <point x="364.969" y="211.812"/>
      <point x="368.172" y="163.328"/>
    </contour>
    <contour>
      <point x="179.391" y="433.609" type="curve"/>
      <point x="140" y="473" type="line"/>
      <point x="150.019" y="457.505"/>
      <point x="163.982" y="443.982"/>
    </contour>
    <contour>
      <point x="212.312" y="522.078" type="curve"/>
      <point x="200.323" y="506.639"/>
      <point x="191.719" y="483.553"/>
      <point x="191.719" y="460.281" type="curve" smooth="yes"/>
      <point x="191.719" y="446.734"/>
      <point x="194.625" y="433.609"/>
      <point x="199.922" y="421.438" type="curve"/>
      <point x="206.625" y="417.969"/>
      <point x="213.656" y="414.828"/>
      <point x="221" y="412" type="curve"/>
      <point x="219.031" y="448.891"/>
      <point x="216.094" y="485.547"/>
    </contour>
    <contour>
      <point x="224.047" y="305.734" type="curve"/>
      <point x="181.44" y="317.131"/>
      <point x="144.793" y="334.301"/>
      <point x="116.923" y="362.171" type="curve" smooth="yes"/>
      <point x="46.2197" y="432.874" type="line" smooth="yes"/>
      <point x="24.0312" y="455.062"/>
      <point x="5.29492" y="489.754"/>
      <point x="4" y="525.999" type="curve" smooth="yes"/>
      <point x="4" y="581.859"/>
      <point x="34.6191" y="624.666"/>
      <point x="69" y="649.999" type="curve" smooth="yes"/>
      <point x="103" y="675.999"/>
      <point x="145" y="689.015"/>
      <point x="188" y="695.999" type="curve"/>
      <point x="183" y="723.999"/>
      <point x="177" y="750.983"/>
      <point x="171" y="778.999" type="curve" smooth="yes"/>
      <point x="170" y="784.999"/>
      <point x="174" y="789.999"/>
      <point x="179" y="790.999" type="curve" smooth="yes"/>
      <point x="307" y="808.999" type="line" smooth="yes"/>
      <point x="312.507" y="810.101"/>
      <point x="316" y="805.398"/>
      <point x="316" y="799.999" type="curve" smooth="yes"/>
      <point x="386.703" y="729.28" type="line"/>
      <point x="383.938" y="710.452"/>
      <point x="381.484" y="691.624"/>
      <point x="379.156" y="672.812" type="curve"/>
      <point x="391.641" y="665.233"/>
      <point x="403.203" y="656.108"/>
      <point x="413.547" y="645.765" type="curve" smooth="yes"/>
      <point x="484.266" y="575.046" type="line" smooth="yes"/>
      <point x="504.422" y="554.89"/>
      <point x="519.969" y="530.108"/>
      <point x="528.703" y="503.296" type="curve" smooth="yes"/>
      <point x="542.719" y="460.296"/>
      <point x="539.703" y="413.296"/>
      <point x="521.719" y="373.28" type="curve" smooth="yes"/>
      <point x="517.719" y="366.28"/>
      <point x="508.703" y="362.296"/>
      <point x="500.703" y="364.28" type="curve" smooth="yes"/>
      <point x="393.719" y="389.296" type="line"/>
      <point x="361.594" y="421.421" type="line"/>
      <point x="361.266" y="405.687"/>
      <point x="361.109" y="389.968"/>
      <point x="361.094" y="374.28" type="curve"/>
      <point x="392.778" y="364.709"/>
      <point x="424.723" y="350.293"/>
      <point x="447.375" y="327.641" type="curve" smooth="yes"/>
      <point x="518.078" y="256.922" type="line" smooth="yes"/>
      <point x="546.469" y="228.547"/>
      <point x="564.281" y="190.188"/>
      <point x="568.719" y="150.281" type="curve" smooth="yes"/>
      <point x="573.719" y="95.2969"/>
      <point x="553.703" y="39.2812"/>
      <point x="515.719" y="-0.71875" type="curve" smooth="yes"/>
      <point x="483.719" y="-33.7031"/>
      <point x="441.703" y="-54.7031"/>
      <point x="396.703" y="-65.7188" type="curve"/>
      <point x="400.719" y="-88.7031"/>
      <point x="404.703" y="-112.719"/>
      <point x="409.719" y="-135.703" type="curve" smooth="yes"/>
      <point x="410.719" y="-144.719"/>
      <point x="405.703" y="-153.703"/>
      <point x="396.703" y="-154.703" type="curve" smooth="yes"/>
      <point x="278.719" y="-172.719" type="line" smooth="yes"/>
      <point x="274.312" y="-173.203"/>
      <point x="270.641" y="-172.031"/>
      <point x="268.25" y="-169.641" type="curve" smooth="yes"/>
      <point x="197.547" y="-98.9375" type="line" smooth="yes"/>
      <point x="195.047" y="-96.4375"/>
      <point x="193.969" y="-92.6094"/>
      <point x="195" y="-88" type="curve" smooth="yes"/>
      <point x="196.656" y="-76.0469"/>
      <point x="198.297" y="-63.9375"/>
      <point x="199.938" y="-51.7812" type="curve"/>
      <point x="180.891" y="-44.7656"/>
      <point x="162.422" y="-36.0781"/>
      <point x="144.703" y="-25.7031" type="curve"/>
      <point x="74" y="45" type="line"/>
      <point x="15.0693" y="92.0381"/>
      <point x="-21.0977" y="185.099"/>
      <point x="20" y="275" type="curve" smooth="yes"/>
      <point x="25" y="285"/>
      <point x="38" y="290"/>
      <point x="48" y="287" type="curve" smooth="yes"/>
      <point x="146.984" y="255" type="line" smooth="yes"/>
      <point x="149.141" y="254.469"/>
      <point x="150.781" y="253.562"/>
      <point x="151.922" y="252.438" type="curve" smooth="yes"/>
      <point x="221.797" y="182.547" type="line"/>
      <point x="223.641" y="223.703"/>
      <point x="224.391" y="264.797"/>
    </contour>
    <contour>
      <point x="200.688" y="73.4043" type="curve" smooth="yes"/>
      <point x="205.032" y="71.6855"/>
      <point x="209.47" y="70.2012"/>
      <point x="214.001" y="68.998" type="curve"/>
      <point x="217.11" y="102.436"/>
      <point x="219.019" y="135.873"/>
      <point x="220.704" y="169.279" type="curve"/>
      <point x="202.301" y="145.565"/>
      <point x="187.984" y="111.517"/>
    </contour>
    <contour>
      <point x="364.423" y="598.561" type="line"/>
      <point x="357.544" y="609.303"/>
      <point x="348.202" y="617.579"/>
      <point x="338.001" y="624.998" type="curve"/>
    </contour>
    <contour>
      <point x="376.563" y="568.92" type="curve" smooth="yes"/>
      <point x="373.954" y="569.764"/>
      <point x="371.329" y="570.545"/>
      <point x="368.72" y="571.295" type="curve"/>
      <point x="367.188" y="550.248"/>
      <point x="365.86" y="529.123"/>
      <point x="364.767" y="507.967" type="curve"/>
      <point x="375.428" y="525.834"/>
      <point x="380.912" y="546.486"/>
    </contour>
    <contour>
      <point x="301.579" y="688.107" type="curve" smooth="yes"/>
      <point x="295.203" y="689.019"/>
      <point x="292.601" y="695.139"/>
      <point x="293.33" y="701.354" type="curve" smooth="yes"/>
      <point x="297.189" y="734.167"/>
      <point x="301.174" y="766.979"/>
      <point x="306.002" y="799.995" type="curve" smooth="yes"/>
      <point x="306.654" y="800.118"/>
      <point x="307.616" y="799.398"/>
      <point x="308.393" y="799.089" type="curve"/>
      <point x="180.939" y="781.136" type="line" smooth="yes"/>
      <point x="180.861" y="781.058"/>
      <point x="180.799" y="780.979"/>
      <point x="180.861" y="780.651" type="curve" smooth="yes"/>
      <point x="186.814" y="752.901"/>
      <point x="192.814" y="725.886"/>
      <point x="197.846" y="697.761" type="curve" smooth="yes"/>
      <point x="198.848" y="692.225"/>
      <point x="194.78" y="686.968"/>
      <point x="189.611" y="686.12" type="curve" smooth="yes"/>
      <point x="138.607" y="677.834"/>
      <point x="89.9443" y="659.422"/>
      <point x="57.1113" y="626.589" type="curve" smooth="yes"/>
      <point x="33.8926" y="603.37"/>
      <point x="14.0996" y="568.52"/>
      <point x="13.9863" y="526.354" type="curve" smooth="yes"/>
      <point x="16.0752" y="467.626"/>
      <point x="59.2012" y="427.622"/>
      <point x="101.58" y="405.886" type="curve" smooth="yes"/>
      <point x="138.893" y="386.761"/>
      <point x="185.611" y="380.073"/>
      <point x="225.752" y="368.604" type="curve" smooth="yes"/>
      <point x="229.663" y="367.481"/>
      <point x="232.847" y="363.684"/>
      <point x="232.986" y="359.308" type="curve" smooth="yes"/>
      <point x="236.018" y="262.886"/>
      <point x="233.002" y="165.464"/>
      <point x="223.955" y="68.0576" type="curve" smooth="yes"/>
      <point x="221.86" y="45.0156"/>
      <point x="174.46" y="75.1211"/>
      <point x="166.314" y="80.7764" type="curve" smooth="yes"/>
      <point x="130.853" y="105.868"/>
      <point x="98.6572" y="158.659"/>
      <point x="122.596" y="214.417" type="curve" smooth="yes"/>
      <point x="127.179" y="227"/>
      <point x="135.026" y="239.159"/>
      <point x="142.925" y="247.058" type="curve" smooth="yes"/>
      <point x="143.612" y="247.745"/>
      <point x="143.894" y="248.276"/>
      <point x="143.925" y="248.37" type="curve"/>
      <point x="144.847" y="245.354" type="line"/>
      <point x="144.597" y="245.433"/>
      <point x="144.222" y="245.386"/>
      <point x="143.909" y="245.479" type="curve" smooth="yes"/>
      <point x="45.0967" y="277.417" type="line" smooth="yes"/>
      <point x="39.959" y="278.967"/>
      <point x="31.8496" y="275.829"/>
      <point x="29.0967" y="270.84" type="curve" smooth="yes"/>
      <point x="-9.50879" y="186.347"/>
      <point x="23.9766" y="98.3467"/>
      <point x="79.0488" y="53.6367" type="curve"/>
      <point x="118.877" y="30.3242"/>
      <point x="162.564" y="15.7461"/>
      <point x="208.283" y="9.91797" type="curve" smooth="yes"/>
      <point x="213.491" y="9.22852"/>
      <point x="217.661" y="4.16992"/>
      <point x="216.908" y="-1.36328" type="curve" smooth="yes"/>
      <point x="204.908" y="-89.3633" type="line" smooth="yes"/>
      <point x="204.644" y="-91.3477"/>
      <point x="203.592" y="-92.5508"/>
      <point x="206.486" y="-92.1289" type="curve" smooth="yes"/>
      <point x="324.486" y="-74.1133" type="line" smooth="yes"/>
      <point x="327.545" y="-73.6494"/>
      <point x="329.212" y="-71.04"/>
      <point x="329.236" y="-67.1445" type="curve" smooth="yes"/>
      <point x="324.158" y="-43.7852"/>
      <point x="320.205" y="-20.0039"/>
      <point x="316.158" y="3.26172" type="curve" smooth="yes"/>
      <point x="315.229" y="8.51367"/>
      <point x="318.881" y="13.5381"/>
      <point x="323.61" y="14.6992" type="curve" smooth="yes"/>
      <point x="366.188" y="25.1211"/>
      <point x="405.61" y="44.6992"/>
      <point x="435.735" y="74.8398" type="curve" smooth="yes"/>
      <point x="509.298" y="148.373"/>
      <point x="501.942" y="270.383"/>
      <point x="429.86" y="330.09" type="curve" smooth="yes"/>
      <point x="393.598" y="358.306"/>
      <point x="345.999" y="369.299"/>
      <point x="298.252" y="379.949" type="curve" smooth="yes"/>
      <point x="290.819" y="381.571"/>
      <point x="281.228" y="382.793"/>
      <point x="281.002" y="391.762" type="curve" smooth="yes"/>
      <point x="279.002" y="475.152"/>
      <point x="282.018" y="559.48"/>
      <point x="288.033" y="642.73" type="curve" smooth="yes"/>
      <point x="288.479" y="648.718"/>
      <point x="294.664" y="653.373"/>
      <point x="300.768" y="651.621" type="curve" smooth="yes"/>
      <point x="339.637" y="640.478"/>
      <point x="385.555" y="611.675"/>
      <point x="387.986" y="558.449" type="curve" smooth="yes"/>
      <point x="390.029" y="513.438"/>
      <point x="359.475" y="475.903"/>
      <point x="327.126" y="459.403" type="curve" smooth="yes"/>
      <point x="326.923" y="459.278"/>
      <point x="326.767" y="459.185"/>
      <point x="326.673" y="459.122" type="curve"/>
      <point x="326.282" y="469.106" type="line"/>
      <point x="326.173" y="469.481" type="line"/>
      <point x="432.423" y="444.685" type="line" smooth="yes"/>
      <point x="435.232" y="443.999"/>
      <point x="440.037" y="445.419"/>
      <point x="441.876" y="448.107" type="curve" smooth="yes"/>
      <point x="458.876" y="485.857"/>
      <point x="461.704" y="530.326"/>
      <point x="448.485" y="570.889" type="curve" smooth="yes"/>
      <point x="440.267" y="596.123"/>
      <point x="425.548" y="619.607"/>
      <point x="406.485" y="638.686" type="curve" smooth="yes"/>
      <point x="373.36" y="671.811"/>
      <point x="337.345" y="682.998"/>
    </contour>
    <contour>
      <point x="217.394" y="402.666" type="curve" smooth="yes"/>
      <point x="181.8" y="416.327"/>
      <point x="151.35" y="437.305"/>
      <point x="131.816" y="467.244" type="curve" smooth="yes"/>
      <point x="118.785" y="485.729"/>
      <point x="111.004" y="507.729"/>
      <point x="111.004" y="530.994" type="curve" smooth="yes"/>
      <point x="111.004" y="559.26"/>
      <point x="119.098" y="585.869"/>
      <point x="145.473" y="612.244" type="curve" smooth="yes"/>
      <point x="158.944" y="625.716"/>
      <point x="175.43" y="638.003"/>
      <point x="194.832" y="644.463" type="curve" smooth="yes"/>
      <point x="200.8" y="646.47"/>
      <point x="207.066" y="642.17"/>
      <point x="207.895" y="636.462" type="curve" smooth="yes"/>
      <point x="218.926" y="562.212"/>
      <point x="226.957" y="487.884"/>
      <point x="230.973" y="412.524" type="curve" smooth="yes"/>
      <point x="231.365" y="405.646"/>
      <point x="224.15" y="400.069"/>
    </contour>
    <contour>
      <point x="408.004" y="187.979" type="curve" smooth="yes"/>
      <point x="408.004" y="123.351"/>
      <point x="366.487" y="81.7412"/>
      <point x="318.363" y="64.5889" type="curve" smooth="yes"/>
      <point x="312.311" y="62.4102"/>
      <point x="305.931" y="66.8008"/>
      <point x="305.098" y="72.5889" type="curve" smooth="yes"/>
      <point x="293.051" y="157.979"/>
      <point x="286.035" y="244.292"/>
      <point x="282.02" y="330.526" type="curve" smooth="yes"/>
      <point x="281.681" y="337.891"/>
      <point x="290.216" y="343.852"/>
      <point x="297.27" y="339.511" type="curve" smooth="yes"/>
      <point x="318.69" y="326.25"/>
      <point x="339.469" y="310.617"/>
      <point x="357.082" y="292.057" type="curve" smooth="yes"/>
      <point x="388.92" y="260.219"/>
      <point x="408.004" y="222.103"/>
    </contour>
  </outline>
</glyph>
<glyph name="percent" format="2">
	<unicode hex="0025"/>
	<advance width="449"/>
	<outline>
		<contour>
			<point x="412.047" y="144.969" type="line" smooth="yes"/>
			<point x="440.542" y="116.44"/>
			<point x="448.743" y="66.9775"/>
			<point x="420.439" y="30.5781" type="curve" smooth="yes"/>
			<point x="395.496" y="-3.91699"/>
			<point x="339.559" y="-17.6377"/>
			<point x="299.424" y="13.5781" type="curve"/>
			<point x="257.002" y="56" type="line" smooth="yes"/>
			<point x="244.506" y="65.7773"/>
			<point x="233.886" y="79.4717"/>
			<point x="227.924" y="94.501" type="curve"/>
			<point x="212.518" y="38.2041"/>
			<point x="199.643" y="-18.8584"/>
			<point x="189.424" y="-76.4209" type="curve" smooth="yes"/>
			<point x="188.439" y="-83.4209"/>
			<point x="182.424" y="-87.4209"/>
			<point x="175.424" y="-85.4209" type="curve" smooth="yes"/>
			<point x="75.4238" y="-54.4209" type="line"/>
			<point x="32.9863" y="-11.999" type="line" smooth="yes"/>
			<point x="27.2383" y="-10.3633"/>
			<point x="22.4902" y="-3.7793"/>
			<point x="27.002" y="3.00098" type="curve" smooth="yes"/>
			<point x="92.8945" y="122.888"/>
			<point x="146.052" y="245.266"/>
			<point x="190.189" y="381.032" type="curve"/>
			<point x="161.354" y="359.097"/>
			<point x="117.521" y="355.614"/>
			<point x="85.4229" y="380.579" type="curve"/>
			<point x="43.001" y="423.001" type="line"/>
			<point x="9.06641" y="449.551"/>
			<point x="-5.59082" y="503.383"/>
			<point x="26.001" y="544.001" type="curve" smooth="yes"/>
			<point x="53.3252" y="583.984"/>
			<point x="118.984" y="590.821"/>
			<point x="155.563" y="554.453" type="curve" smooth="yes"/>
			<point x="197.985" y="512.016" type="line" smooth="yes"/>
			<point x="207.36" y="502.656"/>
			<point x="214.782" y="491.219"/>
			<point x="219.282" y="478.672" type="curve"/>
			<point x="232.563" y="527.641"/>
			<point x="244.126" y="577.141"/>
			<point x="254.001" y="627" type="curve" smooth="yes"/>
			<point x="255.001" y="634.016"/>
			<point x="262.001" y="639"/>
			<point x="269.001" y="638" type="curve" smooth="yes"/>
			<point x="378.001" y="620" type="line" smooth="yes"/>
			<point x="380.423" y="619.656"/>
			<point x="382.376" y="618.703"/>
			<point x="383.72" y="617.359" type="curve" smooth="yes"/>
			<point x="426.142" y="574.938" type="line" smooth="yes"/>
			<point x="428.673" y="572.406"/>
			<point x="429.048" y="568.484"/>
			<point x="426.438" y="564.578" type="curve" smooth="yes"/>
			<point x="359.957" y="450.21"/>
			<point x="303.471" y="330.198"/>
			<point x="258.812" y="196.359" type="curve"/>
			<point x="292.688" y="219.862"/>
			<point x="342.544" y="214.613"/>
			<point x="369.609" y="187.391" type="curve" smooth="yes"/>
		</contour>
		<contour>
			<point x="268.143" y="632.062" type="line" smooth="yes"/>
			<point x="264.068" y="632.645"/>
			<point x="260.601" y="629.491"/>
			<point x="259.892" y="625.828" type="curve" smooth="yes"/>
			<point x="214.236" y="395.573"/>
			<point x="133.217" y="183.795"/>
			<point x="32.2666" y="0.109375" type="curve" smooth="yes"/>
			<point x="30.2998" y="-3.43066"/>
			<point x="31.6279" y="-5.2666"/>
			<point x="34.6572" y="-6.23438" type="curve" smooth="yes"/>
			<point x="134.657" y="-37.2344" type="line" smooth="yes"/>
			<point x="138.794" y="-38.4199"/>
			<point x="140.525" y="-36.2207"/>
			<point x="141.095" y="-32.9375" type="curve" smooth="yes"/>
			<point x="166.173" y="108.5"/>
			<point x="207.313" y="246.922"/>
			<point x="262.47" y="378.328" type="curve" smooth="yes"/>
			<point x="296.579" y="458.562"/>
			<point x="335.704" y="535.812"/>
			<point x="378.813" y="610.016" type="curve" smooth="yes"/>
			<point x="380.557" y="613.003"/>
			<point x="380.025" y="613.599"/>
			<point x="377.143" y="614.062" type="curve" smooth="yes"/>
		</contour>
		<contour>
			<point x="151.845" y="434.953" type="curve" smooth="yes"/>
			<point x="187.46" y="470.568"/>
			<point x="179.551" y="528.919"/>
			<point x="143.501" y="557.141" type="curve" smooth="yes"/>
			<point x="114.454" y="578.094"/>
			<point x="68.2197" y="579.578"/>
			<point x="39.2197" y="550.578" type="curve" smooth="yes"/>
			<point x="22.6475" y="534.006"/>
			<point x="11.4521" y="507.663"/>
			<point x="14.9541" y="480.781" type="curve" smooth="yes"/>
			<point x="20.3555" y="440.977"/>
			<point x="60.2236" y="405.793"/>
			<point x="105.97" y="411.906" type="curve" smooth="yes"/>
			<point x="123.642" y="414.984"/>
			<point x="139.97" y="423.094"/>
		</contour>
		<contour>
			<point x="365.844" y="67.9688" type="curve" smooth="yes"/>
			<point x="401.39" y="103.312"/>
			<point x="393.721" y="161.741"/>
			<point x="357.5" y="190.142" type="curve" smooth="yes"/>
			<point x="319.432" y="217.6"/>
			<point x="267.528" y="205.735"/>
			<point x="244.859" y="174.484" type="curve" smooth="yes"/>
			<point x="200.942" y="114.863"/>
			<point x="252.268" y="35.9102"/>
			<point x="319.969" y="44.9062" type="curve" smooth="yes"/>
			<point x="337.625" y="47.9844"/>
			<point x="353.969" y="56.0938"/>
		</contour>
	</outline>
</glyph>
<glyph name="ampersand" format="2">
	<unicode hex="0026"/>
	<advance width="567"/>
	<outline>
		<contour>
			<point x="473.438" y="3.57812" type="curve" smooth="yes"/>
			<point x="428.422" y="-34.4219"/>
			<point x="370.422" y="-54.4395"/>
			<point x="311.422" y="-55.4395" type="curve" smooth="yes"/>
			<point x="242.844" y="-55.4395"/>
			<point x="174.25" y="-27.5957"/>
			<point x="126.062" y="20.6074" type="curve" smooth="yes"/>
			<point x="83.6406" y="63.0293" type="line" smooth="yes"/>
			<point x="31.1748" y="115.372"/>
			<point x="-6.78906" y="208.829"/>
			<point x="27" y="304.998" type="curve" smooth="yes"/>
			<point x="48.7188" y="369.17"/>
			<point x="99.7969" y="422.654"/>
			<point x="162.641" y="448.639" type="curve"/>
			<point x="161.891" y="449.279"/>
			<point x="161.156" y="449.936"/>
			<point x="160.422" y="450.576" type="curve" smooth="yes"/>
			<point x="118" y="492.998" type="line" smooth="yes"/>
			<point x="81.5254" y="527.369"/>
			<point x="54.0127" y="576.001"/>
			<point x="48" y="625.999" type="curve" smooth="yes"/>
			<point x="40.1406" y="728.169"/>
			<point x="109.962" y="805.54"/>
			<point x="208" y="797.999" type="curve" smooth="yes"/>
			<point x="254.379" y="795.558"/>
			<point x="301.96" y="770.194"/>
			<point x="332.437" y="739.718" type="curve" smooth="yes"/>
			<point x="374.858" y="697.296" type="line" smooth="yes"/>
			<point x="389.093" y="683.062"/>
			<point x="401.515" y="666.562"/>
			<point x="411.421" y="649.562" type="curve" smooth="yes"/>
			<point x="414.421" y="642.577"/>
			<point x="412.437" y="633.577"/>
			<point x="407.421" y="629.562" type="curve" smooth="yes"/>
			<point x="340.421" y="573.577" type="line"/>
			<point x="297.999" y="615.999" type="line"/>
			<point x="292.741" y="611.799"/>
			<point x="290.027" y="614.395"/>
			<point x="290.999" y="620.999" type="curve" smooth="yes"/>
			<point x="293.993" y="638.965"/>
			<point x="289.787" y="656.681"/>
			<point x="283.843" y="669.452" type="curve"/>
			<point x="240.776" y="688.904"/>
			<point x="197.627" y="665.695"/>
			<point x="181.421" y="635.562" type="curve" smooth="yes"/>
			<point x="160.03" y="598.892"/>
			<point x="171.886" y="552.3"/>
			<point x="193.405" y="520.249" type="curve"/>
			<point x="214.405" y="505.968"/>
			<point x="238.687" y="496.53"/>
			<point x="263.999" y="492.999" type="curve" smooth="yes"/>
			<point x="270.496" y="492.061"/>
			<point x="276.119" y="486.403"/>
			<point x="274" y="478.999" type="curve"/>
			<point x="316.438" y="436.577" type="line"/>
			<point x="306.219" y="376.968" type="line"/>
			<point x="345.185" y="414.345"/>
			<point x="396.808" y="443.689"/>
			<point x="419" y="496" type="curve" smooth="yes"/>
			<point x="430" y="524"/>
			<point x="431" y="556"/>
			<point x="421" y="585" type="curve" smooth="yes"/>
			<point x="418" y="591"/>
			<point x="420" y="593"/>
			<point x="426" y="589.016" type="curve" smooth="yes"/>
			<point x="511" y="527" type="line" smooth="yes"/>
			<point x="511.891" y="526.406"/>
			<point x="512.734" y="525.703"/>
			<point x="513.516" y="524.906" type="curve" smooth="yes"/>
			<point x="555.938" y="482.484" type="line" smooth="yes"/>
			<point x="560.484" y="477.953"/>
			<point x="563.141" y="470.531"/>
			<point x="561.422" y="464.562" type="curve" smooth="yes"/>
			<point x="554.422" y="430.578"/>
			<point x="538.422" y="399.562"/>
			<point x="515.422" y="374.578" type="curve" smooth="yes"/>
			<point x="509.422" y="367.562"/>
			<point x="503.422" y="361.562"/>
			<point x="496.422" y="356.562" type="curve"/>
			<point x="499.422" y="353.562" type="line"/>
			<point x="546.422" y="298.562"/>
			<point x="569.422" y="224.578"/>
			<point x="559.438" y="153.578" type="curve" smooth="yes"/>
			<point x="550.422" y="95.5781"/>
			<point x="518.438" y="41.5781"/>
		</contour>
		<contour>
			<point x="391.75" y="346.248" type="curve"/>
			<point x="412.359" y="325.639" type="line"/>
			<point x="406.185" y="333.141"/>
			<point x="399.604" y="340.387"/>
		</contour>
		<contour>
			<point x="426.375" y="305.639" type="curve"/>
			<point x="397.268" y="277.355"/>
			<point x="365.463" y="237.084"/>
			<point x="388.42" y="182.561" type="curve"/>
			<point x="345.998" y="224.998" type="line"/>
			<point x="352.96" y="210.047"/>
			<point x="363.855" y="197.075"/>
			<point x="376.998" y="187.998" type="curve" smooth="yes"/>
			<point x="380.51" y="185.672"/>
			<point x="384.16" y="181.704"/>
			<point x="374.999" y="182.998" type="curve"/>
			<point x="412.812" y="145.186" type="line"/>
			<point x="431.36" y="166.44"/>
			<point x="448.696" y="200.36"/>
			<point x="446.999" y="235.998" type="curve" smooth="yes"/>
			<point x="446.98" y="261.258"/>
			<point x="437.53" y="286.613"/>
		</contour>
		<contour>
			<point x="409.373" y="141.373" type="curve"/>
			<point x="317.421" y="150.562" type="line"/>
			<point x="274.999" y="192.999" type="line"/>
			<point x="267.002" y="192.999"/>
			<point x="259.002" y="199.012"/>
			<point x="256.999" y="205.999" type="curve" smooth="yes"/>
			<point x="241.014" y="257.38"/>
			<point x="254.504" y="314.226"/>
			<point x="284.343" y="352.905" type="curve"/>
			<point x="212.108" y="342.101"/>
			<point x="145.8" y="290.088"/>
			<point x="143.42" y="211.561" type="curve" smooth="yes"/>
			<point x="141.295" y="179.686"/>
			<point x="151.217" y="148.295"/>
			<point x="169.279" y="122.029" type="curve"/>
			<point x="200.045" y="100.654"/>
			<point x="238.029" y="89.8418"/>
			<point x="275.998" y="88.998" type="curve" smooth="yes"/>
			<point x="326.11" y="88.998"/>
			<point x="378.299" y="108.087"/>
		</contour>
		<contour>
			<point x="187.546" y="524.437" type="curve"/>
			<point x="155" y="556.982" type="line"/>
			<point x="164.214" y="544.604"/>
			<point x="175.217" y="533.652"/>
		</contour>
		<contour>
			<point x="264" y="696.998" type="curve"/>
			<point x="266.531" y="694.576" type="line"/>
			<point x="265.703" y="695.404"/>
			<point x="264.875" y="696.201"/>
		</contour>
		<contour>
			<point x="378.438" y="188.748" type="curve"/>
			<point x="375.938" y="187.292"/>
			<point x="376.091" y="184.947"/>
			<point x="375.614" y="181.513" type="curve"/>
			<point x="371.123" y="186.004"/>
			<point x="365.131" y="189.387"/>
			<point x="360.488" y="194.029" type="curve" smooth="yes"/>
			<point x="341.336" y="213.182"/>
			<point x="324.774" y="250.045"/>
			<point x="335.271" y="286.779" type="curve" smooth="yes"/>
			<point x="342.833" y="311.357"/>
			<point x="358.661" y="331.311"/>
			<point x="376.349" y="348.998" type="curve" smooth="yes"/>
			<point x="389.361" y="362.011"/>
			<point x="395.518" y="352.078"/>
			<point x="404.599" y="343.075" type="curve" smooth="yes"/>
			<point x="428.831" y="318.843"/>
			<point x="452.844" y="281.588"/>
			<point x="453.004" y="236.278" type="curve" smooth="yes"/>
			<point x="455.355" y="186.648"/>
			<point x="426.857" y="145.86"/>
			<point x="397.785" y="122.341" type="curve" smooth="yes"/>
			<point x="363.504" y="95.3252"/>
			<point x="319.113" y="83.0127"/>
			<point x="276.004" y="82.9971" type="curve" smooth="yes"/>
			<point x="181.829" y="85.0986"/>
			<point x="88.5869" y="155.285"/>
			<point x="95.0039" y="254.168" type="curve" smooth="yes"/>
			<point x="97.4912" y="336.309"/>
			<point x="168.283" y="393.178"/>
			<point x="246.332" y="401.965" type="curve" smooth="yes"/>
			<point x="250.521" y="402.418"/>
			<point x="255.301" y="405.311"/>
			<point x="256.065" y="409.855" type="curve" smooth="yes"/>
			<point x="268.097" y="480.012" type="line" smooth="yes"/>
			<point x="268.784" y="484.048"/>
			<point x="267.067" y="486.482"/>
			<point x="263.144" y="487.059" type="curve" smooth="yes"/>
			<point x="218.01" y="493.361"/>
			<point x="175.668" y="518.974"/>
			<point x="150.19" y="553.419" type="curve" smooth="yes"/>
			<point x="118.6" y="596.156"/>
			<point x="106.76" y="658.878"/>
			<point x="148.597" y="700.715" type="curve" smooth="yes"/>
			<point x="164.701" y="716.772"/>
			<point x="191.111" y="728.194"/>
			<point x="218.706" y="724.965" type="curve" smooth="yes"/>
			<point x="237.81" y="722.235"/>
			<point x="255.852" y="713.741"/>
			<point x="270.784" y="698.809" type="curve" smooth="yes"/>
			<point x="293.519" y="676.074"/>
			<point x="301.097" y="645.418"/>
			<point x="296.94" y="620.137" type="curve" smooth="yes"/>
			<point x="296.753" y="618.824"/>
			<point x="296.831" y="617.996"/>
			<point x="296.847" y="617.871" type="curve"/>
			<point x="296.344" y="619.306"/>
			<point x="294.397" y="619.297"/>
			<point x="293.05" y="619.887" type="curve"/>
			<point x="315.784" y="638.387"/>
			<point x="338.534" y="657.824"/>
			<point x="361.253" y="676.684" type="curve" smooth="yes"/>
			<point x="363.812" y="678.674"/>
			<point x="365.313" y="684.535"/>
			<point x="363.815" y="688.965" type="curve" smooth="yes"/>
			<point x="334.344" y="739.528"/>
			<point x="276.719" y="788.393"/>
			<point x="207.69" y="791.996" type="curve" smooth="yes"/>
			<point x="207.644" y="791.996"/>
			<point x="207.581" y="791.996"/>
			<point x="207.534" y="792.012" type="curve" smooth="yes"/>
			<point x="166.17" y="795.203"/>
			<point x="123.465" y="779.646"/>
			<point x="95.8467" y="752.027" type="curve" smooth="yes"/>
			<point x="67.7568" y="723.938"/>
			<point x="49.8398" y="681.126"/>
			<point x="53.9707" y="626.714" type="curve" smooth="yes"/>
			<point x="59.752" y="578.54"/>
			<point x="86.3936" y="530.909"/>
			<point x="121.97" y="497.511" type="curve" smooth="yes"/>
			<point x="138.688" y="482.729"/>
			<point x="157.376" y="468.995"/>
			<point x="176.892" y="458.261" type="curve" smooth="yes"/>
			<point x="181.181" y="455.909"/>
			<point x="180.738" y="449.038"/>
			<point x="176.001" y="447.34" type="curve" smooth="yes"/>
			<point x="143.079" y="435.715"/>
			<point x="112.97" y="416.355"/>
			<point x="88.2979" y="391.684" type="curve" smooth="yes"/>
			<point x="-12.7236" y="290.662"/>
			<point x="8.95605" y="146.372"/>
			<point x="87.875" y="67.2617" type="curve" smooth="yes"/>
			<point x="134.891" y="20.2617"/>
			<point x="202.016" y="-7.00391"/>
			<point x="269" y="-7.00391" type="curve" smooth="yes"/>
			<point x="392.326" y="-4.93359"/>
			<point x="493.647" y="84.7344"/>
			<point x="511.078" y="196.919" type="curve" smooth="yes"/>
			<point x="520.781" y="265.935"/>
			<point x="498.484" y="338.028"/>
			<point x="452.75" y="391.747" type="curve" smooth="yes"/>
			<point x="450.188" y="394.31"/>
			<point x="444.86" y="399.562"/>
			<point x="450.516" y="403.888" type="curve" smooth="yes"/>
			<point x="454.297" y="406.575"/>
			<point x="457.797" y="409.606"/>
			<point x="461.203" y="413.028" type="curve" smooth="yes"/>
			<point x="489.188" y="441.013"/>
			<point x="505.609" y="471.669"/>
			<point x="513.125" y="508.216" type="curve" smooth="yes"/>
			<point x="514.065" y="512.779"/>
			<point x="511.847" y="518.943"/>
			<point x="507.469" y="522.139" type="curve" smooth="yes"/>
			<point x="422.688" y="584.014" type="line" smooth="yes"/>
			<point x="421.609" y="584.717"/>
			<point x="420.812" y="585.076"/>
			<point x="420.641" y="585.123" type="curve"/>
			<point x="423.228" y="585.667"/>
			<point x="425.171" y="586.854"/>
			<point x="425.61" y="589.546" type="curve"/>
			<point x="438.442" y="560.812"/>
			<point x="435.922" y="522.67"/>
			<point x="424.578" y="493.796" type="curve" smooth="yes"/>
			<point x="397.265" y="424.274"/>
			<point x="319.771" y="395.851"/>
			<point x="280.984" y="337.67" type="curve" smooth="yes"/>
			<point x="256.031" y="300.232"/>
			<point x="249.266" y="251.045"/>
			<point x="262.734" y="207.779" type="curve" smooth="yes"/>
			<point x="264.321" y="202.564"/>
			<point x="270.328" y="199.493"/>
			<point x="275.594" y="198.967" type="curve" smooth="yes"/>
			<point x="375.594" y="188.967" type="line" smooth="yes"/>
			<point x="376.891" y="188.842"/>
			<point x="378.328" y="188.748"/>
		</contour>
	</outline>
</glyph>
<glyph name="quotesingle" format="2">
	<unicode hex="0027"/>
	<advance width="222"/>
	<outline>
		<contour>
			<point x="19" y="929" type="curve" smooth="yes"/>
			<point x="133" y="929.999" type="line" smooth="yes"/>
			<point x="138.281" y="929.999"/>
			<point x="142.719" y="928.046"/>
			<point x="145.875" y="924.874" type="curve" smooth="yes"/>
			<point x="188.312" y="882.452" type="line" smooth="yes"/>
			<point x="191.141" y="879.624"/>
			<point x="192.953" y="875.812"/>
			<point x="193.422" y="871.562" type="curve" smooth="yes"/>
			<point x="218.438" y="639.577" type="line" smooth="yes"/>
			<point x="220.529" y="631.078"/>
			<point x="211.955" y="623.562"/>
			<point x="204.438" y="623.562" type="curve" smooth="yes"/>
			<point x="128.422" y="621.562" type="line"/>
			<point x="86" y="663.999" type="line"/>
			<point x="75.4688" y="662.943"/>
			<point x="66.8613" y="670.659"/>
			<point x="65" y="680" type="curve" smooth="yes"/>
			<point x="6" y="912" type="line" smooth="yes"/>
			<point x="4.03906" y="919.845"/>
			<point x="10.5391" y="929"/>
		</contour>
		<contour>
			<point x="19.0625" y="922.999" type="line" smooth="yes"/>
			<point x="13.7715" y="922.999"/>
			<point x="11.0088" y="916.726"/>
			<point x="11.8135" y="913.452" type="curve" smooth="yes"/>
			<point x="70.8135" y="681.483" type="line" smooth="yes"/>
			<point x="72.5977" y="674.42"/>
			<point x="77.7627" y="669.762"/>
			<point x="85.8447" y="669.999" type="curve" smooth="yes"/>
			<point x="162.001" y="671.999" type="line" smooth="yes"/>
			<point x="167.019" y="671.999"/>
			<point x="170.482" y="677.339"/>
			<point x="170.032" y="681.358" type="curve" smooth="yes"/>
			<point x="145.032" y="913.343" type="line" smooth="yes"/>
			<point x="144.348" y="919.501"/>
			<point x="139.858" y="924.057"/>
			<point x="133" y="923.999" type="curve" smooth="yes"/>
		</contour>
	</outline>
</glyph>
<glyph name="parenleft" format="2">
	<unicode hex="0028"/>
	<advance width="300"/>
	<outline>
		<contour>
			<point x="189.984" y="789" type="curve" smooth="yes"/>
			<point x="232.423" y="746.578" type="line"/>
			<point x="289.423" y="673.562" type="line" smooth="yes"/>
			<point x="296.438" y="664.562"/>
			<point x="293.423" y="654.578"/>
			<point x="283.423" y="649.578" type="curve" smooth="yes"/>
			<point x="181.514" y="600.839"/>
			<point x="123.296" y="493.641"/>
			<point x="114.422" y="357.577" type="curve" smooth="yes"/>
			<point x="105.422" y="232.577"/>
			<point x="139.438" y="102.577"/>
			<point x="220.438" y="7.56152" type="curve"/>
			<point x="178" y="49.999" type="line"/>
			<point x="195" y="29.999"/>
			<point x="213" y="10.999"/>
			<point x="234" y="-5.00098" type="curve" smooth="yes"/>
			<point x="234.734" y="-5.62598"/>
			<point x="235.438" y="-6.28223"/>
			<point x="236.109" y="-6.9541" type="curve" smooth="yes"/>
			<point x="278.531" y="-49.376" type="line" smooth="yes"/>
			<point x="289.719" y="-60.5635"/>
			<point x="291.812" y="-78.1729"/>
			<point x="281.422" y="-90.4229" type="curve" smooth="yes"/>
			<point x="242.422" y="-140.423" type="line" smooth="yes"/>
			<point x="231.766" y="-152.845"/>
			<point x="216.406" y="-154.251"/>
			<point x="206.094" y="-143.923" type="curve" smooth="yes"/>
			<point x="163.672" y="-101.501" type="line" smooth="yes"/>
			<point x="162.359" y="-100.188"/>
			<point x="161.125" y="-98.6885"/>
			<point x="160" y="-97.001" type="curve" smooth="yes"/>
			<point x="138" y="-66.001"/>
			<point x="119" y="-34.001"/>
			<point x="101" y="-1.00098" type="curve" smooth="yes"/>
			<point x="35" y="121.999"/>
			<point x="-5" y="260.999"/>
			<point x="3" y="399.999" type="curve" smooth="yes"/>
			<point x="9" y="504.999"/>
			<point x="42" y="608.999"/>
			<point x="99" y="698.999" type="curve" smooth="yes"/>
			<point x="120" y="730.999"/>
			<point x="144" y="761.999"/>
			<point x="170" y="789.999" type="curve" smooth="yes"/>
			<point x="176.159" y="796.158"/>
			<point x="185.337" y="794.681"/>
		</contour>
		<contour>
			<point x="185.376" y="785.172" type="line" smooth="yes"/>
			<point x="182.645" y="788.4"/>
			<point x="177.767" y="789.282"/>
			<point x="174.248" y="785.764" type="curve" smooth="yes"/>
			<point x="148.545" y="758.076"/>
			<point x="124.795" y="727.389"/>
			<point x="104.014" y="695.701" type="curve" smooth="yes"/>
			<point x="47.5605" y="606.592"/>
			<point x="14.9355" y="503.623"/>
			<point x="8.99805" y="399.654" type="curve" smooth="yes"/>
			<point x="1.06055" y="262.045"/>
			<point x="40.6855" y="124.092"/>
			<point x="106.295" y="1.8418" type="curve" smooth="yes"/>
			<point x="124.217" y="-31.0332"/>
			<point x="143.076" y="-62.7988"/>
			<point x="164.889" y="-93.5332" type="curve" smooth="yes"/>
			<point x="171.571" y="-102.867"/>
			<point x="185.608" y="-106.831"/>
			<point x="195.265" y="-94.3145" type="curve" smooth="yes"/>
			<point x="234.421" y="-44.127" type="line" smooth="yes"/>
			<point x="243.159" y="-33.7891"/>
			<point x="240.457" y="-18.3955"/>
			<point x="230.359" y="-9.78223" type="curve" smooth="yes"/>
			<point x="208.98" y="6.50098"/>
			<point x="190.683" y="25.8301"/>
			<point x="173.423" y="46.1084" type="curve" smooth="yes"/>
			<point x="91.2197" y="142.546"/>
			<point x="56.9229" y="274.093"/>
			<point x="66.0166" y="400.437" type="curve" smooth="yes"/>
			<point x="74.999" y="538.314"/>
			<point x="136.386" y="648.522"/>
			<point x="238.313" y="697.375" type="curve" smooth="yes"/>
			<point x="243.459" y="699.948"/>
			<point x="247.784" y="705.215"/>
			<point x="242.267" y="712.312" type="curve" smooth="yes"/>
		</contour>
	</outline>
</glyph>
<glyph name="asterisk" format="2">
	<unicode hex="002A"/>
	<advance width="686"/>
	<outline>
		<contour>
			<point x="685.438" y="288.562" type="line" smooth="yes"/>
			<point x="685.438" y="279.213"/>
			<point x="678.24" y="269.382"/>
			<point x="667.422" y="271.579" type="curve" smooth="yes"/>
			<point x="437.656" y="292.126" type="line"/>
			<point x="629" y="149.001" type="line" smooth="yes"/>
			<point x="629.672" y="148.501"/>
			<point x="630.312" y="147.938"/>
			<point x="630.922" y="147.329" type="curve" smooth="yes"/>
			<point x="673.344" y="104.907" type="line" smooth="yes"/>
			<point x="676.359" y="101.892"/>
			<point x="678.422" y="97.7354"/>
			<point x="678.422" y="93.5791" type="curve" smooth="yes"/>
			<point x="678.422" y="88.5635"/>
			<point x="677.422" y="84.5791"/>
			<point x="673.422" y="80.5791" type="curve" smooth="yes"/>
			<point x="568.422" y="-28.4209" type="line" smooth="yes"/>
			<point x="560.761" y="-34.167"/>
			<point x="551.77" y="-35.0186"/>
			<point x="545.062" y="-28.3115" type="curve" smooth="yes"/>
			<point x="502.641" y="14.1104" type="line" smooth="yes"/>
			<point x="502.062" y="14.6885"/>
			<point x="501.516" y="15.3135"/>
			<point x="501" y="16.001" type="curve" smooth="yes"/>
			<point x="360.594" y="229.001" type="line"/>
			<point x="210.438" y="-25.4365" type="line" smooth="yes"/>
			<point x="207.422" y="-29.4365"/>
			<point x="203.438" y="-32.4209"/>
			<point x="199.422" y="-33.4365" type="curve" smooth="yes"/>
			<point x="157" y="9.00098" type="line" smooth="yes"/>
			<point x="151.872" y="9.00098"/>
			<point x="146.788" y="10.2363"/>
			<point x="144" y="14.001" type="curve" smooth="yes"/>
			<point x="32" y="122.001" type="line" smooth="yes"/>
			<point x="25.002" y="128.999"/>
			<point x="24.5908" y="141.718"/>
			<point x="33" y="148" type="curve" smooth="yes"/>
			<point x="206.719" y="284.078" type="line"/>
			<point x="63.4219" y="271.578" type="line" smooth="yes"/>
			<point x="59.4375" y="270.562"/>
			<point x="54.4219" y="272.562"/>
			<point x="50.4219" y="275.578" type="curve" smooth="yes"/>
			<point x="8" y="318" type="line" smooth="yes"/>
			<point x="5" y="322"/>
			<point x="3" y="326"/>
			<point x="3" y="331" type="curve" smooth="yes"/>
			<point x="13" y="496" type="line" smooth="yes"/>
			<point x="14.8203" y="503.279"/>
			<point x="23.3193" y="513.84"/>
			<point x="33" y="509" type="curve" smooth="yes"/>
			<point x="283" y="431" type="line"/>
			<point x="234" y="661" type="line" smooth="yes"/>
			<point x="231.635" y="670.461"/>
			<point x="239.837" y="680.001"/>
			<point x="249" y="680.001" type="curve" smooth="yes"/>
			<point x="401" y="679.001" type="line" smooth="yes"/>
			<point x="406.123" y="679.02"/>
			<point x="411.162" y="676.746"/>
			<point x="413.999" y="673.001" type="curve" smooth="yes"/>
			<point x="456.421" y="630.579" type="line" smooth="yes"/>
			<point x="459.437" y="626.579"/>
			<point x="460.421" y="621.579"/>
			<point x="459.421" y="617.563" type="curve" smooth="yes"/>
			<point x="426.265" y="448.079" type="line"/>
			<point x="608.999" y="509.001" type="line" smooth="yes"/>
			<point x="619.531" y="511.634"/>
			<point x="626.833" y="504.581"/>
			<point x="629" y="496" type="curve"/>
			<point x="671.438" y="453.578" type="line"/>
		</contour>
		<contour>
			<point x="626.75" y="127.251" type="line" smooth="yes"/>
			<point x="631.508" y="132.009"/>
			<point x="630.952" y="140.029"/>
			<point x="625.407" y="144.188" type="curve" smooth="yes"/>
			<point x="375.407" y="331.188" type="line" smooth="yes"/>
			<point x="370.765" y="334.836"/>
			<point x="373.777" y="342.497"/>
			<point x="379.532" y="341.969" type="curve" smooth="yes"/>
			<point x="625.532" y="319.969" type="line" smooth="yes"/>
			<point x="632.367" y="319.37"/>
			<point x="637.571" y="324.012"/>
			<point x="637.032" y="330.484" type="curve" smooth="yes"/>
			<point x="623.188" y="494.531" type="line" smooth="yes"/>
			<point x="621.628" y="500.774"/>
			<point x="617.801" y="504.817"/>
			<point x="610.907" y="503.313" type="curve" smooth="yes"/>
			<point x="373.892" y="424.313" type="line" smooth="yes"/>
			<point x="369.602" y="422.862"/>
			<point x="365.248" y="426.812"/>
			<point x="366.11" y="431.158" type="curve" smooth="yes"/>
			<point x="411.11" y="661.158" type="line" smooth="yes"/>
			<point x="412.22" y="666.897"/>
			<point x="407.924" y="672.966"/>
			<point x="401.017" y="673.002" type="curve" smooth="yes"/>
			<point x="248.97" y="674.002" type="line" smooth="yes"/>
			<point x="242.725" y="674.002"/>
			<point x="238.67" y="667.12"/>
			<point x="239.828" y="662.455" type="curve" smooth="yes"/>
			<point x="288.859" y="432.268" type="line" smooth="yes"/>
			<point x="289.81" y="427.938"/>
			<point x="285.518" y="423.943"/>
			<point x="281.203" y="425.283" type="curve" smooth="yes"/>
			<point x="31.2031" y="503.268" type="line" smooth="yes"/>
			<point x="25.626" y="505.008"/>
			<point x="20.6768" y="501.206"/>
			<point x="19" y="495.643" type="curve" smooth="yes"/>
			<point x="9" y="331.018" type="line" smooth="yes"/>
			<point x="9" y="328.189"/>
			<point x="9.67188" y="325.643"/>
			<point x="11.5938" y="322.799" type="curve" smooth="yes"/>
			<point x="15.75" y="319.689"/>
			<point x="18.4375" y="319.799"/>
			<point x="20.4688" y="319.971" type="curve" smooth="yes"/>
			<point x="272.469" y="341.971" type="line" smooth="yes"/>
			<point x="277.515" y="342.434"/>
			<point x="281.831" y="335.224"/>
			<point x="276.688" y="331.268" type="curve" smooth="yes"/>
			<point x="36.5938" y="143.189" type="line" smooth="yes"/>
			<point x="34.4121" y="141.582"/>
			<point x="33.002" y="138.462"/>
			<point x="32.9844" y="134.986" type="curve" smooth="yes"/>
			<point x="32.9844" y="131.258"/>
			<point x="32.0889" y="130.248"/>
			<point x="36.1562" y="126.314" type="curve" smooth="yes"/>
			<point x="148.234" y="18.252" type="line" smooth="yes"/>
			<point x="149.96" y="16.4512"/>
			<point x="151.373" y="15.1191"/>
			<point x="155.531" y="14.8145" type="curve" smooth="yes"/>
			<point x="157.658" y="15.3564"/>
			<point x="161.07" y="17.7451"/>
			<point x="162.828" y="20.0488" type="curve" smooth="yes"/>
			<point x="319.828" y="286.049" type="line" smooth="yes"/>
			<point x="321.987" y="289.478"/>
			<point x="327.499" y="290.073"/>
			<point x="330.016" y="286.298" type="curve" smooth="yes"/>
			<point x="505.812" y="19.5947" type="line" smooth="yes"/>
			<point x="507.47" y="17.335"/>
			<point x="509.614" y="15.833"/>
			<point x="513" y="15.001" type="curve" smooth="yes"/>
			<point x="516.016" y="15.001"/>
			<point x="518.531" y="15.9229"/>
			<point x="521.672" y="18.1729" type="curve" smooth="yes"/>
		</contour>
	</outline>
</glyph>
<glyph name="comma" format="2">
	<unicode hex="002C"/>
	<advance width="247"/>
	<outline>
		<contour>
			<point x="41" y="104" type="curve" smooth="yes"/>
			<point x="169.999" y="137" type="line" smooth="yes"/>
			<point x="177.917" y="138.979"/>
			<point x="185.999" y="134.104"/>
			<point x="185.999" y="126.016" type="curve"/>
			<point x="228.421" y="83.5781" type="line"/>
			<point x="231.534" y="-9.80859"/>
			<point x="190.102" y="-100.066"/>
			<point x="138.422" y="-154.422" type="curve" smooth="yes"/>
			<point x="133.422" y="-160.422"/>
			<point x="122.422" y="-165.438"/>
			<point x="114.422" y="-164.422" type="curve" smooth="yes"/>
			<point x="61.4375" y="-163.438" type="line" smooth="yes"/>
			<point x="54.1719" y="-163.438"/>
			<point x="49.25" y="-161.969"/>
			<point x="46.5938" y="-159.328" type="curve" smooth="yes"/>
			<point x="4.17188" y="-116.906" type="line" smooth="yes"/>
			<point x="-0.09375" y="-112.625"/>
			<point x="1.59375" y="-105.266"/>
			<point x="9" y="-96" type="curve" smooth="yes"/>
			<point x="46.2939" y="-49.8271"/>
			<point x="61.4824" y="18.6904"/>
			<point x="31" y="82" type="curve" smooth="yes"/>
			<point x="26.9844" y="92"/>
			<point x="30" y="101"/>
		</contour>
		<contour>
			<point x="42.499" y="98.1875" type="line" smooth="yes"/>
			<point x="36.582" y="96.5635"/>
			<point x="33.2549" y="92.8613"/>
			<point x="36.4062" y="84.6104" type="curve" smooth="yes"/>
			<point x="49.8906" y="56.5791"/>
			<point x="55.0469" y="25.5322"/>
			<point x="52.9844" y="-5.38965" type="curve" smooth="yes"/>
			<point x="52.9844" y="-5.49902"/>
			<point x="52.9688" y="-5.6084"/>
			<point x="52.9531" y="-5.71777" type="curve" smooth="yes"/>
			<point x="48.8281" y="-39.8115"/>
			<point x="35.4219" y="-72.8428"/>
			<point x="13.6719" y="-99.7646" type="curve" smooth="yes"/>
			<point x="6.26562" y="-109.03"/>
			<point x="7.98438" y="-112.218"/>
			<point x="8.42188" y="-112.655" type="curve" smooth="yes"/>
			<point x="9.20312" y="-113.452"/>
			<point x="12.3594" y="-114.874"/>
			<point x="19" y="-114.999" type="curve" smooth="yes"/>
			<point x="72.1094" y="-115.999" type="line" smooth="yes"/>
			<point x="78.7656" y="-115.999"/>
			<point x="86.5791" y="-112.95"/>
			<point x="91.6553" y="-107.874" type="curve" smooth="yes"/>
			<point x="142.404" y="-54.4443"/>
			<point x="183.064" y="34.1348"/>
			<point x="179.999" y="125.813" type="curve" smooth="yes"/>
			<point x="179.873" y="129.983"/>
			<point x="175.972" y="132.342"/>
			<point x="171.452" y="131.188" type="curve" smooth="yes"/>
		</contour>
	</outline>
</glyph>
<glyph name="hyphen" format="2">
	<unicode hex="002D"/>
	<advance width="551"/>
	<outline>
		<contour>
			<point x="35" y="408" type="curve" smooth="yes"/>
			<point x="480" y="410" type="line" smooth="yes"/>
			<point x="484" y="410"/>
			<point x="488" y="408"/>
			<point x="491" y="405" type="curve" smooth="yes"/>
			<point x="533.422" y="362.562" type="line" smooth="yes"/>
			<point x="536.422" y="358.562"/>
			<point x="538.422" y="354.578"/>
			<point x="537.422" y="350.562" type="curve" smooth="yes"/>
			<point x="526.438" y="268.578" type="line" smooth="yes"/>
			<point x="525.422" y="258.578"/>
			<point x="516.438" y="251.578"/>
			<point x="506.422" y="251.578" type="curve" smooth="yes"/>
			<point x="58.4219" y="246.578" type="line" smooth="yes"/>
			<point x="54.4219" y="246.578"/>
			<point x="50.4219" y="248.562"/>
			<point x="47.4219" y="251.578" type="curve" smooth="yes"/>
			<point x="5" y="294" type="line" smooth="yes"/>
			<point x="2" y="297.984"/>
			<point x="1" y="302"/>
			<point x="2" y="307" type="curve" smooth="yes"/>
			<point x="15" y="390" type="line" smooth="yes"/>
			<point x="16" y="400"/>
			<point x="25" y="408"/>
		</contour>
		<contour>
			<point x="35.0312" y="402" type="line" smooth="yes"/>
			<point x="27.5234" y="402"/>
			<point x="21.9785" y="395.866"/>
			<point x="20.9219" y="389.062" type="curve" smooth="yes"/>
			<point x="7.92188" y="306.078" type="line" smooth="yes"/>
			<point x="6.96582" y="299.905"/>
			<point x="10.7402" y="294.959"/>
			<point x="16" y="295" type="curve" smooth="yes"/>
			<point x="463.922" y="300" type="line" smooth="yes"/>
			<point x="471.239" y="300"/>
			<point x="477.112" y="304.845"/>
			<point x="478.031" y="311.609" type="curve" smooth="yes"/>
			<point x="489.047" y="393.797" type="line" smooth="yes"/>
			<point x="489.55" y="397.484"/>
			<point x="484.972" y="404.039"/>
			<point x="480" y="404" type="curve" smooth="yes"/>
		</contour>
	</outline>
</glyph>
<glyph name="period" format="2">
  <advance width="228"/>
  <unicode hex="002E"/>
  <outline>
    <contour>
      <point x="49" y="224.016" type="line" smooth="yes"/>
      <point x="49" y="230.93"/>
      <point x="55.374" y="236.966"/>
      <point x="62" y="237" type="curve" smooth="yes"/>
      <point x="146" y="231" type="line" smooth="yes"/>
      <point x="149.75" y="231"/>
      <point x="153.062" y="229.469"/>
      <point x="155.422" y="227.109" type="curve" smooth="yes"/>
      <point x="226.125" y="156.391" type="line" smooth="yes"/>
      <point x="228.797" y="153.719"/>
      <point x="230.25" y="150"/>
      <point x="229.703" y="146.297" type="curve" smooth="yes"/>
      <point x="227.719" y="71.2812" type="line" smooth="yes"/>
      <point x="227.719" y="64.2812"/>
      <point x="221.719" y="58.2812"/>
      <point x="213.719" y="58.2812" type="curve"/>
      <point x="209.422" y="-13.4219" type="line"/>
      <point x="68" y="128" type="line"/>
      <point x="60.7158" y="128"/>
      <point x="54" y="133.281"/>
      <point x="54" y="141" type="curve" smooth="yes"/>
    </contour>
    <contour>
      <point x="62.0312" y="227" type="line" smooth="yes"/>
      <point x="60.3066" y="227"/>
      <point x="59.6074" y="225.76"/>
      <point x="59" y="224.015" type="curve" smooth="yes"/>
      <point x="63.9844" y="141.608" type="line" smooth="yes"/>
      <point x="64.1387" y="139.327"/>
      <point x="65.5039" y="137.969"/>
      <point x="68" y="138" type="curve" smooth="yes"/>
      <point x="142.875" y="138.984" type="line" smooth="yes"/>
      <point x="145.101" y="138.984"/>
      <point x="146.949" y="140.169"/>
      <point x="147" y="142" type="curve" smooth="yes"/>
      <point x="149" y="217.266" type="line" smooth="yes"/>
      <point x="149.069" y="219.418"/>
      <point x="148.144" y="220.824"/>
      <point x="145.281" y="221.031" type="curve" smooth="yes"/>
    </contour>
  </outline>
</glyph>
<glyph name="slash" format="2">
  <advance width="367"/>
  <unicode hex="002F"/>
  <outline>
    <contour>
      <point x="274" y="700" type="line" smooth="yes"/>
      <point x="281.274" y="700"/>
      <point x="287.736" y="691.9"/>
      <point x="285.984" y="685" type="curve"/>
      <point x="356.703" y="614.281" type="line"/>
      <point x="195.719" y="-55.7031" type="line" smooth="yes"/>
      <point x="192.719" y="-64.7188"/>
      <point x="185.703" y="-70.7188"/>
      <point x="176.703" y="-70.7188" type="curve" smooth="yes"/>
      <point x="89.7188" y="-70.7188" type="line"/>
      <point x="19" y="0" type="line"/>
      <point x="11.5537" y="0"/>
      <point x="7" y="7.51465"/>
      <point x="7" y="15" type="curve" smooth="yes"/>
      <point x="163" y="685" type="line" smooth="yes"/>
      <point x="165" y="694"/>
      <point x="173.016" y="700"/>
      <point x="182" y="700" type="curve" smooth="yes"/>
    </contour>
    <contour>
      <point x="17" y="15" type="line" smooth="yes"/>
      <point x="17" y="12.0498"/>
      <point x="17.2295" y="10.8848"/>
      <point x="18.999" y="10" type="curve" smooth="yes"/>
      <point x="105.999" y="10" type="line" smooth="yes"/>
      <point x="110.783" y="10"/>
      <point x="113.748" y="13.3945"/>
      <point x="115.28" y="17.3594" type="curve" smooth="yes"/>
      <point x="276.296" y="687.469" type="line" smooth="yes"/>
      <point x="275.935" y="687.976"/>
      <point x="274.67" y="690"/>
      <point x="274" y="690" type="curve" smooth="yes"/>
      <point x="182" y="690" type="line" smooth="yes"/>
      <point x="177.295" y="690"/>
      <point x="173.724" y="686.922"/>
      <point x="172.75" y="682.812" type="curve" smooth="yes"/>
    </contour>
  </outline>
</glyph>
<glyph name="zero" format="2">
	<unicode hex="0030"/>
	<advance width="523"/>
	<outline>
		<contour>
			<point x="361.969" y="501.719" type="curve"/>
			<point x="325.81" y="524.962"/>
			<point x="277.395" y="527.94"/>
			<point x="236.422" y="505.562" type="curve" smooth="yes"/>
			<point x="213.422" y="492.578"/>
			<point x="194.438" y="474.578"/>
			<point x="179.422" y="453.562" type="curve" smooth="yes"/>
			<point x="150.422" y="411.562"/>
			<point x="138.422" y="359.578"/>
			<point x="133.438" y="308.578" type="curve" smooth="yes"/>
			<point x="128.422" y="264.562"/>
			<point x="127.422" y="217.578"/>
			<point x="142.422" y="175.578" type="curve" smooth="yes"/>
			<point x="146.5" y="162.75"/>
			<point x="152.281" y="150.625"/>
			<point x="159.359" y="139.547" type="curve"/>
			<point x="169.344" y="133.172"/>
			<point x="180.031" y="128.125"/>
			<point x="191" y="125" type="curve" smooth="yes"/>
			<point x="249.763" y="110.896"/>
			<point x="298.39" y="143.141"/>
			<point x="326" y="174" type="curve" smooth="yes"/>
			<point x="359" y="211"/>
			<point x="376" y="261"/>
			<point x="385" y="310" type="curve" smooth="yes"/>
			<point x="395" y="362"/>
			<point x="397.984" y="416"/>
			<point x="380" y="465" type="curve" smooth="yes"/>
			<point x="375.328" y="477.953"/>
			<point x="369.328" y="490.375"/>
		</contour>
		<contour>
			<point x="495.422" y="256.578" type="curve" smooth="yes"/>
			<point x="480.422" y="180.562"/>
			<point x="458.422" y="102.578"/>
			<point x="409.422" y="42.5625" type="curve" smooth="yes"/>
			<point x="369.107" y="-7.40234"/>
			<point x="295" y="-61.2109"/>
			<point x="203.422" y="-36.4219" type="curve" smooth="yes"/>
			<point x="174.312" y="-28.2344"/>
			<point x="148.5" y="-11.7656"/>
			<point x="127.516" y="9.21875" type="curve" smooth="yes"/>
			<point x="85.0938" y="51.6406" type="line" smooth="yes"/>
			<point x="60.3125" y="76.4219"/>
			<point x="42.0244" y="109.113"/>
			<point x="30" y="143" type="curve" smooth="yes"/>
			<point x="9" y="205"/>
			<point x="10" y="272"/>
			<point x="15" y="337" type="curve" smooth="yes"/>
			<point x="22" y="422"/>
			<point x="35" y="510"/>
			<point x="82" y="581" type="curve" smooth="yes"/>
			<point x="121.02" y="642.074"/>
			<point x="198.401" y="707.817"/>
			<point x="297" y="689" type="curve" smooth="yes"/>
			<point x="335.075" y="681.986"/>
			<point x="370.609" y="660.346"/>
			<point x="397" y="632" type="curve" smooth="yes"/>
			<point x="439.422" y="589.578" type="line" smooth="yes"/>
			<point x="466.422" y="561.578"/>
			<point x="484.438" y="526.578"/>
			<point x="495.422" y="488.578" type="curve" smooth="yes"/>
			<point x="517.422" y="413.562"/>
			<point x="509.422" y="333.578"/>
		</contour>
		<contour>
			<point x="338" y="530" type="curve"/>
			<point x="343.156" y="525.125" type="line"/>
			<point x="341.484" y="526.797"/>
			<point x="339.766" y="528.422"/>
		</contour>
		<contour>
			<point x="447.25" y="529.312" type="curve" smooth="yes"/>
			<point x="426.4" y="601.378"/>
			<point x="372.643" y="668.952"/>
			<point x="295.907" y="683.095" type="curve" smooth="yes"/>
			<point x="201.492" y="701.125"/>
			<point x="125.235" y="637.491"/>
			<point x="87.0635" y="577.766" type="curve" smooth="yes"/>
			<point x="41.0322" y="508.25"/>
			<point x="27.9541" y="421.297"/>
			<point x="20.9854" y="336.5" type="curve" smooth="yes"/>
			<point x="16.001" y="271.734"/>
			<point x="15.126" y="205.641"/>
			<point x="35.6729" y="144.938" type="curve" smooth="yes"/>
			<point x="65.9531" y="59.624"/>
			<point x="149.101" y="-28.374"/>
			<point x="272.704" y="19.5312" type="curve" smooth="yes"/>
			<point x="307.885" y="34.2021"/>
			<point x="338.83" y="59.6396"/>
			<point x="362.328" y="88.7656" type="curve" smooth="yes"/>
			<point x="410.266" y="147.469"/>
			<point x="432.172" y="224.438"/>
			<point x="447.109" y="300.172" type="curve" smooth="yes"/>
			<point x="461.062" y="376.891"/>
			<point x="468.812" y="455.797"/>
		</contour>
		<contour>
			<point x="268.688" y="568.954" type="curve" smooth="yes"/>
			<point x="326.547" y="562.295"/>
			<point x="367.768" y="516.672"/>
			<point x="385.626" y="467.079" type="curve" smooth="yes"/>
			<point x="404.188" y="416.517"/>
			<point x="400.985" y="361.407"/>
			<point x="390.892" y="308.907" type="curve" smooth="yes"/>
			<point x="376.775" y="231.972"/>
			<point x="339.459" y="152.479"/>
			<point x="267.188" y="125.423" type="curve" smooth="yes"/>
			<point x="242.453" y="115.732"/>
			<point x="216.432" y="113.803"/>
			<point x="189.345" y="119.22" type="curve" smooth="yes"/>
			<point x="167.126" y="125.579"/>
			<point x="146.376" y="139.142"/>
			<point x="129.751" y="155.767" type="curve" smooth="yes"/>
			<point x="113.829" y="171.688"/>
			<point x="101.525" y="193.536"/>
			<point x="94.3447" y="215.97" type="curve" smooth="yes"/>
			<point x="78.8447" y="259.392"/>
			<point x="80.001" y="307.235"/>
			<point x="85.0322" y="351.595" type="curve" smooth="yes"/>
			<point x="91.248" y="415.021"/>
			<point x="111.533" y="482.736"/>
			<point x="152.97" y="524.173" type="curve" smooth="yes"/>
			<point x="178.783" y="549.986"/>
			<point x="220.134" y="574.58"/>
		</contour>
	</outline>
</glyph>
<glyph name="one" format="2">
	<unicode hex="0031"/>
	<advance width="249"/>
	<outline>
		<contour>
			<point x="190" y="701.984" type="curve" smooth="yes"/>
			<point x="196.917" y="702.014"/>
			<point x="203.002" y="697.069"/>
			<point x="203.002" y="690" type="curve"/>
			<point x="245.439" y="647.578" type="line"/>
			<point x="246.424" y="610.562"/>
			<point x="245.424" y="572.562"/>
			<point x="240.424" y="535.578" type="curve" smooth="yes"/>
			<point x="230.424" y="457.578"/>
			<point x="206.439" y="381.578"/>
			<point x="197.424" y="303.578" type="curve" smooth="yes"/>
			<point x="182.908" y="184.204"/>
			<point x="205.688" y="61.749"/>
			<point x="238.423" y="-31.4219" type="curve" smooth="yes"/>
			<point x="240.423" y="-37.4219"/>
			<point x="237.438" y="-42.4219"/>
			<point x="230.423" y="-42.4219" type="curve" smooth="yes"/>
			<point x="142.438" y="-42.4219" type="line"/>
			<point x="100.017" y="0" type="line"/>
			<point x="92.4902" y="0"/>
			<point x="86.8467" y="5.60645"/>
			<point x="85" y="12" type="curve" smooth="yes"/>
			<point x="77" y="52"/>
			<point x="73" y="93"/>
			<point x="71" y="133" type="curve" smooth="yes"/>
			<point x="64.9727" y="265.594"/>
			<point x="91.4463" y="398.842"/>
			<point x="103.39" y="528.875" type="curve"/>
			<point x="93.374" y="525.344"/>
			<point x="82.9053" y="522.938"/>
			<point x="72.4209" y="521.562" type="curve"/>
			<point x="29.999" y="564" type="line"/>
			<point x="22.915" y="562.997"/>
			<point x="17.9902" y="569.083"/>
			<point x="16.999" y="575" type="curve" smooth="yes"/>
			<point x="15.999" y="648" type="line" smooth="yes"/>
			<point x="14.999" y="655"/>
			<point x="20.999" y="659"/>
			<point x="26.999" y="659" type="curve" smooth="yes"/>
			<point x="94.9287" y="652.154"/>
			<point x="125.225" y="701.984"/>
		</contour>
		<contour>
			<point x="27.002" y="653" type="curve" smooth="yes"/>
			<point x="23.3301" y="653"/>
			<point x="21.9287" y="651.469"/>
			<point x="22.002" y="648.078" type="curve" smooth="yes"/>
			<point x="22.9238" y="576" type="line" smooth="yes"/>
			<point x="26.0732" y="557.104"/>
			<point x="82.6309" y="587.754"/>
			<point x="90.3301" y="593.734" type="curve" smooth="yes"/>
			<point x="95.5176" y="597.766"/>
			<point x="100.611" y="602.094"/>
			<point x="104.752" y="606.25" type="curve" smooth="yes"/>
			<point x="109.015" y="610.513"/>
			<point x="115.296" y="606.309"/>
			<point x="114.986" y="601.625" type="curve" smooth="yes"/>
			<point x="111.986" y="554.516"/>
			<point x="107.971" y="507.391"/>
			<point x="101.955" y="460.234" type="curve" smooth="yes"/>
			<point x="89.9395" y="351.172"/>
			<point x="72.0332" y="242.406"/>
			<point x="76.9863" y="133.281" type="curve" smooth="yes"/>
			<point x="78.9707" y="93.625"/>
			<point x="82.9082" y="53.1094"/>
			<point x="90.7832" y="13.6406" type="curve" smooth="yes"/>
			<point x="91.9189" y="9.61719"/>
			<point x="95.4199" y="6"/>
			<point x="100.018" y="6" type="curve" smooth="yes"/>
			<point x="188.002" y="6" type="line" smooth="yes"/>
			<point x="190.804" y="6"/>
			<point x="191.253" y="6.2793"/>
			<point x="190.314" y="9.09375" type="curve" smooth="yes"/>
			<point x="157.312" y="103.046"/>
			<point x="134.392" y="226.332"/>
			<point x="149.049" y="346.734" type="curve" smooth="yes"/>
			<point x="158.08" y="424.969"/>
			<point x="182.064" y="500.906"/>
			<point x="192.049" y="578.781" type="curve" smooth="yes"/>
			<point x="196.986" y="615.328"/>
			<point x="198.002" y="653.047"/>
			<point x="197.018" y="689.844" type="curve" smooth="yes"/>
			<point x="196.911" y="693.571"/>
			<point x="193.912" y="696"/>
			<point x="190.018" y="696" type="curve" smooth="yes"/>
			<point x="125.861" y="696"/>
			<point x="95.5293" y="646.41"/>
		</contour>
	</outline>
</glyph>
<glyph name="two" format="2">
	<unicode hex="0032"/>
	<advance width="521"/>
	<outline>
		<contour>
			<point x="30" y="448" type="line"/>
			<point x="21.0898" y="448"/>
			<point x="13.9844" y="454.896"/>
			<point x="14.999" y="463.999" type="curve" smooth="yes"/>
			<point x="19.7783" y="554.805"/>
			<point x="72.9424" y="627.506"/>
			<point x="135.999" y="664.999" type="curve" smooth="yes"/>
			<point x="179.015" y="690.999"/>
			<point x="228.015" y="703.999"/>
			<point x="276.999" y="704.999" type="curve" smooth="yes"/>
			<point x="351.718" y="707.334"/>
			<point x="414.111" y="680.094"/>
			<point x="445.999" y="633.999" type="curve"/>
			<point x="488.421" y="591.577" type="line"/>
			<point x="515.421" y="554.577"/>
			<point x="521.421" y="505.577"/>
			<point x="511.421" y="460.577" type="curve" smooth="yes"/>
			<point x="499.421" y="401.577"/>
			<point x="461.421" y="351.577"/>
			<point x="420.437" y="307.577" type="curve" smooth="yes"/>
			<point x="379.421" y="264.562"/>
			<point x="334.421" y="225.577"/>
			<point x="291.421" y="183.577" type="curve" smooth="yes"/>
			<point x="260.155" y="153.015"/>
			<point x="229.937" y="120.89"/>
			<point x="201.171" y="87.1709" type="curve"/>
			<point x="248.046" y="86.4834"/>
			<point x="294.905" y="90.0615"/>
			<point x="339.999" y="101.999" type="curve" smooth="yes"/>
			<point x="376.999" y="112.015"/>
			<point x="410.999" y="127.999"/>
			<point x="442.999" y="148.999" type="curve" smooth="yes"/>
			<point x="451.943" y="154.569"/>
			<point x="458.151" y="149.743"/>
			<point x="458.999" y="141.999" type="curve"/>
			<point x="501.421" y="99.5615" type="line"/>
			<point x="519.421" y="-0.438477" type="line" smooth="yes"/>
			<point x="520.421" y="-8.43848"/>
			<point x="515.421" y="-19.4385"/>
			<point x="507.421" y="-22.4229" type="curve" smooth="yes"/>
			<point x="480.421" y="-33.4229"/>
			<point x="451.437" y="-40.4229"/>
			<point x="422.437" y="-42.4229" type="curve" smooth="yes"/>
			<point x="339.421" y="-47.4385"/>
			<point x="257.421" y="-12.4385"/>
			<point x="174.421" y="-19.4385" type="curve" smooth="yes"/>
			<point x="150.421" y="-21.4229"/>
			<point x="126.421" y="-27.4385"/>
			<point x="104.421" y="-36.4229" type="curve" smooth="yes"/>
			<point x="95.874" y="-39.2822"/>
			<point x="85.5303" y="-37.6104"/>
			<point x="79.374" y="-31.4541" type="curve" smooth="yes"/>
			<point x="36.9521" y="10.9678" type="line" smooth="yes"/>
			<point x="36.624" y="11.2959"/>
			<point x="36.2959" y="11.6396"/>
			<point x="35.999" y="11.999" type="curve" smooth="yes"/>
			<point x="10.999" y="41.999" type="line" smooth="yes"/>
			<point x="5.99902" y="48.999"/>
			<point x="4.99902" y="59.999"/>
			<point x="8.99902" y="67.999" type="curve" smooth="yes"/>
			<point x="55.999" y="143.999"/>
			<point x="113.999" y="212.999"/>
			<point x="179.999" y="271.999" type="curve" smooth="yes"/>
			<point x="216.999" y="304.999"/>
			<point x="255.999" y="334.999"/>
			<point x="288.999" y="370.999" type="curve" smooth="yes"/>
			<point x="322.999" y="405.999"/>
			<point x="351.999" y="448.999"/>
			<point x="360.999" y="496.999" type="curve" smooth="yes"/>
			<point x="366.245" y="526.729"/>
			<point x="363.244" y="556.412"/>
			<point x="352.999" y="578.155" type="curve"/>
			<point x="327.408" y="590.051"/>
			<point x="295.374" y="589.044"/>
			<point x="268.421" y="575.578" type="curve" smooth="yes"/>
			<point x="222.014" y="551.217"/>
			<point x="185.893" y="492.069"/>
			<point x="189.422" y="428.578" type="curve" smooth="yes"/>
			<point x="189.422" y="419.562"/>
			<point x="183.422" y="412.578"/>
			<point x="174.422" y="411.562" type="curve" smooth="yes"/>
			<point x="72.4375" y="405.562" type="line"/>
		</contour>
		<contour>
			<point x="232.093" y="217.733" type="curve" smooth="yes"/>
			<point x="278.867" y="264.508"/>
			<point x="328.277" y="306.547"/>
			<point x="373.657" y="354.141" type="curve" smooth="yes"/>
			<point x="414.407" y="397.875"/>
			<point x="451.485" y="447"/>
			<point x="463.126" y="504.203" type="curve" smooth="yes"/>
			<point x="475.228" y="558.691"/>
			<point x="459.578" y="615.032"/>
			<point x="425.797" y="648.813" type="curve" smooth="yes"/>
			<point x="359.838" y="714.772"/>
			<point x="224.318" y="711.369"/>
			<point x="139.094" y="659.86" type="curve" smooth="yes"/>
			<point x="77.4746" y="623.242"/>
			<point x="25.6338" y="552.285"/>
			<point x="20.999" y="463.673" type="curve" smooth="yes"/>
			<point x="20.7109" y="458.259"/>
			<point x="24.1172" y="453.663"/>
			<point x="29.6553" y="453.985" type="curve" smooth="yes"/>
			<point x="131.327" y="459.954" type="line" smooth="yes"/>
			<point x="137.061" y="460.588"/>
			<point x="140.87" y="464.596"/>
			<point x="141.016" y="470.673" type="curve" smooth="yes"/>
			<point x="137.401" y="535.782"/>
			<point x="174.915" y="599.177"/>
			<point x="223.312" y="623.375" type="curve" smooth="yes"/>
			<point x="269.836" y="646.603"/>
			<point x="320.733" y="631.701"/>
			<point x="346.656" y="599.781" type="curve" smooth="yes"/>
			<point x="371.5" y="568.156"/>
			<point x="372.672" y="528.578"/>
			<point x="366.906" y="495.953" type="curve" smooth="yes"/>
			<point x="356.155" y="438.679"/>
			<point x="317.906" y="390.812"/>
			<point x="279.172" y="352.078" type="curve" smooth="yes"/>
			<point x="236.419" y="309.325"/>
			<point x="188.84" y="274.348"/>
			<point x="146.656" y="232.218" type="curve" smooth="yes"/>
			<point x="96.5625" y="182.108"/>
			<point x="51.9219" y="125.968"/>
			<point x="14.375" y="65.3115" type="curve" smooth="yes"/>
			<point x="11.5156" y="59.5928"/>
			<point x="12.1875" y="50.9834"/>
			<point x="15.6094" y="45.8271" type="curve" smooth="yes"/>
			<point x="40.6094" y="15.8428" type="line" smooth="yes"/>
			<point x="44.3867" y="11.1943"/>
			<point x="52.9131" y="9.43359"/>
			<point x="59.7197" y="11.5469" type="curve" smooth="yes"/>
			<point x="82.2666" y="20.7656"/>
			<point x="106.829" y="26.9219"/>
			<point x="131.501" y="28.9688" type="curve" smooth="yes"/>
			<point x="215.079" y="36.0312"/>
			<point x="296.954" y="1"/>
			<point x="379.642" y="5.98438" type="curve" smooth="yes"/>
			<point x="407.954" y="7.9375"/>
			<point x="436.282" y="14.7812"/>
			<point x="462.735" y="25.5625" type="curve" smooth="yes"/>
			<point x="467.745" y="27.6094"/>
			<point x="472.032" y="35.6982"/>
			<point x="471.094" y="40.9219" type="curve" smooth="yes"/>
			<point x="453.094" y="140.922" type="line" smooth="yes"/>
			<point x="452.323" y="145.243"/>
			<point x="451.893" y="147.438"/>
			<point x="446.297" y="143.983" type="curve" smooth="yes"/>
			<point x="413.828" y="122.671"/>
			<point x="379.234" y="106.405"/>
			<point x="341.578" y="96.2021" type="curve" smooth="yes"/>
			<point x="272.656" y="77.9678"/>
			<point x="200.109" y="79.0146"/>
			<point x="129.969" y="84.999" type="curve" smooth="yes"/>
			<point x="125.432" y="84.999"/>
			<point x="117.253" y="88.334"/>
			<point x="122.296" y="94.7334" type="curve" smooth="yes"/>
			<point x="156.702" y="138.187"/>
			<point x="193.546" y="179.171"/>
		</contour>
	</outline>
</glyph>
<glyph name="three" format="2">
	<unicode hex="0033"/>
	<advance width="529"/>
	<outline>
		<contour>
			<point x="56" y="687" type="curve" smooth="yes"/>
			<point x="99.8682" y="744.029"/>
			<point x="180.585" y="798.986"/>
			<point x="271" y="799.015" type="curve" smooth="yes"/>
			<point x="323.946" y="798.998"/>
			<point x="378.167" y="779.081"/>
			<point x="414.608" y="742.64" type="curve" smooth="yes"/>
			<point x="457.03" y="700.218" type="line" smooth="yes"/>
			<point x="498.587" y="658.693"/>
			<point x="522.104" y="585.448"/>
			<point x="495.421" y="509.562" type="curve" smooth="yes"/>
			<point x="478.407" y="461.137"/>
			<point x="444.579" y="418.129"/>
			<point x="408.609" y="384.936" type="curve"/>
			<point x="424.395" y="373.985"/>
			<point x="438.383" y="359.923"/>
			<point x="448.999" y="343.998" type="curve" smooth="yes"/>
			<point x="491.421" y="301.561" type="line"/>
			<point x="534.315" y="234.206"/>
			<point x="521.65" y="137.88"/>
			<point x="484.421" y="74.5615" type="curve" smooth="yes"/>
			<point x="444.505" y="9.27246"/>
			<point x="368.219" y="-37.7988"/>
			<point x="273.438" y="-42.4219" type="curve" smooth="yes"/>
			<point x="195.422" y="-45.4375"/>
			<point x="117.422" y="-18.4219"/>
			<point x="58.4219" y="30.5781" type="curve"/>
			<point x="16" y="73.0156" type="line" smooth="yes"/>
			<point x="9.00098" y="78.7969"/>
			<point x="5.02344" y="92.0713"/>
			<point x="8.01562" y="100" type="curve" smooth="yes"/>
			<point x="41" y="237" type="line" smooth="yes"/>
			<point x="43.3203" y="247.481"/>
			<point x="47.6748" y="244.215"/>
			<point x="50" y="238.001" type="curve" smooth="yes"/>
			<point x="92.4219" y="195.563" type="line"/>
			<point x="99.3125" y="178.079"/>
			<point x="108.453" y="161.704"/>
			<point x="119.547" y="146.907" type="curve"/>
			<point x="164.539" y="111.986"/>
			<point x="233.575" y="92.0537"/>
			<point x="306" y="114.001" type="curve" smooth="yes"/>
			<point x="352.068" y="128.743"/>
			<point x="400.821" y="166.351"/>
			<point x="403" y="223.001" type="curve" smooth="yes"/>
			<point x="403" y="240.188"/>
			<point x="398.281" y="256.892"/>
			<point x="390.125" y="271.829" type="curve"/>
			<point x="361.576" y="288.482"/>
			<point x="316.99" y="296.746"/>
			<point x="275.422" y="285.579" type="curve" smooth="yes"/>
			<point x="269.281" y="284.204"/>
			<point x="263.141" y="285.642"/>
			<point x="259.219" y="289.548" type="curve" smooth="yes"/>
			<point x="216.797" y="331.985" type="line" smooth="yes"/>
			<point x="214.969" y="333.798"/>
			<point x="213.641" y="336.157"/>
			<point x="213" y="339.001" type="curve" smooth="yes"/>
			<point x="193" y="431.001" type="line" smooth="yes"/>
			<point x="191" y="440.001"/>
			<point x="197" y="447.001"/>
			<point x="206" y="448.001" type="curve" smooth="yes"/>
			<point x="277.286" y="453.941"/>
			<point x="341.154" y="497.349"/>
			<point x="367" y="552.984" type="curve" smooth="yes"/>
			<point x="380.45" y="582.35"/>
			<point x="383.833" y="616.371"/>
			<point x="370.297" y="642.891" type="curve"/>
			<point x="302.578" y="677.075"/>
			<point x="232.091" y="620.708"/>
			<point x="200.422" y="585.578" type="curve" smooth="yes"/>
			<point x="176.438" y="560.562"/>
			<point x="156.422" y="533.578"/>
			<point x="138.422" y="503.578" type="curve" smooth="yes"/>
			<point x="135.672" y="498.078"/>
			<point x="131.969" y="496.828"/>
			<point x="129.281" y="499.516" type="curve" smooth="yes"/>
			<point x="86.8594" y="541.938" type="line" smooth="yes"/>
			<point x="85.6406" y="543.156"/>
			<point x="84.625" y="545.188"/>
			<point x="84" y="548" type="curve" smooth="yes"/>
			<point x="50" y="658" type="line" smooth="yes"/>
			<point x="48" y="666"/>
			<point x="50" y="679"/>
		</contour>
		<contour>
			<point x="348" y="671.999" type="curve"/>
			<point x="351.172" y="668.952" type="line"/>
			<point x="350.141" y="669.983"/>
			<point x="349.078" y="671.015"/>
		</contour>
		<contour>
			<point x="89.25" y="546.593" type="line"/>
			<point x="89.5469" y="546.905"/>
			<point x="90.2969" y="548.168"/>
			<point x="90.8594" y="549.09" type="curve" smooth="yes"/>
			<point x="112.109" y="584.512"/>
			<point x="134.672" y="613.824"/>
			<point x="165.547" y="644.684" type="curve" smooth="yes"/>
			<point x="195.072" y="674.239"/>
			<point x="246.41" y="710.377"/>
			<point x="303.094" y="699.902" type="curve" smooth="yes"/>
			<point x="340.281" y="693.31"/>
			<point x="372.166" y="664.957"/>
			<point x="381.767" y="630.621" type="curve" smooth="yes"/>
			<point x="400.225" y="564.695"/>
			<point x="350.026" y="505.462"/>
			<point x="310.329" y="478.997" type="curve" smooth="yes"/>
			<point x="279.595" y="458.513"/>
			<point x="243.735" y="445.153"/>
			<point x="206.673" y="442.044" type="curve" smooth="yes"/>
			<point x="201.391" y="441.464"/>
			<point x="197.578" y="438.179"/>
			<point x="198.86" y="432.31" type="curve" smooth="yes"/>
			<point x="218.86" y="340.278" type="line" smooth="yes"/>
			<point x="220.022" y="335.184"/>
			<point x="225.002" y="332.471"/>
			<point x="231.438" y="333.795" type="curve" smooth="yes"/>
			<point x="292.779" y="350.274"/>
			<point x="352.488" y="328.981"/>
			<point x="381.594" y="294.857" type="curve" smooth="yes"/>
			<point x="398.375" y="274.92"/>
			<point x="409" y="249.639"/>
			<point x="409" y="222.998" type="curve" smooth="yes"/>
			<point x="409" y="222.764" type="line" smooth="yes"/>
			<point x="406.758" y="164.34"/>
			<point x="356.351" y="123.821"/>
			<point x="307.844" y="108.279" type="curve" smooth="yes"/>
			<point x="273.891" y="97.998"/>
			<point x="236.812" y="95.9043"/>
			<point x="201.781" y="103.123" type="curve" smooth="yes"/>
			<point x="161.156" y="111.732"/>
			<point x="125.875" y="129.17"/>
			<point x="91.7656" y="163.295" type="curve" smooth="yes"/>
			<point x="71.3281" y="183.732"/>
			<point x="55.1875" y="208.436"/>
			<point x="44.4062" y="235.795" type="curve" smooth="yes"/>
			<point x="43.7969" y="237.42"/>
			<point x="43.125" y="238.482"/>
			<point x="43" y="238.654" type="curve"/>
			<point x="47.8438" y="238.857" type="line"/>
			<point x="47.6719" y="238.498"/>
			<point x="47.2812" y="237.482"/>
			<point x="46.8594" y="235.686" type="curve" smooth="yes"/>
			<point x="13.8438" y="98.5918" type="line" smooth="yes"/>
			<point x="12.4365" y="92.9639"/>
			<point x="13.9785" y="82.6992"/>
			<point x="19.8896" y="77.5762" type="curve" smooth="yes"/>
			<point x="106.583" y="5.5625"/>
			<point x="240.634" y="-20.8525"/>
			<point x="348.141" y="37.2793" type="curve" smooth="yes"/>
			<point x="413.917" y="72.8008"/>
			<point x="464.372" y="138.612"/>
			<point x="469" y="231.311" type="curve" smooth="yes"/>
			<point x="471.587" y="281.708"/>
			<point x="455.97" y="332.623"/>
			<point x="425.875" y="362.718" type="curve" smooth="yes"/>
			<point x="406.189" y="382.432"/>
			<point x="377.86" y="398.794"/>
			<point x="348.344" y="407.218" type="curve" smooth="yes"/>
			<point x="344.77" y="408.272"/>
			<point x="341.812" y="414.334"/>
			<point x="346.094" y="417.546" type="curve" smooth="yes"/>
			<point x="387.694" y="453.249"/>
			<point x="428.106" y="499.255"/>
			<point x="447.344" y="553.999" type="curve" smooth="yes"/>
			<point x="474.485" y="631.169"/>
			<point x="447.883" y="704.315"/>
			<point x="404.969" y="743.562" type="curve" smooth="yes"/>
			<point x="369.25" y="776.374"/>
			<point x="319.656" y="792.999"/>
			<point x="271" y="793.015" type="curve" smooth="yes"/>
			<point x="183.171" y="792.986"/>
			<point x="103.452" y="738.765"/>
			<point x="60.75" y="683.343" type="curve" smooth="yes"/>
			<point x="56.1562" y="677.187"/>
			<point x="53.875" y="665.765"/>
			<point x="55.7188" y="659.78" type="curve" smooth="yes"/>
			<point x="89.7344" y="549.78" type="line" smooth="yes"/>
			<point x="90.2656" y="548.046"/>
			<point x="91.0781" y="546.218"/>
			<point x="91.0938" y="546.187" type="curve"/>
		</contour>
	</outline>
</glyph>
<glyph name="four" format="2">
	<unicode hex="0034"/>
	<advance width="558"/>
	<outline>
		<contour>
			<point x="303.422" y="-38.4219" type="line" smooth="yes"/>
			<point x="294.531" y="-39.4062"/>
			<point x="287.108" y="-36.9844"/>
			<point x="282.218" y="-32.1094" type="curve" smooth="yes"/>
			<point x="239.796" y="10.3125" type="line" smooth="yes"/>
			<point x="234.796" y="15.3125"/>
			<point x="232.483" y="22.8906"/>
			<point x="233.999" y="32" type="curve" smooth="yes"/>
			<point x="241.046" y="79.75"/>
			<point x="246.249" y="127.484"/>
			<point x="250.093" y="175.219" type="curve"/>
			<point x="200.661" y="176.926"/>
			<point x="156.234" y="171.84"/>
			<point x="117.438" y="159.578" type="curve" smooth="yes"/>
			<point x="104.469" y="155.766"/>
			<point x="90.3594" y="159.5"/>
			<point x="81.2812" y="168.578" type="curve" smooth="yes"/>
			<point x="38.8438" y="211" type="line" smooth="yes"/>
			<point x="36.0156" y="213.844"/>
			<point x="33.6719" y="217.188"/>
			<point x="32" y="221" type="curve" smooth="yes"/>
			<point x="16" y="259" type="line" smooth="yes"/>
			<point x="8" y="276"/>
			<point x="11" y="301"/>
			<point x="20.0156" y="316" type="curve" smooth="yes"/>
			<point x="74.5859" y="400.456"/>
			<point x="131.055" y="508.951"/>
			<point x="142" y="617" type="curve" smooth="yes"/>
			<point x="147" y="668"/>
			<point x="143" y="720"/>
			<point x="129" y="769" type="curve" smooth="yes"/>
			<point x="125" y="786"/>
			<point x="134" y="796"/>
			<point x="151" y="792" type="curve" smooth="yes"/>
			<point x="257" y="764" type="line" smooth="yes"/>
			<point x="262.406" y="762.406"/>
			<point x="267.094" y="759.516"/>
			<point x="270.859" y="755.75" type="curve" smooth="yes"/>
			<point x="313.281" y="713.312" type="line" smooth="yes"/>
			<point x="321.359" y="705.234"/>
			<point x="325.156" y="693.172"/>
			<point x="322.438" y="681.578" type="curve" smooth="yes"/>
			<point x="301.893" y="606.246"/>
			<point x="281.529" y="532.974"/>
			<point x="258.547" y="459.703" type="curve"/>
			<point x="263.922" y="466.547"/>
			<point x="271.812" y="471.469"/>
			<point x="281" y="473" type="curve" smooth="yes"/>
			<point x="359" y="484" type="line" smooth="yes"/>
			<point x="367.266" y="484.922"/>
			<point x="373.641" y="483.094"/>
			<point x="377.516" y="479.203" type="curve" smooth="yes"/>
			<point x="419.953" y="436.781" type="line" smooth="yes"/>
			<point x="424.531" y="432.203"/>
			<point x="425.672" y="424.766"/>
			<point x="422.438" y="415.578" type="curve" smooth="yes"/>
			<point x="413.328" y="389.422"/>
			<point x="405.531" y="362.609"/>
			<point x="399.375" y="335.516" type="curve"/>
			<point x="423.25" y="345.75"/>
			<point x="446.453" y="357.703"/>
			<point x="469" y="371" type="curve" smooth="yes"/>
			<point x="478.547" y="377.359"/>
			<point x="487.281" y="376.844"/>
			<point x="492.891" y="371.234" type="curve" smooth="yes"/>
			<point x="535.312" y="328.812" type="line" smooth="yes"/>
			<point x="538.516" y="325.609"/>
			<point x="540.703" y="320.75"/>
			<point x="541.422" y="314.578" type="curve" smooth="yes"/>
			<point x="547.438" y="236.578" type="line" smooth="yes"/>
			<point x="548.422" y="218.578"/>
			<point x="537.422" y="197.562"/>
			<point x="520.422" y="190.578" type="curve" smooth="yes"/>
			<point x="480.579" y="175.399"/>
			<point x="433.73" y="167.578"/>
			<point x="381.422" y="167.578" type="curve"/>
			<point x="381.422" y="112.578"/>
			<point x="388.438" y="57.5781"/>
			<point x="400.422" y="4.57812" type="curve" smooth="yes"/>
			<point x="404.438" y="-13.4219"/>
			<point x="394.422" y="-28.4219"/>
			<point x="376.422" y="-30.4219" type="curve" smooth="yes"/>
		</contour>
		<contour>
			<point x="189.999" y="290.75" type="curve"/>
			<point x="211.749" y="291.25"/>
			<point x="233.499" y="293"/>
			<point x="254.999" y="295.984" type="curve"/>
			<point x="255.999" y="342"/>
			<point x="253.999" y="389"/>
			<point x="250.999" y="436" type="curve"/>
			<point x="234.066" y="384.828"/>
			<point x="213.992" y="335.732"/>
		</contour>
		<contour>
			<point x="332.999" y="210" type="curve" smooth="yes"/>
			<point x="332.999" y="213.217"/>
			<point x="335.774" y="216.001"/>
			<point x="339.001" y="216.001" type="curve" smooth="yes"/>
			<point x="390.519" y="216.001"/>
			<point x="436.589" y="223.664"/>
			<point x="475.703" y="238.548" type="curve" smooth="yes"/>
			<point x="489.468" y="244.202"/>
			<point x="500.231" y="262.884"/>
			<point x="499.031" y="278.532" type="curve" smooth="yes"/>
			<point x="493.031" y="356.298" type="line" smooth="yes"/>
			<point x="491.678" y="368.092"/>
			<point x="485.514" y="373.784"/>
			<point x="472.047" y="365.829" type="curve" smooth="yes"/>
			<point x="432.703" y="342.626"/>
			<point x="391.281" y="323.423"/>
			<point x="347.75" y="310.251" type="curve" smooth="yes"/>
			<point x="343.659" y="309.033"/>
			<point x="339.515" y="312.591"/>
			<point x="340.062" y="316.751" type="curve" smooth="yes"/>
			<point x="346.109" y="365.235"/>
			<point x="358.219" y="413.642"/>
			<point x="374.344" y="459.985" type="curve" smooth="yes"/>
			<point x="379.185" y="473.801"/>
			<point x="372.93" y="479.904"/>
			<point x="359.844" y="478.064" type="curve" smooth="yes"/>
			<point x="281.984" y="467.08" type="line" smooth="yes"/>
			<point x="267.761" y="464.721"/>
			<point x="256.126" y="451.926"/>
			<point x="256.984" y="436.33" type="curve" smooth="yes"/>
			<point x="260" y="389.252"/>
			<point x="262" y="342.127"/>
			<point x="261" y="295.861" type="curve" smooth="yes"/>
			<point x="260.938" y="292.938"/>
			<point x="258.595" y="290.429"/>
			<point x="255.828" y="290.048" type="curve" smooth="yes"/>
			<point x="212.375" y="284.001"/>
			<point x="167.906" y="282.985"/>
			<point x="124.438" y="287.032" type="curve" smooth="yes"/>
			<point x="120.473" y="287.401"/>
			<point x="117.515" y="292.104"/>
			<point x="119.812" y="296.032" type="curve" smooth="yes"/>
			<point x="139.734" y="329.892"/>
			<point x="157.609" y="363.642"/>
			<point x="172.469" y="399.313" type="curve" smooth="yes"/>
			<point x="206.625" y="479.032"/>
			<point x="229.047" y="566.47"/>
			<point x="252.641" y="648.938" type="curve" smooth="yes"/>
			<point x="259.891" y="674.313"/>
			<point x="267.203" y="699.86"/>
			<point x="274.172" y="725.376" type="curve" smooth="yes"/>
			<point x="277.529" y="739.68"/>
			<point x="268.294" y="754.814"/>
			<point x="255.469" y="758.204" type="curve" smooth="yes"/>
			<point x="149.609" y="786.157" type="line" smooth="yes"/>
			<point x="136.578" y="789.222"/>
			<point x="131.823" y="783.693"/>
			<point x="134.766" y="770.657" type="curve" smooth="yes"/>
			<point x="180.433" y="610.947"/>
			<point x="120.737" y="478.4"/>
			<point x="56.2344" y="364.047" type="curve" smooth="yes"/>
			<point x="46.5781" y="346.922"/>
			<point x="36.2031" y="330"/>
			<point x="25.1562" y="312.906" type="curve" smooth="yes"/>
			<point x="16.6709" y="298.798"/>
			<point x="15.373" y="276.724"/>
			<point x="21.5312" y="261.329" type="curve" smooth="yes"/>
			<point x="37.5312" y="223.345" type="line" smooth="yes"/>
			<point x="42.8281" y="211.229"/>
			<point x="58.4414" y="203.445"/>
			<point x="73.1875" y="207.72" type="curve" smooth="yes"/>
			<point x="92.6094" y="213.86"/>
			<point x="112.891" y="217.892"/>
			<point x="132.062" y="220.938" type="curve" smooth="yes"/>
			<point x="132.125" y="220.938"/>
			<point x="132.188" y="220.954"/>
			<point x="132.25" y="220.954" type="curve" smooth="yes"/>
			<point x="172.938" y="226.032"/>
			<point x="213.359" y="223.985"/>
			<point x="253.453" y="220.97" type="curve" smooth="yes"/>
			<point x="256.601" y="220.755"/>
			<point x="259.197" y="217.85"/>
			<point x="258.984" y="214.595" type="curve" smooth="yes"/>
			<point x="254.984" y="153.485"/>
			<point x="248.969" y="92.3135"/>
			<point x="239.938" y="31.1104" type="curve" smooth="yes"/>
			<point x="237.52" y="16.6299"/>
			<point x="246.036" y="8.38086"/>
			<point x="260.328" y="9.96875" type="curve" smooth="yes"/>
			<point x="333.344" y="17.9688" type="line" smooth="yes"/>
			<point x="347.092" y="19.4961"/>
			<point x="355.587" y="30.2158"/>
			<point x="352.14" y="45.6875" type="curve" smooth="yes"/>
			<point x="340.062" y="99.0625"/>
			<point x="332.999" y="154.484"/>
		</contour>
	</outline>
</glyph>
<glyph name="five" format="2">
  <advance width="491"/>
  <unicode hex="0035"/>
  <outline>
    <contour>
      <point x="174.203" y="461.234" type="curve"/>
      <point x="199.312" y="477.213"/>
      <point x="232.875" y="489.019"/>
      <point x="265" y="489.001" type="curve" smooth="yes"/>
      <point x="311.808" y="489.026"/>
      <point x="353.826" y="465.424"/>
      <point x="379.858" y="439.392" type="curve" smooth="yes"/>
      <point x="422.28" y="396.97" type="line" smooth="yes"/>
      <point x="432.421" y="386.845"/>
      <point x="441.421" y="375.579"/>
      <point x="449.421" y="363.579" type="curve" smooth="yes"/>
      <point x="505.213" y="277.191"/>
      <point x="493.451" y="151.021"/>
      <point x="445.421" y="69.5791" type="curve" smooth="yes"/>
      <point x="422.421" y="30.5791"/>
      <point x="388.421" y="-2.43652"/>
      <point x="348.421" y="-22.4209" type="curve" smooth="yes"/>
      <point x="290.421" y="-51.4209"/>
      <point x="220.437" y="-52.4209"/>
      <point x="158.421" y="-33.4209" type="curve" smooth="yes"/>
      <point x="123.437" y="-22.4209"/>
      <point x="90.4365" y="-5.4209"/>
      <point x="60.4365" y="16.5791" type="curve"/>
      <point x="18.0146" y="59.001" type="line" smooth="yes"/>
      <point x="12.291" y="62.8164"/>
      <point x="9.94727" y="71.8076"/>
      <point x="12" y="79" type="curve" smooth="yes"/>
      <point x="45" y="179" type="line" smooth="yes"/>
      <point x="48.3418" y="186.798"/>
      <point x="52.5088" y="184.982"/>
      <point x="55" y="180" type="curve" smooth="yes"/>
      <point x="81.7393" y="130.987"/>
      <point x="137.377" y="85.168"/>
      <point x="211" y="88" type="curve" smooth="yes"/>
      <point x="278.103" y="88"/>
      <point x="326.894" y="130.292"/>
      <point x="348" y="179" type="curve" smooth="yes"/>
      <point x="369.553" y="227.079"/>
      <point x="360.975" y="283.569"/>
      <point x="338.062" y="320.156" type="curve"/>
      <point x="292.267" y="347.543"/>
      <point x="238.745" y="340.267"/>
      <point x="202.438" y="307.562" type="curve" smooth="yes"/>
      <point x="186.422" y="292.577"/>
      <point x="175.422" y="272.562"/>
      <point x="170.422" y="250.562" type="curve" smooth="yes"/>
      <point x="169.422" y="243.577"/>
      <point x="164.422" y="240.577"/>
      <point x="158.422" y="244.577" type="curve" smooth="yes"/>
      <point x="80.4375" y="294.577" type="line"/>
      <point x="38" y="336.999" type="line" smooth="yes"/>
      <point x="32.2539" y="340.906"/>
      <point x="28.9854" y="349.822"/>
      <point x="30" y="356.999" type="curve" smooth="yes"/>
      <point x="48.2793" y="452.967"/>
      <point x="58.2656" y="562.748"/>
      <point x="60" y="671.999" type="curve" smooth="yes"/>
      <point x="60" y="679.999"/>
      <point x="67" y="685.015"/>
      <point x="75" y="682.999" type="curve" smooth="yes"/>
      <point x="194.24" y="653.189"/>
      <point x="311.949" y="662.363"/>
      <point x="418" y="698.999" type="curve" smooth="yes"/>
      <point x="425.137" y="702.065"/>
      <point x="431" y="697.823"/>
      <point x="431" y="691" type="curve"/>
      <point x="473.438" y="648.578" type="line"/>
      <point x="485.422" y="550.578" type="line" smooth="yes"/>
      <point x="486.422" y="543.562"/>
      <point x="481.422" y="536.578"/>
      <point x="474.422" y="535.562" type="curve" smooth="yes"/>
      <point x="385.446" y="519.627"/>
      <point x="283.794" y="526.284"/>
      <point x="209.422" y="548.578" type="curve"/>
      <point x="194.078" y="520.797"/>
      <point x="182.469" y="491.422"/>
    </contour>
    <contour>
      <point x="314" y="349.001" type="curve"/>
      <point x="318.625" y="344.595" type="line"/>
      <point x="317.109" y="346.095"/>
      <point x="315.578" y="347.563"/>
    </contour>
    <contour>
      <point x="118.266" y="294.048" type="line"/>
      <point x="129.271" y="346.438"/>
      <point x="174.666" y="387.836"/>
      <point x="232.627" y="389.986" type="curve" smooth="yes"/>
      <point x="233.002" y="389.986" type="line" smooth="yes"/>
      <point x="266.58" y="390.002"/>
      <point x="299.564" y="377.783"/>
      <point x="325.689" y="351.674" type="curve" smooth="yes"/>
      <point x="364.671" y="312.692"/>
      <point x="386.861" y="241.363"/>
      <point x="357.174" y="175.018" type="curve" smooth="yes"/>
      <point x="343.298" y="142.991"/>
      <point x="319.69" y="116.361"/>
      <point x="290.08" y="99.3916" type="curve" smooth="yes"/>
      <point x="242.143" y="71.0479"/>
      <point x="179.908" y="71.9072"/>
      <point x="131.674" y="94.9854" type="curve" smooth="yes"/>
      <point x="96.3486" y="111.605"/>
      <point x="63.5107" y="140.572"/>
      <point x="46.0488" y="175.531" type="curve" smooth="yes"/>
      <point x="45.9707" y="175.719"/>
      <point x="45.9082" y="175.891"/>
      <point x="45.8457" y="175.984" type="curve"/>
      <point x="54.6113" y="176.016" type="line"/>
      <point x="54.5801" y="175.969"/>
      <point x="54.5332" y="175.922"/>
      <point x="54.502" y="175.859" type="curve" smooth="yes"/>
      <point x="21.6113" y="76.2344" type="line" smooth="yes"/>
      <point x="20.4971" y="72.3525"/>
      <point x="22.1553" y="68.415"/>
      <point x="23.9238" y="67.0625" type="curve" smooth="yes"/>
      <point x="53.0801" y="45.6875"/>
      <point x="85.1113" y="29.1875"/>
      <point x="119.002" y="18.5469" type="curve" smooth="yes"/>
      <point x="179.002" y="0.15625"/>
      <point x="246.314" y="1.34375"/>
      <point x="301.533" y="28.9375" type="curve" smooth="yes"/>
      <point x="375.11" y="65.7539"/>
      <point x="423.414" y="144.369"/>
      <point x="432.033" y="241.891" type="curve" smooth="yes"/>
      <point x="436.908" y="297.266"/>
      <point x="428.033" y="354.938"/>
      <point x="398.674" y="400.453" type="curve" smooth="yes"/>
      <point x="372.226" y="440.125"/>
      <point x="327.371" y="479.036"/>
      <point x="265.002" y="479" type="curve" smooth="yes"/>
      <point x="211.783" y="479.031"/>
      <point x="168" y="448.999"/>
      <point x="138.563" y="419.532" type="curve" smooth="yes"/>
      <point x="134.345" y="415.327"/>
      <point x="120.967" y="392.91"/>
      <point x="109.938" y="403.938" type="curve" smooth="yes"/>
      <point x="107.86" y="406.017"/>
      <point x="106.876" y="408.782"/>
      <point x="107.017" y="411.501" type="curve" smooth="yes"/>
      <point x="110.017" y="471.767"/>
      <point x="126.282" y="538.032"/>
      <point x="158.251" y="595.829" type="curve" smooth="yes"/>
      <point x="160.327" y="599.684"/>
      <point x="165.367" y="601.923"/>
      <point x="169.877" y="600.578" type="curve" smooth="yes"/>
      <point x="242.719" y="578.72"/>
      <point x="343.065" y="572.227"/>
      <point x="430.221" y="587.828" type="curve" smooth="yes"/>
      <point x="431.843" y="588.127"/>
      <point x="433.305" y="589.864"/>
      <point x="433.11" y="591.578" type="curve" smooth="yes"/>
      <point x="421.079" y="689.781" type="line" smooth="yes"/>
      <point x="421.047" y="690.058"/>
      <point x="421.403" y="690.334"/>
      <point x="421.391" y="690.61" type="curve"/>
      <point x="422.547" y="690.032" type="line"/>
      <point x="422.516" y="690.063"/>
      <point x="421.5" y="689.642"/>
      <point x="421.281" y="689.563" type="curve" smooth="yes"/>
      <point x="365.453" y="670.282"/>
      <point x="306.547" y="658.079"/>
      <point x="247.531" y="655.001" type="curve" smooth="yes"/>
      <point x="247.344" y="655.001" type="line" smooth="yes"/>
      <point x="188.422" y="652.985"/>
      <point x="129.484" y="659.079"/>
      <point x="72.5625" y="673.298" type="curve" smooth="yes"/>
      <point x="70.3057" y="673.867"/>
      <point x="70.0332" y="673.327"/>
      <point x="70" y="671.845" type="curve" smooth="yes"/>
      <point x="69" y="609.517"/>
      <point x="64.9688" y="546.251"/>
      <point x="58.9531" y="484.032" type="curve" smooth="yes"/>
      <point x="58.9375" y="483.97"/>
      <point x="58.9375" y="483.907"/>
      <point x="58.9375" y="483.845" type="curve" smooth="yes"/>
      <point x="53.9375" y="440.829"/>
      <point x="47.9062" y="397.751"/>
      <point x="39.9062" y="355.563" type="curve" smooth="yes"/>
      <point x="39.4629" y="352.555"/>
      <point x="41.0869" y="346.775"/>
      <point x="43.4062" y="345.423" type="curve" smooth="yes"/>
      <point x="121.547" y="295.329" type="line" smooth="yes"/>
      <point x="121.688" y="295.235"/>
      <point x="121.797" y="295.173"/>
      <point x="121.859" y="295.142" type="curve"/>
    </contour>
  </outline>
</glyph>
<glyph name="six" format="2">
	<unicode hex="0036"/>
	<advance width="508"/>
	<outline>
		<contour>
			<point x="127" y="172" type="line"/>
			<point x="149.65" y="137.064"/>
			<point x="193.658" y="104.735"/>
			<point x="247.999" y="107" type="curve" smooth="yes"/>
			<point x="308.033" y="109.145"/>
			<point x="356.269" y="155.48"/>
			<point x="365.999" y="210" type="curve" smooth="yes"/>
			<point x="371.921" y="238.625"/>
			<point x="367.124" y="269.188"/>
			<point x="351.624" y="294.984" type="curve"/>
			<point x="319.337" y="314.012"/>
			<point x="275.179" y="314.159"/>
			<point x="237.438" y="294.578" type="curve" smooth="yes"/>
			<point x="193.816" y="272.768"/>
			<point x="158.072" y="224.066"/>
			<point x="148.422" y="168.578" type="curve"/>
			<point x="153.422" y="154.562"/>
			<point x="160.422" y="141.578"/>
			<point x="169.438" y="129.562" type="curve"/>
		</contour>
		<contour>
			<point x="410.421" y="7.56152" type="curve" smooth="yes"/>
			<point x="374.037" y="-27.167"/>
			<point x="314.646" y="-57.3584"/>
			<point x="245.421" y="-45.4229" type="curve" smooth="yes"/>
			<point x="203.858" y="-38.751"/>
			<point x="166.687" y="-17.1885"/>
			<point x="137.202" y="12.2959" type="curve" smooth="yes"/>
			<point x="94.7803" y="54.7178" type="line" smooth="yes"/>
			<point x="84.5459" y="64.9521"/>
			<point x="75.249" y="76.1396"/>
			<point x="66.999" y="87.9834" type="curve" smooth="yes"/>
			<point x="16.999" y="156.999"/>
			<point x="1.99902" y="245.999"/>
			<point x="7.99902" y="329.999" type="curve" smooth="yes"/>
			<point x="15.999" y="446.999"/>
			<point x="59.999" y="559.999"/>
			<point x="126.999" y="654.999" type="curve" smooth="yes"/>
			<point x="160.999" y="702.999"/>
			<point x="200.999" y="746.999"/>
			<point x="244.999" y="785.999" type="curve" smooth="yes"/>
			<point x="254.999" y="793.999"/>
			<point x="270.999" y="793.999"/>
			<point x="280.999" y="786.999" type="curve" smooth="yes"/>
			<point x="383.999" y="712.999" type="line" smooth="yes"/>
			<point x="385.108" y="712.233"/>
			<point x="386.077" y="711.421"/>
			<point x="386.921" y="710.577" type="curve" smooth="yes"/>
			<point x="429.343" y="668.155" type="line" smooth="yes"/>
			<point x="436.077" y="661.421"/>
			<point x="434.202" y="653.015"/>
			<point x="424.421" y="648.577" type="curve" smooth="yes"/>
			<point x="328.647" y="606.324"/>
			<point x="249.232" y="535.981"/>
			<point x="196.53" y="450.624" type="curve"/>
			<point x="230.118" y="466.268"/>
			<point x="280.063" y="474.311"/>
			<point x="322.999" y="459.999" type="curve" smooth="yes"/>
			<point x="349.437" y="452.062"/>
			<point x="372.812" y="437.14"/>
			<point x="392.062" y="417.874" type="curve" smooth="yes"/>
			<point x="434.499" y="375.452" type="line" smooth="yes"/>
			<point x="451.64" y="358.296"/>
			<point x="465.53" y="337.718"/>
			<point x="475.437" y="315.577" type="curve" smooth="yes"/>
			<point x="496.421" y="268.577"/>
			<point x="500.421" y="214.577"/>
			<point x="491.421" y="163.577" type="curve" smooth="yes"/>
			<point x="481.421" y="104.577"/>
			<point x="454.421" y="47.5771"/>
		</contour>
		<contour>
			<point x="387.827" y="413.64" type="curve" smooth="yes"/>
			<point x="322.127" y="479.285"/>
			<point x="215.537" y="479.037"/>
			<point x="137.25" y="400.75" type="curve" smooth="yes"/>
			<point x="124.688" y="388.188"/>
			<point x="113.938" y="373.578"/>
			<point x="104.078" y="357.812" type="curve" smooth="yes"/>
			<point x="100.753" y="352.492"/>
			<point x="91.8506" y="355.788"/>
			<point x="93.1094" y="362.187" type="curve" smooth="yes"/>
			<point x="98.2344" y="387.749"/>
			<point x="107.391" y="414.14"/>
			<point x="118.547" y="438.515" type="curve" smooth="yes"/>
			<point x="169.293" y="553.039"/>
			<point x="263.707" y="645.39"/>
			<point x="379.562" y="696.483" type="curve" smooth="yes"/>
			<point x="385.33" y="699.114"/>
			<point x="386.853" y="703.55"/>
			<point x="380.562" y="708.093" type="curve" smooth="yes"/>
			<point x="277.5" y="782.124" type="line" smooth="yes"/>
			<point x="269.781" y="787.515"/>
			<point x="256.734" y="787.499"/>
			<point x="248.984" y="781.515" type="curve" smooth="yes"/>
			<point x="205.48" y="742.959"/>
			<point x="165.635" y="699.156"/>
			<point x="131.89" y="651.53" type="curve" smooth="yes"/>
			<point x="65.4678" y="557.327"/>
			<point x="21.9053" y="445.343"/>
			<point x="13.9834" y="329.593" type="curve" smooth="yes"/>
			<point x="8.0459" y="246.53"/>
			<point x="22.9678" y="158.983"/>
			<point x="71.8584" y="91.499" type="curve" smooth="yes"/>
			<point x="114.734" y="32.3438"/>
			<point x="190.115" y="-22.0234"/>
			<point x="288.969" y="9.65527" type="curve" smooth="yes"/>
			<point x="371.869" y="39.2119"/>
			<point x="427.702" y="116.41"/>
			<point x="443.093" y="207.015" type="curve" smooth="yes"/>
			<point x="451.905" y="257.015"/>
			<point x="447.937" y="309.858"/>
			<point x="427.53" y="355.562" type="curve" smooth="yes"/>
			<point x="417.921" y="377.062"/>
			<point x="404.421" y="397.046"/>
		</contour>
		<contour>
			<point x="248.25" y="101" type="curve" smooth="yes"/>
			<point x="191.672" y="98.6406"/>
			<point x="145.858" y="132.164"/>
			<point x="122.204" y="168.391" type="curve" smooth="yes"/>
			<point x="112.845" y="180.875"/>
			<point x="105.548" y="194.406"/>
			<point x="100.345" y="208.984" type="curve" smooth="yes"/>
			<point x="100.001" y="209.969"/>
			<point x="99.9072" y="211.016"/>
			<point x="100.095" y="212.031" type="curve" smooth="yes"/>
			<point x="110.076" y="269.587"/>
			<point x="146.288" y="319.347"/>
			<point x="192.251" y="342.328" type="curve" smooth="yes"/>
			<point x="220.345" y="356.906"/>
			<point x="252.813" y="362.219"/>
			<point x="283.423" y="354.828" type="curve" smooth="yes"/>
			<point x="339.247" y="341.374"/>
			<point x="386.133" y="278.22"/>
			<point x="371.906" y="208.938" type="curve" smooth="yes"/>
			<point x="361.479" y="150.541"/>
			<point x="308.593" y="103.176"/>
		</contour>
	</outline>
</glyph>
<glyph name="seven" format="2">
	<unicode hex="0037"/>
	<advance width="444"/>
	<outline>
		<contour>
			<point x="449.422" y="650.578" type="line"/>
			<point x="426.64" y="569.966"/>
			<point x="400.29" y="489.529"/>
			<point x="376.202" y="410.86" type="curve" smooth="yes"/>
			<point x="378.454" y="408.984"/>
			<point x="380.057" y="406.326"/>
			<point x="380.999" y="403.001" type="curve" smooth="yes"/>
			<point x="423.421" y="360.579" type="line"/>
			<point x="436.421" y="312.579" type="line" smooth="yes"/>
			<point x="437.437" y="310.579"/>
			<point x="436.421" y="307.579"/>
			<point x="435.437" y="304.579" type="curve"/>
			<point x="392.999" y="347.001" type="line" smooth="yes"/>
			<point x="390.999" y="345.001"/>
			<point x="388.999" y="343.001"/>
			<point x="385.999" y="343.001" type="curve"/>
			<point x="428.437" y="300.579" type="line"/>
			<point x="345.437" y="288.579" type="line"/>
			<point x="302.999" y="331.001" type="line"/>
			<point x="302.999" y="330.001"/>
			<point x="301.999" y="328.017"/>
			<point x="301.999" y="326.001" type="curve" smooth="yes"/>
			<point x="344.421" y="283.579" type="line"/>
			<point x="327.421" y="187.579"/>
			<point x="328.421" y="88.5791"/>
			<point x="348.421" y="-6.43652" type="curve" smooth="yes"/>
			<point x="350.421" y="-15.4365"/>
			<point x="344.421" y="-23.4209"/>
			<point x="335.421" y="-24.4209" type="curve" smooth="yes"/>
			<point x="219.437" y="-40.4209" type="line" smooth="yes"/>
			<point x="215.03" y="-40.9209"/>
			<point x="211.358" y="-39.7334"/>
			<point x="208.968" y="-37.3584" type="curve" smooth="yes"/>
			<point x="166.546" y="5.0791" type="line" smooth="yes"/>
			<point x="164.046" y="7.5791"/>
			<point x="162.968" y="11.3916"/>
			<point x="163.999" y="16.001" type="curve" smooth="yes"/>
			<point x="179.812" y="101.735"/>
			<point x="196.312" y="187.454"/>
			<point x="212.937" y="270.298" type="curve"/>
			<point x="200.421" y="268.563" type="line"/>
			<point x="157.999" y="311.001" type="line"/>
			<point x="149.879" y="311.001"/>
			<point x="148.086" y="314.771"/>
			<point x="145.999" y="321.001" type="curve" smooth="yes"/>
			<point x="140.999" y="397.001" type="line" smooth="yes"/>
			<point x="140.999" y="401.788"/>
			<point x="145.047" y="408.017"/>
			<point x="150.999" y="407.985" type="curve" smooth="yes"/>
			<point x="241.999" y="410.001" type="line"/>
			<point x="253.567" y="470.394"/>
			<point x="266.825" y="528.842"/>
			<point x="279.218" y="588.47" type="curve"/>
			<point x="201.428" y="593.908"/>
			<point x="144.021" y="556.212"/>
			<point x="109.422" y="509.578" type="curve" smooth="yes"/>
			<point x="105.734" y="504.406"/>
			<point x="101.484" y="503.594"/>
			<point x="98.3125" y="506.766" type="curve" smooth="yes"/>
			<point x="55.875" y="549.188" type="line" smooth="yes"/>
			<point x="54.7656" y="550.312"/>
			<point x="53.7812" y="551.922"/>
			<point x="53" y="554" type="curve" smooth="yes"/>
			<point x="18.0156" y="659" type="line" smooth="yes"/>
			<point x="15" y="667"/>
			<point x="20" y="676"/>
			<point x="28" y="678" type="curve" smooth="yes"/>
			<point x="60" y="685"/>
			<point x="93" y="691"/>
			<point x="125" y="696" type="curve" smooth="yes"/>
			<point x="217" y="709"/>
			<point x="310" y="711"/>
			<point x="402" y="701" type="curve" smooth="yes"/>
			<point x="405.54" y="700.115"/>
			<point x="408.09" y="697.359"/>
			<point x="407" y="693" type="curve" smooth="yes"/>
		</contour>
		<contour>
			<point x="150.984" y="401.985" type="line" smooth="yes"/>
			<point x="147.983" y="402.032"/>
			<point x="147.085" y="397.903"/>
			<point x="147.002" y="397.091" type="curve" smooth="yes"/>
			<point x="151.689" y="322.919" type="line" smooth="yes"/>
			<point x="153.435" y="317.655"/>
			<point x="152.189" y="316.997"/>
			<point x="158.017" y="316.997" type="curve" smooth="yes"/>
			<point x="222.157" y="325.935" type="line" smooth="yes"/>
			<point x="226.142" y="326.484"/>
			<point x="229.691" y="322.773"/>
			<point x="228.876" y="318.795" type="curve" smooth="yes"/>
			<point x="208.876" y="220.826"/>
			<point x="188.892" y="117.873"/>
			<point x="169.907" y="14.9043" type="curve" smooth="yes"/>
			<point x="168.934" y="9.60645"/>
			<point x="170.951" y="7.22461"/>
			<point x="176.188" y="7.93652" type="curve" smooth="yes"/>
			<point x="292.328" y="23.9678" type="line" smooth="yes"/>
			<point x="297.603" y="24.5264"/>
			<point x="301.434" y="28.9189"/>
			<point x="300.14" y="34.6855" type="curve" smooth="yes"/>
			<point x="280.03" y="130.154"/>
			<point x="279.046" y="229.561"/>
			<point x="295.999" y="325.998" type="curve" smooth="yes"/>
			<point x="295.999" y="331.327"/>
			<point x="297.491" y="336.289"/>
			<point x="302.14" y="336.937" type="curve" smooth="yes"/>
			<point x="385.14" y="348.937" type="line" smooth="yes"/>
			<point x="386.515" y="349.14"/>
			<point x="385.796" y="348.28"/>
			<point x="388.765" y="351.249" type="curve"/>
			<point x="387.343" y="348.968" type="line"/>
			<point x="388.155" y="351.437"/>
			<point x="388.468" y="352.452"/>
			<point x="388.218" y="353.421" type="curve" smooth="yes"/>
			<point x="375.202" y="401.437" type="line" smooth="yes"/>
			<point x="374.072" y="405.42"/>
			<point x="371.855" y="408.111"/>
			<point x="366.999" y="408" type="curve" smooth="yes"/>
			<point x="322.14" y="407" type="line" smooth="yes"/>
			<point x="318.267" y="406.924"/>
			<point x="315.141" y="410.764"/>
			<point x="316.218" y="414.594" type="curve" smooth="yes"/>
			<point x="329.28" y="461.828"/>
			<point x="345.249" y="508.734"/>
			<point x="360.28" y="555.828" type="curve" smooth="yes"/>
			<point x="374.262" y="601.74"/>
			<point x="389.81" y="648.648"/>
			<point x="401.358" y="694.844" type="curve" smooth="yes"/>
			<point x="401.343" y="694.859"/>
			<point x="401.421" y="695"/>
			<point x="401.343" y="695.031" type="curve" smooth="yes"/>
			<point x="309.874" y="704.969"/>
			<point x="217.374" y="702.984"/>
			<point x="125.843" y="690.047" type="curve" smooth="yes"/>
			<point x="94.0146" y="685.078"/>
			<point x="61.2803" y="679.141"/>
			<point x="29.4678" y="672.188" type="curve" smooth="yes"/>
			<point x="25.0645" y="671.111"/>
			<point x="22.0361" y="665.864"/>
			<point x="23.624" y="661.125" type="curve" smooth="yes"/>
			<point x="58.624" y="556.109" type="line" smooth="yes"/>
			<point x="59.1709" y="554.625"/>
			<point x="59.8115" y="553.75"/>
			<point x="60.124" y="553.438" type="curve" smooth="yes"/>
			<point x="60.8115" y="553.875"/>
			<point x="61.5566" y="554.729"/>
			<point x="62.1709" y="555.578" type="curve" smooth="yes"/>
			<point x="102.649" y="610.149"/>
			<point x="188.847" y="660.513"/>
			<point x="287.953" y="626.672" type="curve" smooth="yes"/>
			<point x="290.573" y="625.782"/>
			<point x="292.514" y="622.763"/>
			<point x="291.875" y="619.766" type="curve" smooth="yes"/>
			<point x="276.875" y="547.766" type="line" smooth="yes"/>
			<point x="266.875" y="501.781"/>
			<point x="256.875" y="455.75"/>
			<point x="247.891" y="408.859" type="curve" smooth="yes"/>
			<point x="247.392" y="406.258"/>
			<point x="244.959" y="404.06"/>
			<point x="242.125" y="404.001" type="curve" smooth="yes"/>
		</contour>
	</outline>
</glyph>
<glyph name="eight" format="2">
  <advance width="494"/>
  <unicode hex="0038"/>
  <outline>
    <contour>
      <point x="312.594" y="248.406" type="line"/>
      <point x="307.915" y="254.076"/>
      <point x="302.714" y="259.328"/>
      <point x="297" y="264" type="curve"/>
    </contour>
    <contour>
      <point x="330.657" y="217.562" type="curve"/>
      <point x="318.235" y="223.828"/>
      <point x="305.359" y="228.906"/>
      <point x="292.703" y="233.297" type="curve"/>
      <point x="222" y="304" type="line" smooth="yes"/>
      <point x="219" y="306"/>
      <point x="216" y="307"/>
      <point x="213" y="308" type="curve" smooth="yes"/>
      <point x="211" y="307" type="line"/>
      <point x="281.719" y="236.281" type="line"/>
      <point x="242.649" y="218.26"/>
      <point x="203.074" y="195.052"/>
      <point x="184.704" y="155.297" type="curve" smooth="yes"/>
      <point x="178.704" y="142.297"/>
      <point x="174.72" y="128.281"/>
      <point x="175.72" y="113.297" type="curve" smooth="yes"/>
      <point x="175.72" y="107.719"/>
      <point x="176.501" y="102.141"/>
      <point x="177.892" y="96.6406" type="curve"/>
      <point x="241.681" y="76.8633"/>
      <point x="304.703" y="104.344"/>
      <point x="328.001" y="151" type="curve" smooth="yes"/>
      <point x="334.001" y="164"/>
      <point x="337.001" y="177"/>
      <point x="336.001" y="191" type="curve" smooth="yes"/>
      <point x="336.001" y="199.938"/>
      <point x="333.954" y="208.891"/>
    </contour>
    <contour>
      <point x="151.688" y="108.312" type="curve"/>
      <point x="117" y="143" type="line"/>
      <point x="125.335" y="128.725"/>
      <point x="137.434" y="116.934"/>
    </contour>
    <contour>
      <point x="301.766" y="573.234" type="line"/>
      <point x="296.802" y="579.415"/>
      <point x="291.203" y="585.05"/>
      <point x="285" y="590" type="curve"/>
    </contour>
    <contour>
      <point x="284.703" y="543.297" type="curve" smooth="yes"/>
      <point x="228.039" y="545.362"/>
      <point x="172.719" y="502.057"/>
      <point x="172.719" y="445.297" type="curve" smooth="yes"/>
      <point x="171.844" y="429.484"/>
      <point x="175.578" y="413.672"/>
      <point x="182.594" y="399.234" type="curve"/>
      <point x="191.562" y="393.844"/>
      <point x="200.781" y="388.828"/>
      <point x="210" y="384" type="curve"/>
      <point x="253.818" y="404.224"/>
      <point x="297.232" y="426.422"/>
      <point x="316" y="472" type="curve" smooth="yes"/>
      <point x="324.733" y="493.209"/>
      <point x="326.544" y="516.675"/>
      <point x="320.281" y="538" type="curve"/>
      <point x="308.922" y="541.531"/>
      <point x="296.922" y="543.297"/>
    </contour>
    <contour>
      <point x="121.281" y="333.72" type="curve"/>
      <point x="80.999" y="374.002" type="line" smooth="yes"/>
      <point x="47.082" y="407.919"/>
      <point x="28.1338" y="458.313"/>
      <point x="33" y="524.001" type="curve" smooth="yes"/>
      <point x="38" y="573.001"/>
      <point x="59" y="620.001"/>
      <point x="95" y="655.001" type="curve" smooth="yes"/>
      <point x="165.041" y="725.042"/>
      <point x="277.824" y="722.251"/>
      <point x="343" y="653.001" type="curve" smooth="yes"/>
      <point x="413.719" y="582.298" type="line" smooth="yes"/>
      <point x="466.2" y="526.138"/>
      <point x="479.81" y="435.792"/>
      <point x="439.703" y="360.297" type="curve" smooth="yes"/>
      <point x="423.203" y="328.25"/>
      <point x="399.156" y="300.922"/>
      <point x="369.391" y="281.047" type="curve"/>
      <point x="430.531" y="219.922" type="line" smooth="yes"/>
      <point x="457.359" y="193.078"/>
      <point x="478.281" y="159.219"/>
      <point x="483.703" y="121.297" type="curve" smooth="yes"/>
      <point x="499.895" y="33.3633"/>
      <point x="434.025" y="-38.0938"/>
      <point x="370.703" y="-62.7188" type="curve" smooth="yes"/>
      <point x="306.703" y="-89.7188"/>
      <point x="229.703" y="-82.7188"/>
      <point x="170.719" y="-45.7031" type="curve" smooth="yes"/>
      <point x="157.828" y="-37.5938"/>
      <point x="145.844" y="-28.1094"/>
      <point x="135.094" y="-17.375" type="curve" smooth="yes"/>
      <point x="64.3906" y="53.3438" type="line" smooth="yes"/>
      <point x="35.3682" y="82.3281"/>
      <point x="8.31641" y="130.534"/>
      <point x="15" y="184.001" type="curve" smooth="yes"/>
      <point x="23.2451" y="252.711"/>
      <point x="75.96" y="299.893"/>
    </contour>
    <contour>
      <point x="332.124" y="649.861" type="curve" smooth="yes"/>
      <point x="267.352" y="714.634"/>
      <point x="164.404" y="710.3"/>
      <point x="100.092" y="645.987" type="curve" smooth="yes"/>
      <point x="53.0186" y="598.914"/>
      <point x="27.7705" y="527.466"/>
      <point x="49.5439" y="445.956" type="curve" smooth="yes"/>
      <point x="63.4531" y="400.839"/>
      <point x="93.9561" y="369.175"/>
      <point x="134.467" y="348.956" type="curve" smooth="yes"/>
      <point x="140.569" y="345.904"/>
      <point x="142.043" y="336.295"/>
      <point x="135.686" y="331.783" type="curve" smooth="yes"/>
      <point x="123.29" y="323.197"/>
      <point x="112.46" y="312.087"/>
      <point x="99.6543" y="303.55" type="curve" smooth="yes"/>
      <point x="67.1611" y="274.404"/>
      <point x="31.1855" y="235.075"/>
      <point x="24.9355" y="182.815" type="curve" smooth="yes"/>
      <point x="16.3926" y="114.509"/>
      <point x="61.9023" y="60.7842"/>
      <point x="105.326" y="33.4717" type="curve" smooth="yes"/>
      <point x="161.592" y="-1.8252"/>
      <point x="235.248" y="-8.4502"/>
      <point x="296.092" y="17.2217" type="curve"/>
      <point x="355.183" y="36.9189"/>
      <point x="420.8" y="110.896"/>
      <point x="403.092" y="190.581" type="curve"/>
      <point x="393.439" y="258.209"/>
      <point x="333.51" y="306.206"/>
      <point x="282.076" y="335.3" type="curve" smooth="yes"/>
      <point x="277.095" y="338.146"/>
      <point x="274.906" y="346.046"/>
      <point x="279.921" y="351.08" type="curve" smooth="yes"/>
      <point x="283.015" y="354.174"/>
      <point x="287.077" y="356.158"/>
      <point x="290.593" y="358.424" type="curve" smooth="yes"/>
      <point x="340.643" y="390.703"/>
      <point x="388.462" y="456.988"/>
      <point x="382.03" y="536.189" type="curve" smooth="yes"/>
      <point x="382.03" y="536.314"/>
      <point x="382.015" y="536.424"/>
      <point x="382.015" y="536.533" type="curve" smooth="yes"/>
      <point x="380.062" y="578.502"/>
      <point x="362.796" y="619.189"/>
    </contour>
    <contour>
      <point x="91.998" y="516.018" type="curve" smooth="yes"/>
      <point x="91.998" y="579.302"/>
      <point x="152.084" y="626.079"/>
      <point x="213.998" y="624.002" type="curve" smooth="yes"/>
      <point x="274.262" y="624.002"/>
      <point x="324.188" y="581.965"/>
      <point x="332.857" y="527.658" type="curve" smooth="yes"/>
      <point x="338.545" y="493.674"/>
      <point x="326.717" y="455.424"/>
      <point x="295.123" y="423.83" type="curve" smooth="yes"/>
      <point x="270.951" y="399.658"/>
      <point x="241.717" y="387.627"/>
      <point x="214.201" y="374.908" type="curve" smooth="yes"/>
      <point x="211.389" y="373.627"/>
      <point x="208.107" y="373.689"/>
      <point x="205.357" y="375.143" type="curve" smooth="yes"/>
      <point x="180.029" y="388.408"/>
      <point x="155.951" y="401.174"/>
      <point x="133.092" y="424.033" type="curve" smooth="yes"/>
      <point x="104.092" y="453.033"/>
      <point x="90.4355" y="484.377"/>
    </contour>
    <contour>
      <point x="314.842" y="116.455" type="curve" smooth="yes"/>
      <point x="259.672" y="61.2852"/>
      <point x="143.417" y="72.7637"/>
      <point x="108.186" y="138.268" type="curve" smooth="yes"/>
      <point x="92.9023" y="166.684"/>
      <point x="90.9824" y="200.058"/>
      <point x="104.92" y="230.205" type="curve" smooth="yes"/>
      <point x="124.329" y="272.189"/>
      <point x="166.315" y="297.358"/>
      <point x="206.514" y="315.939" type="curve" smooth="yes"/>
      <point x="213.876" y="319.62"/>
      <point x="218.683" y="317.169"/>
      <point x="225.279" y="313.454" type="curve" smooth="yes"/>
      <point x="265.595" y="299.484"/>
      <point x="312.021" y="275.29"/>
      <point x="332.811" y="236.752" type="curve" smooth="yes"/>
      <point x="355.452" y="194.607"/>
      <point x="350.389" y="152.002"/>
    </contour>
  </outline>
</glyph>
<glyph name="nine" format="2">
	<unicode hex="0039"/>
	<advance width="461"/>
	<outline>
		<contour>
			<point x="306.422" y="539.156" type="curve"/>
			<point x="243.646" y="573.896"/>
			<point x="175.623" y="543.658"/>
			<point x="147.438" y="495.577" type="curve" smooth="yes"/>
			<point x="124.992" y="458.643"/>
			<point x="127.629" y="410.611"/>
			<point x="146.406" y="377.733" type="curve"/>
			<point x="169.171" y="364.986"/>
			<point x="202.371" y="359.205"/>
			<point x="234" y="367.999" type="curve" smooth="yes"/>
			<point x="271.373" y="380.457"/>
			<point x="303.029" y="409.092"/>
			<point x="315" y="447" type="curve" smooth="yes"/>
			<point x="327.021" y="479.63"/>
			<point x="320.129" y="515.051"/>
		</contour>
		<contour>
			<point x="431.438" y="253.577" type="curve" smooth="yes"/>
			<point x="408.438" y="147.577"/>
			<point x="367.438" y="46.5771"/>
			<point x="308.423" y="-44.4229" type="curve" smooth="yes"/>
			<point x="302.423" y="-53.4385"/>
			<point x="290.423" y="-54.4229"/>
			<point x="282.438" y="-48.4229" type="curve" smooth="yes"/>
			<point x="205.423" y="10.5771" type="line"/>
			<point x="163.001" y="52.999" type="line" smooth="yes"/>
			<point x="155.735" y="58.4482"/>
			<point x="154.502" y="68.6729"/>
			<point x="164" y="74.999" type="curve" smooth="yes"/>
			<point x="225.179" y="116.918"/>
			<point x="272.904" y="176.271"/>
			<point x="300.72" y="247.547" type="curve"/>
			<point x="247.287" y="218.365"/>
			<point x="184.466" y="219.582"/>
			<point x="135.438" y="251.578" type="curve"/>
			<point x="93.001" y="294" type="line"/>
			<point x="49.249" y="323.879"/>
			<point x="20.7832" y="373.615"/>
			<point x="10" y="434" type="curve" smooth="yes"/>
			<point x="0" y="499.984"/>
			<point x="15" y="570"/>
			<point x="54" y="625" type="curve" smooth="yes"/>
			<point x="83.4902" y="668.367"/>
			<point x="137.689" y="712.235"/>
			<point x="207.001" y="709.999" type="curve" smooth="yes"/>
			<point x="255.142" y="709.01"/>
			<point x="300.94" y="683.095"/>
			<point x="332" y="648.999" type="curve" smooth="yes"/>
			<point x="374.422" y="606.577" type="line" smooth="yes"/>
			<point x="406.438" y="570.562"/>
			<point x="426.438" y="525.577"/>
			<point x="436.422" y="478.562" type="curve" smooth="yes"/>
			<point x="452.422" y="404.562"/>
			<point x="446.422" y="327.562"/>
		</contour>
		<contour>
			<point x="302.61" y="545.39" type="line"/>
			<point x="294.128" y="558.344"/>
			<point x="283.048" y="569.64"/>
			<point x="270.001" y="577.999" type="curve"/>
		</contour>
		<contour>
			<point x="388.143" y="519.719" type="curve" smooth="yes"/>
			<point x="369.691" y="606.432"/>
			<point x="307.328" y="701.918"/>
			<point x="206.878" y="704" type="curve" smooth="yes"/>
			<point x="139.566" y="706.166"/>
			<point x="88.2627" y="662.95"/>
			<point x="58.9082" y="621.532" type="curve" smooth="yes"/>
			<point x="5.01758" y="545.532"/>
			<point x="-3.13867" y="438.86"/>
			<point x="43.1426" y="356.11" type="curve" smooth="yes"/>
			<point x="67.5859" y="315.956"/>
			<point x="110.664" y="277.164"/>
			<point x="169.221" y="275.001" type="curve" smooth="yes"/>
			<point x="169.424" y="275.001" type="line"/>
			<point x="231.284" y="270.672"/>
			<point x="288.822" y="310.08"/>
			<point x="319.111" y="352.47" type="curve" smooth="yes"/>
			<point x="322.582" y="357.387"/>
			<point x="330.492" y="354.18"/>
			<point x="329.971" y="348.438" type="curve" smooth="yes"/>
			<point x="318.545" y="222.445"/>
			<point x="251.563" y="127.737"/>
			<point x="167.393" y="70.0479" type="curve" smooth="yes"/>
			<point x="162.676" y="66.9346"/>
			<point x="161.569" y="61.7832"/>
			<point x="166.596" y="57.7969" type="curve" smooth="yes"/>
			<point x="243.658" y="-1.23438" type="line" smooth="yes"/>
			<point x="249.589" y="-5.69141"/>
			<point x="257.612" y="-3.81445"/>
			<point x="261.002" y="1.32812" type="curve" smooth="yes"/>
			<point x="319.596" y="91.7031"/>
			<point x="360.283" y="191.953"/>
			<point x="383.143" y="297.281" type="curve" smooth="yes"/>
			<point x="398.049" y="370.797"/>
			<point x="403.893" y="446.875"/>
		</contour>
		<contour>
			<point x="292.065" y="567.859" type="curve" smooth="yes"/>
			<point x="344.762" y="515.163"/>
			<point x="332.661" y="437.829"/>
			<point x="292.176" y="397.344" type="curve" smooth="yes"/>
			<point x="265.972" y="371.14"/>
			<point x="228.472" y="349.187"/>
			<point x="176.77" y="360.142" type="curve" smooth="yes"/>
			<point x="108.859" y="374.416"/>
			<point x="51.4775" y="461.493"/>
			<point x="99.832" y="541.031" type="curve" smooth="yes"/>
			<point x="105.223" y="550.234"/>
			<point x="111.77" y="558.672"/>
			<point x="119.254" y="566.156" type="curve" smooth="yes"/>
			<point x="171.855" y="618.758"/>
			<point x="252.013" y="607.912"/>
		</contour>
	</outline>
</glyph>
<glyph name="colon" format="2">
	<unicode hex="003A"/>
	<advance width="261"/>
	<outline>
		<contour>
			<point x="49" y="224.016" type="line" smooth="yes"/>
			<point x="49" y="230.93"/>
			<point x="55.374" y="236.966"/>
			<point x="62" y="237" type="curve" smooth="yes"/>
			<point x="146" y="231" type="line" smooth="yes"/>
			<point x="149.75" y="231"/>
			<point x="153.062" y="229.469"/>
			<point x="155.422" y="227.109" type="curve" smooth="yes"/>
			<point x="197.844" y="184.672" type="line" smooth="yes"/>
			<point x="200.516" y="182"/>
			<point x="201.953" y="178.297"/>
			<point x="201.422" y="174.578" type="curve" smooth="yes"/>
			<point x="199.422" y="99.5625" type="line" smooth="yes"/>
			<point x="199.422" y="92.5625"/>
			<point x="193.422" y="86.5625"/>
			<point x="185.422" y="86.5625" type="curve" smooth="yes"/>
			<point x="110.438" y="85.5781" type="line"/>
			<point x="68" y="128" type="line"/>
			<point x="60.7158" y="128"/>
			<point x="54" y="133.281"/>
			<point x="54" y="141" type="curve" smooth="yes"/>
		</contour>
		<contour>
			<point x="50" y="432" type="line" smooth="yes"/>
			<point x="50" y="439.446"/>
			<point x="55.1055" y="444"/>
			<point x="63" y="444" type="curve" smooth="yes"/>
			<point x="147" y="439" type="line" smooth="yes"/>
			<point x="154.07" y="437.98"/>
			<point x="160" y="431.943"/>
			<point x="160" y="424" type="curve"/>
			<point x="202.438" y="381.578" type="line"/>
			<point x="199.422" y="307.562" type="line" smooth="yes"/>
			<point x="199.422" y="299.562"/>
			<point x="193.422" y="293.578"/>
			<point x="186.422" y="293.578" type="curve" smooth="yes"/>
			<point x="111.422" y="292.578" type="line"/>
			<point x="69" y="335" type="line"/>
			<point x="61.4434" y="335"/>
			<point x="55" y="340.572"/>
			<point x="55" y="348" type="curve" smooth="yes"/>
		</contour>
		<contour>
			<point x="60.9844" y="348.359" type="line" smooth="yes"/>
			<point x="61.2354" y="344.193"/>
			<point x="64.2812" y="340.942"/>
			<point x="69" y="341" type="curve" smooth="yes"/>
			<point x="143.922" y="342" type="line" smooth="yes"/>
			<point x="148.133" y="342"/>
			<point x="150.813" y="345.646"/>
			<point x="151" y="350" type="curve" smooth="yes"/>
			<point x="154" y="424" type="line" smooth="yes"/>
			<point x="154" y="428.645"/>
			<point x="150.631" y="432.223"/>
			<point x="146.641" y="433" type="curve" smooth="yes"/>
			<point x="63" y="438" type="line" smooth="yes"/>
			<point x="60.0625" y="438"/>
			<point x="58.5" y="437.469"/>
			<point x="56.3281" y="436.016" type="curve"/>
			<point x="58" y="437.672" type="line"/>
			<point x="56.625" y="435.609"/>
			<point x="56.0625" y="433.891"/>
			<point x="56" y="432.359" type="curve" smooth="yes"/>
		</contour>
		<contour>
			<point x="62.0166" y="231" type="line" smooth="yes"/>
			<point x="57.6172" y="231"/>
			<point x="55.9385" y="227.646"/>
			<point x="54.9844" y="224.375" type="curve" smooth="yes"/>
			<point x="60" y="141.359" type="line" smooth="yes"/>
			<point x="60.2705" y="136.924"/>
			<point x="63.4668" y="133.938"/>
			<point x="68" y="134" type="curve" smooth="yes"/>
			<point x="142.922" y="134.984" type="line" smooth="yes"/>
			<point x="147.357" y="134.984"/>
			<point x="150.887" y="137.91"/>
			<point x="151" y="142" type="curve" smooth="yes"/>
			<point x="153" y="217.172" type="line" smooth="yes"/>
			<point x="153.148" y="221.722"/>
			<point x="150.246" y="224.682"/>
			<point x="145.563" y="225.016" type="curve" smooth="yes"/>
		</contour>
	</outline>
</glyph>
<glyph name="semicolon" format="2">
	<unicode hex="003B"/>
	<advance width="244"/>
	<outline>
		<contour>
			<point x="43" y="251" type="curve" smooth="yes"/>
			<point x="184.999" y="288.001" type="line" smooth="yes"/>
			<point x="190.559" y="288.919"/>
			<point x="195.999" y="285.463"/>
			<point x="195.999" y="280" type="curve" smooth="yes"/>
			<point x="238.421" y="237.562" type="line"/>
			<point x="241.421" y="176.562"/>
			<point x="226.421" y="114.578"/>
			<point x="197.421" y="60.5781" type="curve" smooth="yes"/>
			<point x="183.421" y="35.5781"/>
			<point x="166.437" y="12.5781"/>
			<point x="146.421" y="-8.4375" type="curve" smooth="yes"/>
			<point x="142.421" y="-12.4375"/>
			<point x="134.421" y="-15.4375"/>
			<point x="128.421" y="-15.4219" type="curve" smooth="yes"/>
			<point x="47.4365" y="-13.4219" type="line"/>
			<point x="4.99902" y="29" type="line"/>
			<point x="-1.14746" y="29"/>
			<point x="-1.89941" y="32.0957"/>
			<point x="2.99902" y="36" type="curve" smooth="yes"/>
			<point x="54.4727" y="84.042"/>
			<point x="76.3154" y="164.923"/>
			<point x="38" y="239" type="curve" smooth="yes"/>
			<point x="35" y="244"/>
			<point x="37" y="249"/>
		</contour>
		<contour>
			<point x="19.999" y="443.001" type="curve" smooth="yes"/>
			<point x="19.999" y="489.475"/>
			<point x="60.5127" y="530"/>
			<point x="106.999" y="530" type="curve" smooth="yes"/>
			<point x="129.999" y="530"/>
			<point x="151.999" y="520"/>
			<point x="167.999" y="504" type="curve" smooth="yes"/>
			<point x="210.421" y="461.578" type="line" smooth="yes"/>
			<point x="226.421" y="445.578"/>
			<point x="236.421" y="423.562"/>
			<point x="236.421" y="400.562" type="curve" smooth="yes"/>
			<point x="236.421" y="354.097"/>
			<point x="195.883" y="313.595"/>
			<point x="149.437" y="313.563" type="curve" smooth="yes"/>
			<point x="126.421" y="313.563"/>
			<point x="104.421" y="323.579"/>
			<point x="88.4209" y="339.579" type="curve" smooth="yes"/>
			<point x="45.999" y="382.001" type="line" smooth="yes"/>
			<point x="29.999" y="398.001"/>
			<point x="19.999" y="420.001"/>
		</contour>
		<contour>
			<point x="183.999" y="443" type="curve" smooth="yes"/>
			<point x="183.999" y="483.835"/>
			<point x="147.854" y="520"/>
			<point x="106.999" y="520" type="curve" smooth="yes"/>
			<point x="66.1475" y="520"/>
			<point x="29.999" y="483.858"/>
			<point x="29.999" y="443" type="curve" smooth="yes"/>
			<point x="29.999" y="402.148"/>
			<point x="66.1572" y="366"/>
			<point x="106.999" y="366" type="curve" smooth="yes"/>
			<point x="147.83" y="366"/>
			<point x="183.999" y="402.158"/>
		</contour>
		<contour>
			<point x="5.24902" y="39" type="line"/>
			<point x="8.7832" y="37.6172"/>
			<point x="7.68652" y="31.6045"/>
			<point x="8.70215" y="27.7031" type="curve"/>
			<point x="39.6152" y="58.6162"/>
			<point x="62.5107" y="97.5166"/>
			<point x="66.9521" y="143.094" type="curve" smooth="yes"/>
			<point x="70.0088" y="176.667"/>
			<point x="64.0576" y="215.747"/>
			<point x="46.5459" y="244.203" type="curve"/>
			<point x="45.7959" y="241.422" type="line"/>
			<point x="186.921" y="278.156" type="line"/>
			<point x="186.608" y="278.375" type="line"/>
			<point x="186.015" y="279.5" type="line"/>
			<point x="188.905" y="220.469"/>
			<point x="174.374" y="160.219"/>
			<point x="146.187" y="107.734" type="curve" smooth="yes"/>
			<point x="132.608" y="83.5156"/>
			<point x="116.155" y="61.25"/>
			<point x="96.749" y="40.8906" type="curve" smooth="yes"/>
			<point x="94.999" y="39.4062"/>
			<point x="89.0303" y="37"/>
			<point x="86.0146" y="37" type="curve" smooth="yes"/>
		</contour>
	</outline>
</glyph>
<glyph name="less" format="2">
  <advance width="479"/>
  <unicode hex="003C"/>
  <outline>
    <contour>
      <point x="370" y="608" type="curve" smooth="yes"/>
      <point x="440.703" y="537.297" type="line"/>
      <point x="441.703" y="432.297" type="line" smooth="yes"/>
      <point x="441.703" y="425.297"/>
      <point x="437.703" y="419.281"/>
      <point x="432.703" y="415.297" type="curve" smooth="yes"/>
      <point x="226.922" y="271.797" type="line"/>
      <point x="362" y="190" type="line" smooth="yes"/>
      <point x="363.453" y="189.031"/>
      <point x="364.797" y="187.953"/>
      <point x="365.984" y="186.75" type="curve" smooth="yes"/>
      <point x="436.688" y="116.047" type="line" smooth="yes"/>
      <point x="440.406" y="112.328"/>
      <point x="442.719" y="107.594"/>
      <point x="442.719" y="102.281" type="curve" smooth="yes"/>
      <point x="441.703" y="5.29688" type="line" smooth="yes"/>
      <point x="441.703" y="3.28125"/>
      <point x="440.719" y="1.29688"/>
      <point x="438.719" y="0.28125" type="curve" smooth="yes"/>
      <point x="368" y="71" type="line" smooth="yes"/>
      <point x="366" y="70"/>
      <point x="364" y="70"/>
      <point x="362" y="71" type="curve"/>
      <point x="432.703" y="0.28125" type="line"/>
      <point x="88.7188" y="247.281" type="line"/>
      <point x="18.0156" y="318" type="line" smooth="yes"/>
      <point x="15.2129" y="319.828"/>
      <point x="13" y="322.905"/>
      <point x="13" y="327" type="curve" smooth="yes"/>
      <point x="13" y="331"/>
      <point x="15" y="334"/>
      <point x="18" y="336.984" type="curve" smooth="yes"/>
      <point x="361" y="613" type="line" smooth="yes"/>
      <point x="365.358" y="615.179"/>
      <point x="370" y="612.224"/>
    </contour>
    <contour>
      <point x="149.047" y="318.953" type="curve"/>
      <point x="140" y="328" type="line"/>
      <point x="141.815" y="322.592"/>
      <point x="144.757" y="321.543"/>
    </contour>
    <contour>
      <point x="360" y="607.906" type="line"/>
      <point x="361.279" y="605.013"/>
      <point x="362.128" y="604.063"/>
      <point x="365.498" y="604.063" type="curve"/>
      <point x="25.0605" y="329.923" type="line" smooth="yes"/>
      <point x="22.1758" y="327.019"/>
      <point x="22.5547" y="327.166"/>
      <point x="23.8271" y="326.125" type="curve" smooth="yes"/>
      <point x="366.437" y="79.9688" type="line"/>
      <point x="363.06" y="79.9688"/>
      <point x="362.253" y="78.8896"/>
      <point x="361" y="76" type="curve"/>
      <point x="362" y="173.109" type="line" smooth="yes"/>
      <point x="362" y="176.064"/>
      <point x="359.614" y="179.776"/>
      <point x="356.828" y="181.438" type="curve" smooth="yes"/>
      <point x="139.516" y="313.062" type="line" smooth="yes"/>
      <point x="127.47" y="319.148"/>
      <point x="127.921" y="335.174"/>
      <point x="138.297" y="342.202" type="curve" smooth="yes"/>
      <point x="355.766" y="493.827" type="line" smooth="yes"/>
      <point x="358.604" y="496.063"/>
      <point x="361.038" y="499.863"/>
      <point x="361" y="503" type="curve" smooth="yes"/>
    </contour>
  </outline>
</glyph>
<glyph name="equal" format="2">
  <advance width="551"/>
  <unicode hex="003D"/>
  <outline>
    <contour>
      <point x="35" y="326" type="curve" smooth="yes"/>
      <point x="480" y="328" type="line" smooth="yes"/>
      <point x="484" y="328"/>
      <point x="488" y="326"/>
      <point x="491" y="323" type="curve" smooth="yes"/>
      <point x="533.422" y="280.562" type="line" smooth="yes"/>
      <point x="536.422" y="276.562"/>
      <point x="538.422" y="272.578"/>
      <point x="537.422" y="268.562" type="curve" smooth="yes"/>
      <point x="526.438" y="186.578" type="line" smooth="yes"/>
      <point x="525.422" y="176.578"/>
      <point x="516.438" y="169.578"/>
      <point x="506.422" y="169.578" type="curve" smooth="yes"/>
      <point x="58.4219" y="164.578" type="line" smooth="yes"/>
      <point x="54.4219" y="164.578"/>
      <point x="50.4219" y="166.562"/>
      <point x="47.4219" y="169.578" type="curve" smooth="yes"/>
      <point x="5" y="212" type="line" smooth="yes"/>
      <point x="2" y="216.016"/>
      <point x="1" y="220"/>
      <point x="2" y="225" type="curve" smooth="yes"/>
      <point x="15" y="308" type="line" smooth="yes"/>
      <point x="16" y="318"/>
      <point x="25" y="326"/>
    </contour>
    <contour>
      <point x="33" y="513" type="curve" smooth="yes"/>
      <point x="481" y="519" type="line" smooth="yes"/>
      <point x="484.889" y="519"/>
      <point x="490.091" y="517.077"/>
      <point x="491.984" y="514" type="curve" smooth="yes"/>
      <point x="534.422" y="471.578" type="line" smooth="yes"/>
      <point x="537.422" y="467.578"/>
      <point x="539.438" y="463.578"/>
      <point x="538.422" y="459.578" type="curve" smooth="yes"/>
      <point x="526.438" y="371.578" type="line" smooth="yes"/>
      <point x="524.438" y="361.578"/>
      <point x="516.438" y="353.578"/>
      <point x="506.422" y="353.578" type="curve" smooth="yes"/>
      <point x="60.4219" y="355.578" type="line" smooth="yes"/>
      <point x="55.4375" y="355.578"/>
      <point x="51.4219" y="357.578"/>
      <point x="48.4219" y="360.562" type="curve" smooth="yes"/>
      <point x="6" y="403" type="line" smooth="yes"/>
      <point x="3" y="407"/>
      <point x="2" y="411"/>
      <point x="1.98438" y="416" type="curve" smooth="yes"/>
      <point x="13" y="495" type="line" smooth="yes"/>
      <point x="14" y="505"/>
      <point x="23" y="513"/>
    </contour>
    <contour>
      <point x="32.9844" y="503" type="line" smooth="yes"/>
      <point x="27.7705" y="503"/>
      <point x="23.5664" y="498.406"/>
      <point x="22.8906" y="493.61" type="curve" smooth="yes"/>
      <point x="11.9844" y="416.017" type="line" smooth="yes"/>
      <point x="12.0127" y="410.769"/>
      <point x="13.3135" y="408.034"/>
      <point x="18" y="408" type="curve" smooth="yes"/>
      <point x="464.047" y="406" type="line" smooth="yes"/>
      <point x="469.173" y="406"/>
      <point x="472.971" y="410.699"/>
      <point x="474.094" y="415.359" type="curve" smooth="yes"/>
      <point x="486.078" y="503.359" type="line" smooth="yes"/>
      <point x="486.234" y="504.469"/>
      <point x="486.531" y="504.641"/>
      <point x="483.969" y="508.078" type="curve" smooth="yes"/>
      <point x="483.969" y="508.078"/>
      <point x="481.984" y="509.016"/>
      <point x="481" y="509" type="curve" smooth="yes"/>
    </contour>
    <contour>
      <point x="35.0479" y="316.001" type="line" smooth="yes"/>
      <point x="29.6211" y="316.001"/>
      <point x="25.6094" y="311.312"/>
      <point x="24.875" y="306.438" type="curve" smooth="yes"/>
      <point x="11.875" y="223.454" type="line" smooth="yes"/>
      <point x="11.2646" y="219.576"/>
      <point x="13.2529" y="217.001"/>
      <point x="16" y="217.001" type="curve" smooth="yes"/>
      <point x="463.875" y="222.001" type="line" smooth="yes"/>
      <point x="469.322" y="222.001"/>
      <point x="473.449" y="225.45"/>
      <point x="474.095" y="230.345" type="curve" smooth="yes"/>
      <point x="485.095" y="312.329" type="line" smooth="yes"/>
      <point x="485.318" y="314.07"/>
      <point x="482.469" y="318.001"/>
      <point x="480.001" y="318.001" type="curve" smooth="yes"/>
    </contour>
  </outline>
</glyph>
<glyph name="question" format="2">
  <advance width="393"/>
  <unicode hex="003F"/>
  <outline>
    <contour>
      <point x="323.719" y="11.2812" type="curve" smooth="yes"/>
      <point x="323.719" y="-32.7188"/>
      <point x="289.703" y="-68.7168"/>
      <point x="247.719" y="-68.7168" type="curve" smooth="yes"/>
      <point x="227.453" y="-68.7168"/>
      <point x="209.031" y="-60.3262"/>
      <point x="195.422" y="-46.7012" type="curve" smooth="yes"/>
      <point x="124.703" y="24.002" type="line" smooth="yes"/>
      <point x="110.094" y="38.6113"/>
      <point x="101" y="59.2363"/>
      <point x="101" y="82.002" type="curve" smooth="yes"/>
      <point x="101" y="127.002"/>
      <point x="135" y="163.002"/>
      <point x="177.016" y="163.002" type="curve" smooth="yes"/>
      <point x="178.75" y="163.002"/>
      <point x="180.469" y="162.939"/>
      <point x="182.188" y="162.814" type="curve"/>
      <point x="131" y="214.002" type="line"/>
      <point x="125.174" y="214.002"/>
      <point x="117.104" y="217.744"/>
      <point x="115" y="223.002" type="curve" smooth="yes"/>
      <point x="88.0723" y="289.098"/>
      <point x="118.73" y="341.582"/>
      <point x="151.001" y="381.018" type="curve" smooth="yes"/>
      <point x="179.459" y="415.774"/>
      <point x="212.225" y="446.686"/>
      <point x="232.017" y="489.002" type="curve" smooth="yes"/>
      <point x="238.322" y="504.808"/>
      <point x="241.015" y="522.268"/>
      <point x="238.767" y="540.252" type="curve"/>
      <point x="197.543" y="544.527"/>
      <point x="167.762" y="518.01"/>
      <point x="158.72" y="488.299" type="curve" smooth="yes"/>
      <point x="153.72" y="469.283"/>
      <point x="155.72" y="447.283"/>
      <point x="165.72" y="430.283" type="curve" smooth="yes"/>
      <point x="168.72" y="424.283"/>
      <point x="166.72" y="418.283"/>
      <point x="161.704" y="415.299" type="curve" smooth="yes"/>
      <point x="97.7197" y="380.299" type="line" smooth="yes"/>
      <point x="92.2041" y="377.533"/>
      <point x="86.2197" y="378.564"/>
      <point x="82.376" y="382.424" type="curve" smooth="yes"/>
      <point x="11.6729" y="453.127" type="line" smooth="yes"/>
      <point x="9.92285" y="454.877"/>
      <point x="8.62598" y="457.189"/>
      <point x="8.00098" y="460.002" type="curve" smooth="yes"/>
      <point x="2.00098" y="493.002"/>
      <point x="3.00098" y="527.002"/>
      <point x="12.001" y="558.986" type="curve" smooth="yes"/>
      <point x="28.2627" y="625.659"/>
      <point x="76.1455" y="684.175"/>
      <point x="148.001" y="698.001" type="curve" smooth="yes"/>
      <point x="202.845" y="708.157"/>
      <point x="250.277" y="685.582"/>
      <point x="278.297" y="657.532" type="curve" smooth="yes"/>
      <point x="349" y="586.829" type="line" smooth="yes"/>
      <point x="380.977" y="554.893"/>
      <point x="405.779" y="492.516"/>
      <point x="380.719" y="432.282" type="curve" smooth="yes"/>
      <point x="369.703" y="403.298"/>
      <point x="348.719" y="379.298"/>
      <point x="328.703" y="355.282" type="curve" smooth="yes"/>
      <point x="297.992" y="314.839"/>
      <point x="272.256" y="273.848"/>
      <point x="290.703" y="209.281" type="curve" smooth="yes"/>
      <point x="295.719" y="193.297"/>
      <point x="303.719" y="178.297"/>
      <point x="312.719" y="164.297" type="curve" smooth="yes"/>
      <point x="315.719" y="160.281"/>
      <point x="313.719" y="156.297"/>
      <point x="308.719" y="156.297" type="curve" smooth="yes"/>
      <point x="223.734" y="145.969" type="line"/>
      <point x="225.578" y="144.438"/>
      <point x="227.359" y="142.812"/>
      <point x="229.062" y="141.109" type="curve" smooth="yes"/>
      <point x="299.781" y="70.4062" type="line" smooth="yes"/>
      <point x="314.516" y="55.6719"/>
      <point x="323.719" y="34.6875"/>
    </contour>
    <contour>
      <point x="222.25" y="580.768" type="line"/>
      <point x="217.375" y="587.277"/>
      <point x="211.553" y="593.19"/>
      <point x="205" y="598.002" type="curve"/>
    </contour>
    <contour>
      <point x="238" y="237.002" type="curve"/>
      <point x="234.444" y="236.563"/>
      <point x="234.71" y="232.299"/>
      <point x="233.981" y="229.033" type="curve"/>
      <point x="214.035" y="255.629"/>
      <point x="196.648" y="301.198"/>
      <point x="205.169" y="345.877" type="curve" smooth="yes"/>
      <point x="212.059" y="380.241"/>
      <point x="233.135" y="411.792"/>
      <point x="254.247" y="437.127" type="curve" smooth="yes"/>
      <point x="272.78" y="459.293"/>
      <point x="292.376" y="481.687"/>
      <point x="300.763" y="506.846" type="curve" smooth="yes"/>
      <point x="324.207" y="563.128"/>
      <point x="300.889" y="620.798"/>
      <point x="271.216" y="650.471" type="curve" smooth="yes"/>
      <point x="245.104" y="676.583"/>
      <point x="200.783" y="697.633"/>
      <point x="149.841" y="688.174" type="curve" smooth="yes"/>
      <point x="80.1797" y="674.768"/>
      <point x="39.8623" y="620.109"/>
      <point x="21.6221" y="556.268" type="curve" smooth="yes"/>
      <point x="13.0908" y="526.002"/>
      <point x="12.0908" y="493.674"/>
      <point x="17.7471" y="462.174" type="curve" smooth="yes"/>
      <point x="18.1982" y="460.158"/>
      <point x="19.709" y="458.407"/>
      <point x="22.2002" y="459.783" type="curve" smooth="yes"/>
      <point x="85.8564" y="494.596" type="line" smooth="yes"/>
      <point x="86.3311" y="494.854"/>
      <point x="86.7178" y="495.01"/>
      <point x="86.3721" y="495.924" type="curve" smooth="yes"/>
      <point x="65.3301" y="531.753"/>
      <point x="76.9326" y="573.703"/>
      <point x="99.0283" y="595.799" type="curve" smooth="yes"/>
      <point x="136.681" y="633.451"/>
      <point x="192.437" y="625.985"/>
      <point x="221.232" y="597.189" type="curve" smooth="yes"/>
      <point x="248.149" y="570.272"/>
      <point x="257.994" y="527.092"/>
      <point x="241.295" y="485.283" type="curve" smooth="yes"/>
      <point x="234.159" y="469.584"/>
      <point x="225.024" y="453.217"/>
      <point x="213.921" y="439.893" type="curve" smooth="yes"/>
      <point x="178.093" y="393.533"/>
      <point x="131.015" y="353.064"/>
      <point x="118.671" y="305.486" type="curve" smooth="yes"/>
      <point x="113.305" y="278.654"/>
      <point x="113.333" y="253.662"/>
      <point x="124.14" y="227.002" type="curve" smooth="yes"/>
      <point x="124.793" y="225.914"/>
      <point x="127.987" y="224.438"/>
      <point x="129.781" y="223.924" type="curve" smooth="yes"/>
      <point x="236.797" y="236.924" type="line" smooth="yes"/>
      <point x="237.203" y="236.971"/>
      <point x="237.594" y="237.002"/>
    </contour>
    <contour>
      <point x="242.996" y="81.9854" type="curve" smooth="yes"/>
      <point x="242.996" y="120.103"/>
      <point x="214.842" y="153.001"/>
      <point x="177.012" y="153.001" type="curve" smooth="yes"/>
      <point x="138.73" y="153.001"/>
      <point x="110.996" y="119.657"/>
      <point x="110.996" y="82.001" type="curve" smooth="yes"/>
      <point x="110.996" y="44.4912"/>
      <point x="139.583" y="12.001"/>
      <point x="177.012" y="12.001" type="curve" smooth="yes"/>
      <point x="214.396" y="12.001"/>
      <point x="242.996" y="44.5049"/>
    </contour>
  </outline>
</glyph>
<glyph name="at" format="2">
	<unicode hex="0040"/>
	<advance width="815"/>
	<outline>
		<contour>
			<point x="549" y="519" type="line"/>
			<point x="583.001" y="516.999" type="line"/>
			<point x="625.423" y="474.562" type="line"/>
			<point x="625.423" y="474.562"/>
			<point x="621.423" y="459.562"/>
			<point x="616.438" y="441.577" type="curve" smooth="yes"/>
			<point x="606.438" y="404.577"/>
			<point x="600.423" y="366.562"/>
			<point x="598.423" y="328.577" type="curve" smooth="yes"/>
			<point x="595.423" y="276.562"/>
			<point x="599.423" y="223.577"/>
			<point x="598.423" y="171.577" type="curve" smooth="yes"/>
			<point x="598.423" y="164.205"/>
			<point x="597.637" y="155.529"/>
			<point x="598.579" y="147.358" type="curve"/>
			<point x="635.455" y="145.8"/>
			<point x="647.101" y="179.879"/>
			<point x="657.001" y="206.999" type="curve" smooth="yes"/>
			<point x="690.411" y="326.72"/>
			<point x="665.659" y="441.928"/>
			<point x="601.329" y="520.453" type="curve"/>
			<point x="573.938" y="542.906"/>
			<point x="542.704" y="560.469"/>
			<point x="509.423" y="571.562" type="curve" smooth="yes"/>
			<point x="365.769" y="617.202"/>
			<point x="230.93" y="543.154"/>
			<point x="180.422" y="452.562" type="curve" smooth="yes"/>
			<point x="142.909" y="383.789"/>
			<point x="138.165" y="286.093"/>
			<point x="171.422" y="206.577" type="curve" smooth="yes"/>
			<point x="180.469" y="185.624"/>
			<point x="192.016" y="165.796"/>
			<point x="205.844" y="147.983" type="curve"/>
			<point x="230.287" y="129.229"/>
			<point x="259.946" y="114.122"/>
			<point x="292.001" y="106.999" type="curve" smooth="yes"/>
			<point x="299.22" y="104.999"/>
			<point x="305.626" y="101.374"/>
			<point x="310.47" y="96.5459" type="curve" smooth="yes"/>
			<point x="352.892" y="54.124" type="line" smooth="yes"/>
			<point x="360.11" y="46.9053"/>
			<point x="363.813" y="36.9521"/>
			<point x="361.438" y="25.5771" type="curve" smooth="yes"/>
			<point x="354.423" y="-8.43848" type="line" smooth="yes"/>
			<point x="350.423" y="-27.4385"/>
			<point x="332.423" y="-42.4229"/>
			<point x="313.423" y="-38.4229" type="curve" smooth="yes"/>
			<point x="253.282" y="-29.0557"/>
			<point x="203.616" y="1.69629"/>
			<point x="167.079" y="38.2334" type="curve" smooth="yes"/>
			<point x="124.657" y="80.6553" type="line" smooth="yes"/>
			<point x="105.017" y="100.28"/>
			<point x="87.9385" y="122.421"/>
			<point x="74.001" y="145.999" type="curve" smooth="yes"/>
			<point x="8.63379" y="259.135"/>
			<point x="3.73535" y="419.731"/>
			<point x="69.001" y="546.999" type="curve" smooth="yes"/>
			<point x="100.001" y="605.999"/>
			<point x="147.001" y="657.999"/>
			<point x="207.001" y="688.999" type="curve" smooth="yes"/>
			<point x="274.001" y="722.999"/>
			<point x="352.001" y="728.999"/>
			<point x="426.001" y="719.999" type="curve" smooth="yes"/>
			<point x="475.001" y="713.999"/>
			<point x="524.001" y="701.983"/>
			<point x="568.001" y="677.999" type="curve" smooth="yes"/>
			<point x="593.985" y="664.187"/>
			<point x="617.813" y="646.077"/>
			<point x="638.845" y="625.062" type="curve" smooth="yes"/>
			<point x="681.267" y="582.624" type="line" smooth="yes"/>
			<point x="698.282" y="565.624"/>
			<point x="713.454" y="546.702"/>
			<point x="726.423" y="526.577" type="curve" smooth="yes"/>
			<point x="770.423" y="456.577"/>
			<point x="785.423" y="373.577"/>
			<point x="789.423" y="291.577" type="curve" smooth="yes"/>
			<point x="792.423" y="212.577"/>
			<point x="785.423" y="130.577"/>
			<point x="743.438" y="63.5771" type="curve" smooth="yes"/>
			<point x="726.423" y="35.5771"/>
			<point x="703.423" y="10.5771"/>
			<point x="675.438" y="-5.42285" type="curve" smooth="yes"/>
			<point x="635.876" y="-26.2607"/>
			<point x="594.719" y="-24.0312"/>
			<point x="565.517" y="5.1709" type="curve" smooth="yes"/>
			<point x="523.095" y="47.5928" type="line" smooth="yes"/>
			<point x="502.048" y="68.6396"/>
			<point x="489.093" y="95.1709"/>
			<point x="481.954" y="128.765" type="curve"/>
			<point x="439.879" y="95.6064"/>
			<point x="372.087" y="86.0938"/>
			<point x="317.423" y="118.577" type="curve" smooth="yes"/>
			<point x="304.938" y="125.562"/>
			<point x="293.688" y="134.312"/>
			<point x="283.688" y="144.312" type="curve" smooth="yes"/>
			<point x="241.267" y="186.733" type="line" smooth="yes"/>
			<point x="182.408" y="245.592"/>
			<point x="159.431" y="362.622"/>
			<point x="217.001" y="446" type="curve" smooth="yes"/>
			<point x="242.407" y="482.295"/>
			<point x="284.123" y="513.643"/>
			<point x="338.985" y="518" type="curve" smooth="yes"/>
			<point x="382.253" y="521.932"/>
			<point x="426.062" y="502.126"/>
			<point x="452.031" y="476.156" type="curve" smooth="yes"/>
			<point x="482.281" y="445.906" type="line"/>
			<point x="473" y="490" type="line" smooth="yes"/>
			<point x="468.917" y="506.334"/>
			<point x="484.432" y="522.942"/>
			<point x="500" y="521" type="curve" smooth="yes"/>
		</contour>
		<contour>
			<point x="318.673" y="252.312" type="curve"/>
			<point x="277" y="293.982" type="line"/>
			<point x="286.679" y="276.574"/>
			<point x="301.361" y="262.057"/>
		</contour>
		<contour>
			<point x="319.125" y="252.061" type="curve"/>
			<point x="339.204" y="240.913"/>
			<point x="365.581" y="235.426"/>
			<point x="394" y="242.982" type="curve" smooth="yes"/>
			<point x="432.81" y="255.959"/>
			<point x="466.458" y="293.929"/>
			<point x="454.984" y="350.998" type="curve" smooth="yes"/>
			<point x="452.5" y="361.295"/>
			<point x="448.391" y="371.201"/>
			<point x="442.953" y="380.436" type="curve"/>
			<point x="426.328" y="389.904"/>
			<point x="407.859" y="395.576"/>
			<point x="388.438" y="395.576" type="curve" smooth="yes"/>
			<point x="314.739" y="395.576"/>
			<point x="282.355" y="313.006"/>
		</contour>
		<contour>
			<point x="442.016" y="381.998" type="line"/>
			<point x="432.094" y="398.168"/>
			<point x="418.186" y="412.038"/>
			<point x="402" y="421.998" type="curve"/>
		</contour>
		<contour>
			<point x="579.891" y="152.123" type="curve"/>
			<point x="563" y="169.014" type="line"/>
			<point x="566.676" y="161.63"/>
			<point x="572.578" y="155.841"/>
		</contour>
		<contour>
			<point x="482" y="213.701" type="curve" smooth="yes"/>
			<point x="478.472" y="143.143"/>
			<point x="492.767" y="86.041"/>
			<point x="527.34" y="51.8438" type="curve" smooth="yes"/>
			<point x="554.794" y="24.3535"/>
			<point x="592.464" y="22.4941"/>
			<point x="630.027" y="42.2188" type="curve" smooth="yes"/>
			<point x="657.41" y="57.8662"/>
			<point x="679.523" y="82.2002"/>
			<point x="695.872" y="109.109" type="curve" smooth="yes"/>
			<point x="736.841" y="174.484"/>
			<point x="743.981" y="255.203"/>
			<point x="740.997" y="333.766" type="curve" smooth="yes"/>
			<point x="737.013" y="415.281"/>
			<point x="722.106" y="497.109"/>
			<point x="678.903" y="565.812" type="curve" smooth="yes"/>
			<point x="650.761" y="609.493"/>
			<point x="611.519" y="648.054"/>
			<point x="565.185" y="672.702" type="curve" smooth="yes"/>
			<point x="522.075" y="696.202"/>
			<point x="473.794" y="708.108"/>
			<point x="425.263" y="714.046" type="curve" smooth="yes"/>
			<point x="352.044" y="722.937"/>
			<point x="275.294" y="716.921"/>
			<point x="209.716" y="683.64" type="curve" smooth="yes"/>
			<point x="90.8184" y="622.269"/>
			<point x="10.25" y="465.351"/>
			<point x="31.9502" y="293.749" type="curve" smooth="yes"/>
			<point x="38.8721" y="243.358"/>
			<point x="53.6846" y="193.171"/>
			<point x="79.2002" y="148.999" type="curve" smooth="yes"/>
			<point x="118.908" y="81.791"/>
			<point x="182.021" y="24.9092"/>
			<point x="272.231" y="9.87402" type="curve" smooth="yes"/>
			<point x="288.625" y="6.40625"/>
			<point x="303.136" y="20.6846"/>
			<point x="306.122" y="35.2334" type="curve" smooth="yes"/>
			<point x="313.122" y="69.2178" type="line" smooth="yes"/>
			<point x="316.625" y="85.9219"/>
			<point x="304.227" y="97.2617"/>
			<point x="290.7" y="101.155" type="curve" smooth="yes"/>
			<point x="210.188" y="118.986"/>
			<point x="153.331" y="177.544"/>
			<point x="123.481" y="246.625" type="curve" smooth="yes"/>
			<point x="89.3936" y="328.13"/>
			<point x="94.2979" y="427.401"/>
			<point x="132.732" y="497.875" type="curve" smooth="yes"/>
			<point x="183.984" y="589.889"/>
			<point x="321.666" y="666.447"/>
			<point x="468.827" y="619.703" type="curve" smooth="yes"/>
			<point x="616.983" y="570.335"/>
			<point x="717.485" y="401.443"/>
			<point x="662.78" y="205.374" type="curve" smooth="yes"/>
			<point x="657.082" y="184.98"/>
			<point x="645.365" y="157.417"/>
			<point x="623.671" y="146.64" type="curve" smooth="yes"/>
			<point x="601.35" y="135.458"/>
			<point x="569.334" y="143.299"/>
			<point x="557.796" y="166.03" type="curve" smooth="yes"/>
			<point x="549.824" y="179.953"/>
			<point x="549.999" y="194.466"/>
			<point x="549.999" y="213.998" type="curve" smooth="yes"/>
			<point x="550.999" y="266.186"/>
			<point x="546.999" y="319.029"/>
			<point x="549.999" y="371.342" type="curve" smooth="yes"/>
			<point x="552.03" y="409.764"/>
			<point x="558.108" y="448.154"/>
			<point x="568.218" y="485.576" type="curve" smooth="yes"/>
			<point x="573.202" y="503.545"/>
			<point x="577.202" y="518.545"/>
			<point x="577.202" y="518.545" type="curve"/>
			<point x="582.64" y="510.998" type="line"/>
			<point x="554.999" y="512.623"/>
			<point x="527.39" y="513.873"/>
			<point x="499.749" y="514.998" type="curve" smooth="yes"/>
			<point x="486.34" y="515.536"/>
			<point x="475.976" y="502.801"/>
			<point x="478.827" y="491.451" type="curve" smooth="yes"/>
			<point x="494.874" y="415.248" type="line" smooth="yes"/>
			<point x="496.209" y="408.682"/>
			<point x="485.522" y="404.436"/>
			<point x="483.218" y="412.373" type="curve" smooth="yes"/>
			<point x="467.427" y="468.539"/>
			<point x="409.779" y="518.419"/>
			<point x="339.53" y="512.029" type="curve" smooth="yes"/>
			<point x="239.973" y="504.091"/>
			<point x="175.17" y="405.808"/>
			<point x="191.921" y="300.951" type="curve" smooth="yes"/>
			<point x="200.435" y="241.494"/>
			<point x="233.776" y="192.481"/>
			<point x="278.062" y="166.154" type="curve" smooth="yes"/>
			<point x="353.466" y="121.388"/>
			<point x="439.202" y="160.087"/>
			<point x="470.75" y="216.904" type="curve" smooth="yes"/>
			<point x="473.543" y="221.997"/>
			<point x="482.306" y="220.058"/>
		</contour>
		<contour>
			<point x="460.825" y="352.421" type="curve" smooth="yes"/>
			<point x="472.983" y="291.63"/>
			<point x="437.527" y="251.226"/>
			<point x="395.903" y="237.296" type="curve" smooth="yes"/>
			<point x="339.008" y="221.04"/>
			<point x="292.838" y="253.377"/>
			<point x="271.871" y="290.858" type="curve" smooth="yes"/>
			<point x="259.835" y="310.572"/>
			<point x="255.012" y="332.636"/>
			<point x="255.012" y="356.499" type="curve" smooth="yes"/>
			<point x="256.98" y="380.124"/>
			<point x="266.293" y="402.983"/>
			<point x="283.23" y="419.921" type="curve" smooth="yes"/>
			<point x="300.996" y="437.687"/>
			<point x="323.371" y="444.015"/>
			<point x="345.996" y="443.999" type="curve" smooth="yes"/>
			<point x="404.626" y="443.999"/>
			<point x="449.275" y="400.173"/>
		</contour>
	</outline>
</glyph>
<glyph name="A" format="2">
	<unicode hex="0041"/>
	<advance width="648"/>
	<outline>
		<contour>
			<point x="246.75" y="414.859" type="curve"/>
			<point x="295.573" y="412.383"/>
			<point x="344.462" y="410.602"/>
			<point x="391.984" y="406" type="curve"/>
			<point x="371.165" y="480.522"/>
			<point x="341.263" y="542.008"/>
			<point x="307.422" y="604.875" type="curve"/>
			<point x="284.516" y="542.125"/>
			<point x="264.016" y="479.203"/>
		</contour>
		<contour>
			<point x="156.422" y="-42.4219" type="curve" smooth="yes"/>
			<point x="61.4375" y="-42.4199" type="line"/>
			<point x="19" y="0.00195312" type="line"/>
			<point x="12.2021" y="0.00195312"/>
			<point x="7.9375" y="4.82812"/>
			<point x="10.0156" y="12.002" type="curve" smooth="yes"/>
			<point x="38.2617" y="103.853"/>
			<point x="63.6924" y="196.863"/>
			<point x="89.7031" y="290.502" type="curve"/>
			<point x="67.5312" y="312.674" type="line" smooth="yes"/>
			<point x="64.25" y="315.955"/>
			<point x="62.5312" y="320.939"/>
			<point x="63" y="327.002" type="curve" smooth="yes"/>
			<point x="68" y="392.002" type="line" smooth="yes"/>
			<point x="69.0156" y="408.002"/>
			<point x="83" y="420.002"/>
			<point x="99" y="420.002" type="curve" smooth="yes"/>
			<point x="107" y="420.002"/>
			<point x="114" y="420.002"/>
			<point x="122" y="419.002" type="curve"/>
			<point x="151" y="535.002"/>
			<point x="177" y="652.002"/>
			<point x="200" y="769.002" type="curve" smooth="yes"/>
			<point x="201" y="775.002"/>
			<point x="207" y="780.002"/>
			<point x="213" y="781.002" type="curve" smooth="yes"/>
			<point x="320" y="799.002" type="line" smooth="yes"/>
			<point x="325.379" y="799.002"/>
			<point x="330.213" y="796.496"/>
			<point x="332" y="792.002" type="curve" smooth="yes"/>
			<point x="374.422" y="749.564" type="line"/>
			<point x="429.806" y="618.393"/>
			<point x="474.104" y="476.201"/>
			<point x="518.422" y="338.579" type="curve" smooth="yes"/>
			<point x="558.422" y="214.579"/>
			<point x="600.422" y="91.5635"/>
			<point x="646.422" y="-30.4209" type="curve" smooth="yes"/>
			<point x="648.422" y="-36.4209"/>
			<point x="644.422" y="-42.4209"/>
			<point x="637.438" y="-42.4209" type="curve" smooth="yes"/>
			<point x="523.438" y="-42.4209" type="line"/>
			<point x="481.016" y="0.000976562" type="line"/>
			<point x="473.695" y="0.000976562"/>
			<point x="467.956" y="6.33887"/>
			<point x="467" y="13.001" type="curve" smooth="yes"/>
			<point x="458.141" y="97.2354"/>
			<point x="444.547" y="180.673"/>
			<point x="426.953" y="262.626" type="curve"/>
			<point x="365.255" y="279.605"/>
			<point x="291.927" y="287.96"/>
			<point x="214.422" y="280.578" type="curve"/>
			<point x="193.422" y="178.578"/>
			<point x="178.438" y="75.5781"/>
			<point x="171.422" y="-28.4219" type="curve" smooth="yes"/>
			<point x="170.422" y="-36.4219"/>
			<point x="164.422" y="-42.4219"/>
		</contour>
		<contour>
			<point x="114" y="6.00195" type="line" smooth="yes"/>
			<point x="119.085" y="6.00195"/>
			<point x="122.293" y="9.74414"/>
			<point x="123.001" y="14.4082" type="curve" smooth="yes"/>
			<point x="130.048" y="118.721"/>
			<point x="145.079" y="221.986"/>
			<point x="166.126" y="324.221" type="curve" smooth="yes"/>
			<point x="166.612" y="326.688"/>
			<point x="168.837" y="328.73"/>
			<point x="171.423" y="328.971" type="curve" smooth="yes"/>
			<point x="254.813" y="336.924"/>
			<point x="339.876" y="328.393"/>
			<point x="421.985" y="299.658" type="curve" smooth="yes"/>
			<point x="423.851" y="299.024"/>
			<point x="425.409" y="297.32"/>
			<point x="425.845" y="295.346" type="curve" smooth="yes"/>
			<point x="446.892" y="203.205"/>
			<point x="462.907" y="109.033"/>
			<point x="472.938" y="13.8613" type="curve" smooth="yes"/>
			<point x="473.476" y="10.041"/>
			<point x="476.97" y="6.00195"/>
			<point x="481.017" y="6.00195" type="curve" smooth="yes"/>
			<point x="595.001" y="6.00195" type="line" smooth="yes"/>
			<point x="597.543" y="6.00195"/>
			<point x="599.056" y="7.42285"/>
			<point x="598.392" y="9.87695" type="curve" smooth="yes"/>
			<point x="544.735" y="152.174"/>
			<point x="496.376" y="297.018"/>
			<point x="450.517" y="440.971" type="curve" smooth="yes"/>
			<point x="419.423" y="538.58"/>
			<point x="388.298" y="636.268"/>
			<point x="350.438" y="731.783" type="curve" smooth="yes"/>
			<point x="343.032" y="750.424"/>
			<point x="334.142" y="770.455"/>
			<point x="326.423" y="789.768" type="curve" smooth="yes"/>
			<point x="325.673" y="791.69"/>
			<point x="323.778" y="792.817"/>
			<point x="321.001" y="793.08" type="curve" smooth="yes"/>
			<point x="214.001" y="775.08" type="line" smooth="yes"/>
			<point x="210.536" y="774.517"/>
			<point x="206.564" y="771.292"/>
			<point x="205.892" y="767.846" type="curve" smooth="yes"/>
			<point x="182.86" y="650.736"/>
			<point x="156.845" y="533.643"/>
			<point x="127.813" y="417.549" type="curve" smooth="yes"/>
			<point x="125.956" y="410.001"/>
			<point x="108.005" y="414.002"/>
			<point x="99.001" y="414.002" type="curve" smooth="yes"/>
			<point x="85.8984" y="414.002"/>
			<point x="74.9404" y="404.275"/>
			<point x="73.9854" y="391.627" type="curve" smooth="yes"/>
			<point x="68.9854" y="326.533" type="line" smooth="yes"/>
			<point x="67.627" y="308.757"/>
			<point x="83.9766" y="317.002"/>
			<point x="95.001" y="317.002" type="curve" smooth="yes"/>
			<point x="106.63" y="317.002"/>
			<point x="96.4639" y="292.274"/>
			<point x="94.7656" y="286.346" type="curve" smooth="yes"/>
			<point x="69.75" y="193.283"/>
			<point x="43.75" y="101.33"/>
			<point x="15.75" y="10.2363" type="curve" smooth="yes"/>
			<point x="14.7295" y="6.68848"/>
			<point x="15.8584" y="6.00195"/>
			<point x="19" y="6.00195" type="curve" smooth="yes"/>
		</contour>
		<contour>
			<point x="193.83" y="411.018" type="curve" smooth="yes"/>
			<point x="190.164" y="411.095"/>
			<point x="187.275" y="414.792"/>
			<point x="188.173" y="418.439" type="curve" smooth="yes"/>
			<point x="209.251" y="504.721"/>
			<point x="236.313" y="587.955"/>
			<point x="267.376" y="671.111" type="curve" smooth="yes"/>
			<point x="269.018" y="675.431"/>
			<point x="275.703" y="676.444"/>
			<point x="278.299" y="671.83" type="curve" smooth="yes"/>
			<point x="324.465" y="585.234"/>
			<point x="369.461" y="508.804"/>
			<point x="397.768" y="407.627" type="curve" smooth="yes"/>
			<point x="398.883" y="403.63"/>
			<point x="395.485" y="399.629"/>
			<point x="391.408" y="400.033" type="curve" smooth="yes"/>
			<point x="360.549" y="403.018"/>
			<point x="329.674" y="405.018"/>
			<point x="297.814" y="406.002" type="curve" smooth="yes"/>
			<point x="297.752" y="406.002"/>
			<point x="297.705" y="406.018"/>
			<point x="297.643" y="406.018" type="curve" smooth="yes"/>
			<point x="263.658" y="408.018"/>
			<point x="228.705" y="410.002"/>
		</contour>
	</outline>
</glyph>
<glyph name="B" format="2">
	<unicode hex="0042"/>
	<advance width="566"/>
	<outline>
		<contour>
			<point x="483.422" y="10.5781" type="curve" smooth="yes"/>
			<point x="419.989" y="-38.3555"/>
			<point x="338.185" y="-46.4219"/>
			<point x="234.422" y="-46.4219" type="curve" smooth="yes"/>
			<point x="185.422" y="-46.4219"/>
			<point x="137.422" y="-45.4375"/>
			<point x="88.4375" y="-42.4219" type="curve" smooth="yes"/>
			<point x="83.2656" y="-42.4219"/>
			<point x="79.0156" y="-40.5625"/>
			<point x="76.0156" y="-37.5781" type="curve" smooth="yes"/>
			<point x="33.5938" y="4.85938" type="line" smooth="yes"/>
			<point x="29.6406" y="8.8125"/>
			<point x="27.8594" y="14.75"/>
			<point x="29" y="21" type="curve" smooth="yes"/>
			<point x="52.5537" y="142.695"/>
			<point x="74.3184" y="284.468"/>
			<point x="72.999" y="419" type="curve" smooth="yes"/>
			<point x="72.999" y="469"/>
			<point x="69.999" y="519"/>
			<point x="62.999" y="569" type="curve" smooth="yes"/>
			<point x="62.9521" y="569.469"/>
			<point x="62.9209" y="569.938"/>
			<point x="62.9209" y="570.391" type="curve" smooth="yes"/>
			<point x="39.2021" y="594.094" type="line" smooth="yes"/>
			<point x="37.4834" y="595.828"/>
			<point x="36.0459" y="598.141"/>
			<point x="34.999" y="601" type="curve" smooth="yes"/>
			<point x="6.99902" y="681" type="line" smooth="yes"/>
			<point x="2.99902" y="691"/>
			<point x="6.99902" y="706"/>
			<point x="15.999" y="713" type="curve" smooth="yes"/>
			<point x="76.6338" y="762.61"/>
			<point x="164.351" y="797"/>
			<point x="266" y="797" type="curve" smooth="yes"/>
			<point x="341.644" y="795.155"/>
			<point x="409.631" y="772.021"/>
			<point x="451.281" y="730.406" type="curve" smooth="yes"/>
			<point x="493.703" y="687.984" type="line" smooth="yes"/>
			<point x="503.703" y="677.969"/>
			<point x="512.422" y="666.828"/>
			<point x="519.422" y="654.578" type="curve" smooth="yes"/>
			<point x="585.57" y="547.48"/>
			<point x="508.791" y="423.167"/>
			<point x="445.89" y="366.875" type="curve"/>
			<point x="457.077" y="358.153"/>
			<point x="467.239" y="348.138"/>
			<point x="476" y="337" type="curve" smooth="yes"/>
			<point x="518.422" y="294.578" type="line"/>
			<point x="592.582" y="205.586"/>
			<point x="565.653" y="74.9336"/>
		</contour>
		<contour>
			<point x="380.001" y="612" type="curve" smooth="yes"/>
			<point x="376.387" y="618.557"/>
			<point x="367.277" y="621.681"/>
			<point x="360.422" y="624.578" type="curve" smooth="yes"/>
			<point x="302.415" y="650.358"/>
			<point x="237.029" y="631.498"/>
			<point x="189.422" y="608.562" type="curve" smooth="yes"/>
			<point x="167" y="598.062"/>
			<point x="145.547" y="585.577"/>
			<point x="125.422" y="571.483" type="curve"/>
			<point x="178" y="556.999" type="line" smooth="yes"/>
			<point x="187.953" y="554.276"/>
			<point x="194.293" y="543.773"/>
			<point x="190.001" y="532" type="curve"/>
			<point x="232.423" y="489.578" type="line"/>
			<point x="221.985" y="459.859"/>
			<point x="212.845" y="429.5"/>
			<point x="205.501" y="399.016" type="curve"/>
			<point x="233.845" y="406.953"/>
			<point x="261.345" y="418.125"/>
			<point x="288.001" y="431" type="curve" smooth="yes"/>
			<point x="348.204" y="458.322"/>
			<point x="428.524" y="522.419"/>
		</contour>
		<contour>
			<point x="417.781" y="271.234" type="line"/>
			<point x="411.811" y="278.965"/>
			<point x="404.768" y="286.034"/>
			<point x="397" y="292" type="curve"/>
		</contour>
		<contour>
			<point x="425.859" y="259.031" type="curve"/>
			<point x="380.689" y="286.1"/>
			<point x="322.675" y="281.733"/>
			<point x="283.422" y="257.578" type="curve" smooth="yes"/>
			<point x="275.422" y="252.781"/>
			<point x="267.422" y="253.094"/>
			<point x="261.984" y="258.531" type="curve" smooth="yes"/>
			<point x="219.562" y="300.969" type="line" smooth="yes"/>
			<point x="218.203" y="302.328"/>
			<point x="217" y="304"/>
			<point x="216" y="306" type="curve" smooth="yes"/>
			<point x="195.641" y="353.047" type="line"/>
			<point x="179.266" y="266.578"/>
			<point x="175.438" y="177.844"/>
			<point x="184.703" y="90.5312" type="curve"/>
			<point x="264.769" y="83.0117"/>
			<point x="352.139" y="101.911"/>
			<point x="401" y="141" type="curve" smooth="yes"/>
			<point x="431.878" y="168.627"/>
			<point x="450.974" y="214.558"/>
		</contour>
		<contour>
			<point x="192" y="2" type="curve" smooth="yes"/>
			<point x="304.393" y="2"/>
			<point x="394.312" y="12.8008"/>
			<point x="454.344" y="72.832" type="curve" smooth="yes"/>
			<point x="521.326" y="139.814"/>
			<point x="537.167" y="254.282"/>
			<point x="471.375" y="333.176" type="curve" smooth="yes"/>
			<point x="449.626" y="359.259"/>
			<point x="420.878" y="380.39"/>
			<point x="387.141" y="391.285" type="curve" smooth="yes"/>
			<point x="383.306" y="392.586"/>
			<point x="381.228" y="398.396"/>
			<point x="385.234" y="401.675" type="curve" smooth="yes"/>
			<point x="436.026" y="442.684"/>
			<point x="484.42" y="505.705"/>
			<point x="494.047" y="582.753" type="curve" smooth="yes"/>
			<point x="501.165" y="638.301"/>
			<point x="479.258" y="693.932"/>
			<point x="447.03" y="726.159" type="curve" smooth="yes"/>
			<point x="406.414" y="766.775"/>
			<point x="340.174" y="789.17"/>
			<point x="265.999" y="791.003" type="curve" smooth="yes"/>
			<point x="165.944" y="791.003"/>
			<point x="79.333" y="757.066"/>
			<point x="19.7959" y="708.362" type="curve" smooth="yes"/>
			<point x="12.8643" y="702.653"/>
			<point x="9.91797" y="690.791"/>
			<point x="12.6553" y="682.987" type="curve" smooth="yes"/>
			<point x="40.6553" y="602.987" type="line" smooth="yes"/>
			<point x="42.832" y="597.054"/>
			<point x="46.792" y="593.596"/>
			<point x="54.2021" y="599.658" type="curve" smooth="yes"/>
			<point x="81.5928" y="621.971"/>
			<point x="111.983" y="641.221"/>
			<point x="144.452" y="656.424" type="curve" smooth="yes"/>
			<point x="193.309" y="679.985"/>
			<point x="260.355" y="699.113"/>
			<point x="320.343" y="672.533" type="curve" smooth="yes"/>
			<point x="347.837" y="660.897"/>
			<point x="370.897" y="640.585"/>
			<point x="385.233" y="614.939" type="curve" smooth="yes"/>
			<point x="398.702" y="590.08"/>
			<point x="404.765" y="557.768"/>
			<point x="396.749" y="530.314" type="curve" smooth="yes"/>
			<point x="381.566" y="478.314"/>
			<point x="336.552" y="446.496"/>
			<point x="290.608" y="425.595" type="curve" smooth="yes"/>
			<point x="261.358" y="411.47"/>
			<point x="230.999" y="399.329"/>
			<point x="199.499" y="391.204" type="curve" smooth="yes"/>
			<point x="192.863" y="389.358"/>
			<point x="189.098" y="383.244"/>
			<point x="192.515" y="375.392" type="curve" smooth="yes"/>
			<point x="221.358" y="308.688" type="line" smooth="yes"/>
			<point x="224.097" y="303.27"/>
			<point x="229.33" y="299.994"/>
			<point x="237.921" y="305.157" type="curve" smooth="yes"/>
			<point x="307.901" y="348.238"/>
			<point x="404.801" y="318.833"/>
			<point x="433.437" y="257.548" type="curve" smooth="yes"/>
			<point x="455.021" y="211.334"/>
			<point x="437.476" y="162.408"/>
			<point x="404.733" y="136.313" type="curve" smooth="yes"/>
			<point x="347.33" y="90.3564"/>
			<point x="238.397" y="71.8857"/>
			<point x="145.827" y="90.1104" type="curve" smooth="yes"/>
			<point x="143.423" y="90.6113"/>
			<point x="141.438" y="92.6357"/>
			<point x="141.062" y="95.1104" type="curve" smooth="yes"/>
			<point x="124.952" y="202.845"/>
			<point x="128.983" y="313.579"/>
			<point x="152.124" y="420.282" type="curve" smooth="yes"/>
			<point x="160.202" y="458.579"/>
			<point x="171.265" y="496.782"/>
			<point x="184.343" y="534.001" type="curve" smooth="yes"/>
			<point x="187.482" y="542.646"/>
			<point x="183.22" y="549.337"/>
			<point x="176.406" y="551.22" type="curve" smooth="yes"/>
			<point x="78.4062" y="578.204" type="line" smooth="yes"/>
			<point x="71.1426" y="580.202"/>
			<point x="68.4307" y="576.744"/>
			<point x="68.9375" y="569.845" type="curve" smooth="yes"/>
			<point x="75.9844" y="519.517"/>
			<point x="79" y="469.235"/>
			<point x="79" y="419.001" type="curve" smooth="yes"/>
			<point x="80.3193" y="283.768"/>
			<point x="58.5049" y="141.928"/>
			<point x="34.8906" y="19.8604" type="curve" smooth="yes"/>
			<point x="33.332" y="11.3594"/>
			<point x="38.4561" y="6.47363"/>
			<point x="46.375" y="5.98438" type="curve" smooth="yes"/>
			<point x="95.2031" y="3"/>
			<point x="143.078" y="2"/>
		</contour>
	</outline>
</glyph>
<glyph name="C" format="2">
	<unicode hex="0043"/>
	<advance width="602"/>
	<outline>
		<contour>
			<point x="426" y="783" type="curve" smooth="yes"/>
			<point x="440.562" y="775.719"/>
			<point x="453.562" y="765.907"/>
			<point x="465" y="754.485" type="curve" smooth="yes"/>
			<point x="507.422" y="712.063" type="line" smooth="yes"/>
			<point x="535.004" y="684.481"/>
			<point x="555.154" y="645.457"/>
			<point x="568.422" y="605.562" type="curve" smooth="yes"/>
			<point x="583.438" y="564.578"/>
			<point x="594.422" y="521.562"/>
			<point x="602.422" y="478.562" type="curve"/>
			<point x="457.422" y="472.578" type="line"/>
			<point x="415" y="515" type="line"/>
			<point x="419.213" y="555.021"/>
			<point x="413.321" y="598.902"/>
			<point x="398.172" y="633.422" type="curve"/>
			<point x="390.531" y="636.328"/>
			<point x="382.844" y="637.953"/>
			<point x="376.422" y="637.562" type="curve" smooth="yes"/>
			<point x="364.937" y="637.562"/>
			<point x="332.613" y="626.456"/>
			<point x="319.422" y="616.562" type="curve" smooth="yes"/>
			<point x="234.422" y="562.562"/>
			<point x="174.438" y="471.578"/>
			<point x="157.438" y="371.578" type="curve" smooth="yes"/>
			<point x="142.665" y="286.349"/>
			<point x="161.473" y="192.385"/>
			<point x="200.297" y="139.016" type="curve"/>
			<point x="230.1" y="118.583"/>
			<point x="276.606" y="109.602"/>
			<point x="323" y="124" type="curve" smooth="yes"/>
			<point x="351" y="132"/>
			<point x="377" y="146"/>
			<point x="402" y="163" type="curve" smooth="yes"/>
			<point x="457" y="199"/>
			<point x="505" y="247"/>
			<point x="541" y="302" type="curve"/>
			<point x="583.438" y="259.578" type="line"/>
			<point x="601.422" y="92.5781" type="line"/>
			<point x="539.639" y="13.751"/>
			<point x="407.755" y="-71.2031"/>
			<point x="276.422" y="-33.4219" type="curve" smooth="yes"/>
			<point x="241.438" y="-23.4219"/>
			<point x="209.422" y="-5.42188"/>
			<point x="181.422" y="17.5781" type="curve" smooth="yes"/>
			<point x="139" y="60" type="line" smooth="yes"/>
			<point x="92.9717" y="101.764"/>
			<point x="60.7988" y="151.164"/>
			<point x="38" y="215" type="curve" smooth="yes"/>
			<point x="13" y="288"/>
			<point x="9" y="368"/>
			<point x="22" y="444" type="curve" smooth="yes"/>
			<point x="38" y="539"/>
			<point x="82" y="629"/>
			<point x="150" y="697" type="curve" smooth="yes"/>
			<point x="192" y="740.016"/>
			<point x="244" y="775"/>
			<point x="302" y="790" type="curve" smooth="yes"/>
			<point x="343" y="801.016"/>
			<point x="389" y="801.984"/>
		</contour>
		<contour>
			<point x="195.719" y="142.282" type="curve"/>
			<point x="162" y="176.001" type="line"/>
			<point x="171.649" y="163.298"/>
			<point x="182.951" y="151.754"/>
		</contour>
		<contour>
			<point x="303.562" y="784.204" type="curve" smooth="yes"/>
			<point x="246.991" y="769.575"/>
			<point x="195.343" y="734.967"/>
			<point x="154.299" y="692.813" type="curve" smooth="yes"/>
			<point x="21.9863" y="560.501"/>
			<point x="-5.54492" y="360.688"/>
			<point x="43.6895" y="216.954" type="curve" smooth="yes"/>
			<point x="59.5469" y="172.433"/>
			<point x="79.2686" y="134.907"/>
			<point x="107.564" y="101.907" type="curve" smooth="yes"/>
			<point x="135.925" y="62.2031"/>
			<point x="185.756" y="29.0381"/>
			<point x="235.658" y="14.7676" type="curve" smooth="yes"/>
			<point x="306.58" y="-5.63867"/>
			<point x="385.955" y="11.7832"/>
			<point x="450.908" y="49.1582" type="curve" smooth="yes"/>
			<point x="490.512" y="72.9023"/>
			<point x="526.105" y="102.771"/>
			<point x="554.283" y="138.704" type="curve"/>
			<point x="553.033" y="134.36" type="line"/>
			<point x="535.033" y="301.36" type="line"/>
			<point x="546.033" y="298.72" type="line"/>
			<point x="509.576" y="243.051"/>
			<point x="461.045" y="194.498"/>
			<point x="405.377" y="158.032" type="curve" smooth="yes"/>
			<point x="363.968" y="129.897"/>
			<point x="302.571" y="96.4512"/>
			<point x="233.345" y="116.235" type="curve" smooth="yes"/>
			<point x="172.246" y="133.674"/>
			<point x="133.903" y="195.997"/>
			<point x="117.22" y="256.392" type="curve" smooth="yes"/>
			<point x="102.985" y="308.204"/>
			<point x="99.9385" y="362.126"/>
			<point x="109.095" y="415.032" type="curve" smooth="yes"/>
			<point x="126.672" y="518.448"/>
			<point x="191.197" y="611.451"/>
			<point x="273.407" y="663.798" type="curve" smooth="yes"/>
			<point x="287.883" y="674.643"/>
			<point x="320.062" y="685.813"/>
			<point x="333.641" y="685.985" type="curve" smooth="yes"/>
			<point x="351.078" y="687.017"/>
			<point x="373.812" y="676.392"/>
			<point x="386.875" y="663.345" type="curve" smooth="yes"/>
			<point x="397.311" y="652.909"/>
			<point x="402.407" y="640.343"/>
			<point x="406.625" y="629.095" type="curve" smooth="yes"/>
			<point x="419.953" y="593.204"/>
			<point x="425.062" y="553.313"/>
			<point x="420.953" y="514.376" type="curve"/>
			<point x="414.75" y="521.001" type="line"/>
			<point x="559.75" y="526.985" type="line"/>
			<point x="554.094" y="519.892" type="line"/>
			<point x="546.156" y="562.626"/>
			<point x="535.234" y="605.313"/>
			<point x="520.359" y="645.923" type="curve"/>
			<point x="506.673" y="700.671"/>
			<point x="469.787" y="754.415"/>
			<point x="423.312" y="777.626" type="curve" smooth="yes"/>
			<point x="388.188" y="795.673"/>
			<point x="343.672" y="794.97"/>
		</contour>
	</outline>
</glyph>
